  0
SECTION
  2
BLOCKS
  0
ENDSEC
  0
SECTION
  2
ENTITIES
  0
LINE
  8
0
 10
103.857
 20
85.9
 11
115.286
 21
85.9
  0
LINE
  8
0
 10
115.286
 20
85.9
 11
115.286
 21
81
  0
LINE
  8
0
 10
115.286
 20
81
 11
126.714
 21
81
  0
LINE
  8
0
 10
126.714
 20
81
 11
126.714
 21
85.9
  0
LINE
  8
0
 10
126.714
 20
85.9
 11
138.143
 21
85.9
  0
LINE
  8
0
 10
138.143
 20
85.9
 11
138.143
 21
81
  0
LINE
  8
0
 10
138.143
 20
81
 11
149.571
 21
81
  0
LINE
  8
0
 10
149.571
 20
81
 11
149.571
 21
85.9
  0
LINE
  8
0
 10
149.571
 20
85.9
 11
161
 21
85.9
  0
LINE
  8
0
 10
161
 20
85.9
 11
161
 21
92.6536
  0
LINE
  8
0
 10
161
 20
92.6536
 11
156
 21
92.6536
  0
LINE
  8
0
 10
156
 20
92.6536
 11
156
 21
103.632
  0
LINE
  8
0
 10
156
 20
103.632
 11
161
 21
103.632
  0
LINE
  8
0
 10
161
 20
103.632
 11
161
 21
115.511
  0
LINE
  8
0
 10
161
 20
115.511
 11
156
 21
115.511
  0
LINE
  8
0
 10
156
 20
115.511
 11
156
 21
126.489
  0
LINE
  8
0
 10
156
 20
126.489
 11
161
 21
126.489
  0
LINE
  8
0
 10
161
 20
126.489
 11
161
 21
138.368
  0
LINE
  8
0
 10
161
 20
138.368
 11
156
 21
138.368
  0
LINE
  8
0
 10
156
 20
138.368
 11
156
 21
149.346
  0
LINE
  8
0
 10
156
 20
149.346
 11
161
 21
149.346
  0
LINE
  8
0
 10
161
 20
149.346
 11
161
 21
156.1
  0
LINE
  8
0
 10
161
 20
156.1
 11
149.571
 21
156.1
  0
LINE
  8
0
 10
149.571
 20
156.1
 11
149.571
 21
161
  0
LINE
  8
0
 10
149.571
 20
161
 11
138.143
 21
161
  0
LINE
  8
0
 10
138.143
 20
161
 11
138.143
 21
156.1
  0
LINE
  8
0
 10
138.143
 20
156.1
 11
126.714
 21
156.1
  0
LINE
  8
0
 10
126.714
 20
156.1
 11
126.714
 21
161
  0
LINE
  8
0
 10
126.714
 20
161
 11
115.286
 21
161
  0
LINE
  8
0
 10
115.286
 20
161
 11
115.286
 21
156.1
  0
LINE
  8
0
 10
115.286
 20
156.1
 11
103.857
 21
156.1
  0
LINE
  8
0
 10
103.857
 20
156.1
 11
103.857
 21
161
  0
LINE
  8
0
 10
103.857
 20
161
 11
92.4286
 21
161
  0
LINE
  8
0
 10
92.4286
 20
161
 11
92.4286
 21
156.1
  0
LINE
  8
0
 10
92.4286
 20
156.1
 11
81
 21
156.1
  0
LINE
  8
0
 10
81
 20
156.1
 11
81
 21
85.9
  0
LINE
  8
0
 10
81
 20
85.9
 11
92.4286
 21
85.9
  0
LINE
  8
0
 10
92.4286
 20
85.9
 11
92.4286
 21
81
  0
LINE
  8
0
 10
92.4286
 20
81
 11
103.857
 21
81
  0
LINE
  8
0
 10
103.857
 20
81
 11
103.857
 21
85.9
  0
LINE
  8
0
 10
81.1
 20
138.368
 11
81.1
 21
149.346
  0
LINE
  8
0
 10
81.1
 20
149.346
 11
86.1
 21
149.346
  0
LINE
  8
0
 10
86.1
 20
149.346
 11
86.1
 21
138.368
  0
LINE
  8
0
 10
86.1
 20
138.368
 11
81.1
 21
138.368
  0
LINE
  8
0
 10
127
 20
129.5
 11
127
 21
141
  0
LINE
  8
0
 10
127
 20
141
 11
141
 21
141
  0
LINE
  8
0
 10
141
 20
141
 11
141
 21
129.5
  0
LINE
  8
0
 10
141
 20
129.5
 11
127
 21
129.5
  0
LINE
  8
0
 10
81.1
 20
115.511
 11
81.1
 21
126.489
  0
LINE
  8
0
 10
81.1
 20
126.489
 11
86.1
 21
126.489
  0
LINE
  8
0
 10
86.1
 20
126.489
 11
86.1
 21
115.511
  0
LINE
  8
0
 10
86.1
 20
115.511
 11
81.1
 21
115.511
  0
LINE
  8
0
 10
118.619
 20
116.996
 11
118.148
 21
117.177
  0
LINE
  8
0
 10
118.148
 20
117.177
 11
117.769
 21
117.471
  0
LINE
  8
0
 10
117.769
 20
117.471
 11
117.491
 21
117.873
  0
LINE
  8
0
 10
117.491
 20
117.873
 11
117.321
 21
118.367
  0
LINE
  8
0
 10
117.321
 20
118.367
 11
117.265
 21
118.936
  0
LINE
  8
0
 10
117.265
 20
118.936
 11
117.391
 21
119.76
  0
LINE
  8
0
 10
117.391
 20
119.76
 11
117.77
 21
120.382
  0
LINE
  8
0
 10
117.77
 20
120.382
 11
118.375
 21
120.773
  0
LINE
  8
0
 10
118.375
 20
120.773
 11
118.521
 21
120.797
  0
LINE
  8
0
 10
118.521
 20
120.797
 11
118.5
 21
121
  0
LINE
  8
0
 10
118.5
 20
121
 11
118.555
 21
121.52
  0
LINE
  8
0
 10
118.555
 20
121.52
 11
118.716
 21
122.017
  0
LINE
  8
0
 10
118.716
 20
122.017
 11
118.977
 21
122.469
  0
LINE
  8
0
 10
118.977
 20
122.469
 11
119.327
 21
122.858
  0
LINE
  8
0
 10
119.327
 20
122.858
 11
119.75
 21
123.165
  0
LINE
  8
0
 10
119.75
 20
123.165
 11
120.227
 21
123.378
  0
LINE
  8
0
 10
120.227
 20
123.378
 11
120.739
 21
123.486
  0
LINE
  8
0
 10
120.739
 20
123.486
 11
121.261
 21
123.486
  0
LINE
  8
0
 10
121.261
 20
123.486
 11
121.773
 21
123.378
  0
LINE
  8
0
 10
121.773
 20
123.378
 11
122.25
 21
123.165
  0
LINE
  8
0
 10
122.25
 20
123.165
 11
122.673
 21
122.858
  0
LINE
  8
0
 10
122.673
 20
122.858
 11
123.023
 21
122.469
  0
LINE
  8
0
 10
123.023
 20
122.469
 11
123.284
 21
122.017
  0
LINE
  8
0
 10
123.284
 20
122.017
 11
123.445
 21
121.52
  0
LINE
  8
0
 10
123.445
 20
121.52
 11
123.5
 21
121
  0
LINE
  8
0
 10
123.5
 20
121
 11
123.483
 21
120.84
  0
LINE
  8
0
 10
123.483
 20
120.84
 11
124.399
 21
120.84
  0
LINE
  8
0
 10
124.399
 20
120.84
 11
124.399
 21
120.416
  0
LINE
  8
0
 10
124.399
 20
120.416
 11
123.424
 21
120.416
  0
LINE
  8
0
 10
123.424
 20
120.416
 11
123.284
 21
119.983
  0
LINE
  8
0
 10
123.284
 20
119.983
 11
123.023
 21
119.531
  0
LINE
  8
0
 10
123.023
 20
119.531
 11
122.673
 21
119.142
  0
LINE
  8
0
 10
122.673
 20
119.142
 11
122.455
 21
118.984
  0
LINE
  8
0
 10
122.455
 20
118.984
 11
124.334
 21
118.984
  0
LINE
  8
0
 10
124.334
 20
118.984
 11
124.334
 21
118.554
  0
LINE
  8
0
 10
124.334
 20
118.554
 11
122.204
 21
118.554
  0
LINE
  8
0
 10
122.204
 20
118.554
 11
122.204
 21
117
  0
LINE
  8
0
 10
122.204
 20
117
 11
121.685
 21
117
  0
LINE
  8
0
 10
121.685
 20
117
 11
121.685
 21
118.604
  0
LINE
  8
0
 10
121.685
 20
118.604
 11
121.261
 21
118.514
  0
LINE
  8
0
 10
121.261
 20
118.514
 11
121.041
 21
118.514
  0
LINE
  8
0
 10
121.041
 20
118.514
 11
121.026
 21
118.369
  0
LINE
  8
0
 10
121.026
 20
118.369
 11
120.853
 21
117.877
  0
LINE
  8
0
 10
120.853
 20
117.877
 11
120.572
 21
117.475
  0
LINE
  8
0
 10
120.572
 20
117.475
 11
120.19
 21
117.179
  0
LINE
  8
0
 10
120.19
 20
117.179
 11
119.72
 21
116.997
  0
LINE
  8
0
 10
119.72
 20
116.997
 11
119.172
 21
116.936
  0
LINE
  8
0
 10
119.172
 20
116.936
 11
118.619
 21
116.996
  0
LINE
  8
0
 10
119.761
 20
117.46
 11
120.196
 21
117.769
  0
LINE
  8
0
 10
120.196
 20
117.769
 11
120.464
 21
118.267
  0
LINE
  8
0
 10
120.464
 20
118.267
 11
120.503
 21
118.564
  0
LINE
  8
0
 10
120.503
 20
118.564
 11
120.227
 21
118.622
  0
LINE
  8
0
 10
120.227
 20
118.622
 11
119.75
 21
118.835
  0
LINE
  8
0
 10
119.75
 20
118.835
 11
119.327
 21
119.142
  0
LINE
  8
0
 10
119.327
 20
119.142
 11
118.977
 21
119.531
  0
LINE
  8
0
 10
118.977
 20
119.531
 11
118.716
 21
119.983
  0
LINE
  8
0
 10
118.716
 20
119.983
 11
118.588
 21
120.377
  0
LINE
  8
0
 10
118.588
 20
120.377
 11
118.153
 21
120.074
  0
LINE
  8
0
 10
118.153
 20
120.074
 11
117.882
 21
119.586
  0
LINE
  8
0
 10
117.882
 20
119.586
 11
117.792
 21
118.936
  0
LINE
  8
0
 10
117.792
 20
118.936
 11
117.883
 21
118.285
  0
LINE
  8
0
 10
117.883
 20
118.285
 11
118.157
 21
117.783
  0
LINE
  8
0
 10
118.157
 20
117.783
 11
118.593
 21
117.463
  0
LINE
  8
0
 10
118.593
 20
117.463
 11
119.171
 21
117.357
  0
LINE
  8
0
 10
119.171
 20
117.357
 11
119.761
 21
117.46
  0
LINE
  8
0
 10
132.513
 20
116.996
 11
132.042
 21
117.177
  0
LINE
  8
0
 10
132.042
 20
117.177
 11
131.662
 21
117.471
  0
LINE
  8
0
 10
131.662
 20
117.471
 11
131.385
 21
117.873
  0
LINE
  8
0
 10
131.385
 20
117.873
 11
131.215
 21
118.367
  0
LINE
  8
0
 10
131.215
 20
118.367
 11
131.159
 21
118.936
  0
LINE
  8
0
 10
131.159
 20
118.936
 11
131.285
 21
119.76
  0
LINE
  8
0
 10
131.285
 20
119.76
 11
131.664
 21
120.382
  0
LINE
  8
0
 10
131.664
 20
120.382
 11
132.268
 21
120.773
  0
LINE
  8
0
 10
132.268
 20
120.773
 11
133.071
 21
120.904
  0
LINE
  8
0
 10
133.071
 20
120.904
 11
133.619
 21
120.845
  0
LINE
  8
0
 10
133.619
 20
120.845
 11
134.09
 21
120.67
  0
LINE
  8
0
 10
134.09
 20
120.67
 11
134.471
 21
120.383
  0
LINE
  8
0
 10
134.471
 20
120.383
 11
134.75
 21
119.99
  0
LINE
  8
0
 10
134.75
 20
119.99
 11
134.921
 21
119.503
  0
LINE
  8
0
 10
134.921
 20
119.503
 11
134.978
 21
118.936
  0
LINE
  8
0
 10
134.978
 20
118.936
 11
134.92
 21
118.369
  0
LINE
  8
0
 10
134.92
 20
118.369
 11
134.747
 21
117.877
  0
LINE
  8
0
 10
134.747
 20
117.877
 11
134.465
 21
117.475
  0
LINE
  8
0
 10
134.465
 20
117.475
 11
134.084
 21
117.179
  0
LINE
  8
0
 10
134.084
 20
117.179
 11
133.614
 21
116.997
  0
LINE
  8
0
 10
133.614
 20
116.997
 11
133.066
 21
116.936
  0
LINE
  8
0
 10
133.066
 20
116.936
 11
132.513
 21
116.996
  0
LINE
  8
0
 10
133.655
 20
117.46
 11
134.09
 21
117.769
  0
LINE
  8
0
 10
134.09
 20
117.769
 11
134.357
 21
118.267
  0
LINE
  8
0
 10
134.357
 20
118.267
 11
134.447
 21
118.936
  0
LINE
  8
0
 10
134.447
 20
118.936
 11
134.357
 21
119.579
  0
LINE
  8
0
 10
134.357
 20
119.579
 11
134.087
 21
120.068
  0
LINE
  8
0
 10
134.087
 20
120.068
 11
133.653
 21
120.377
  0
LINE
  8
0
 10
133.653
 20
120.377
 11
133.071
 21
120.48
  0
LINE
  8
0
 10
133.071
 20
120.48
 11
132.483
 21
120.378
  0
LINE
  8
0
 10
132.483
 20
120.378
 11
132.047
 21
120.074
  0
LINE
  8
0
 10
132.047
 20
120.074
 11
131.776
 21
119.586
  0
LINE
  8
0
 10
131.776
 20
119.586
 11
131.686
 21
118.936
  0
LINE
  8
0
 10
131.686
 20
118.936
 11
131.777
 21
118.285
  0
LINE
  8
0
 10
131.777
 20
118.285
 11
132.051
 21
117.783
  0
LINE
  8
0
 10
132.051
 20
117.783
 11
132.487
 21
117.463
  0
LINE
  8
0
 10
132.487
 20
117.463
 11
133.065
 21
117.357
  0
LINE
  8
0
 10
133.065
 20
117.357
 11
133.655
 21
117.46
  0
LINE
  8
0
 10
125.007
 20
117
 11
125.007
 21
120.84
  0
LINE
  8
0
 10
125.007
 20
120.84
 11
127.721
 21
120.84
  0
LINE
  8
0
 10
127.721
 20
120.84
 11
127.721
 21
120.416
  0
LINE
  8
0
 10
127.721
 20
120.416
 11
125.526
 21
120.416
  0
LINE
  8
0
 10
125.526
 20
120.416
 11
125.526
 21
118.984
  0
LINE
  8
0
 10
125.526
 20
118.984
 11
127.656
 21
118.984
  0
LINE
  8
0
 10
127.656
 20
118.984
 11
127.656
 21
118.554
  0
LINE
  8
0
 10
127.656
 20
118.554
 11
125.526
 21
118.554
  0
LINE
  8
0
 10
125.526
 20
118.554
 11
125.526
 21
117
  0
LINE
  8
0
 10
125.526
 20
117
 11
125.007
 21
117
  0
LINE
  8
0
 10
135.581
 20
117
 11
135.581
 21
120.84
  0
LINE
  8
0
 10
135.581
 20
120.84
 11
136.184
 21
120.84
  0
LINE
  8
0
 10
136.184
 20
120.84
 11
138.265
 21
117.546
  0
LINE
  8
0
 10
138.265
 20
117.546
 11
138.24
 21
118.006
  0
LINE
  8
0
 10
138.24
 20
118.006
 11
138.232
 21
118.32
  0
LINE
  8
0
 10
138.232
 20
118.32
 11
138.232
 21
120.84
  0
LINE
  8
0
 10
138.232
 20
120.84
 11
138.7
 21
120.84
  0
LINE
  8
0
 10
138.7
 20
120.84
 11
138.7
 21
117
  0
LINE
  8
0
 10
138.7
 20
117
 11
138.075
 21
117
  0
LINE
  8
0
 10
138.075
 20
117
 11
136.016
 21
120.272
  0
LINE
  8
0
 10
136.016
 20
120.272
 11
136.029
 21
120.008
  0
LINE
  8
0
 10
136.029
 20
120.008
 11
136.043
 21
119.552
  0
LINE
  8
0
 10
136.043
 20
119.552
 11
136.043
 21
117
  0
LINE
  8
0
 10
136.043
 20
117
 11
135.581
 21
117
  0
LINE
  8
0
 10
117.402
 20
107.663
 11
116.931
 21
107.844
  0
LINE
  8
0
 10
116.931
 20
107.844
 11
116.551
 21
108.138
  0
LINE
  8
0
 10
116.551
 20
108.138
 11
116.274
 21
108.54
  0
LINE
  8
0
 10
116.274
 20
108.54
 11
116.104
 21
109.033
  0
LINE
  8
0
 10
116.104
 20
109.033
 11
116.048
 21
109.603
  0
LINE
  8
0
 10
116.048
 20
109.603
 11
116.174
 21
110.427
  0
LINE
  8
0
 10
116.174
 20
110.427
 11
116.553
 21
111.049
  0
LINE
  8
0
 10
116.553
 20
111.049
 11
117.157
 21
111.44
  0
LINE
  8
0
 10
117.157
 20
111.44
 11
117.96
 21
111.571
  0
LINE
  8
0
 10
117.96
 20
111.571
 11
118.508
 21
111.512
  0
LINE
  8
0
 10
118.508
 20
111.512
 11
118.979
 21
111.337
  0
LINE
  8
0
 10
118.979
 20
111.337
 11
119.36
 21
111.05
  0
LINE
  8
0
 10
119.36
 20
111.05
 11
119.639
 21
110.657
  0
LINE
  8
0
 10
119.639
 20
110.657
 11
119.81
 21
110.17
  0
LINE
  8
0
 10
119.81
 20
110.17
 11
119.867
 21
109.603
  0
LINE
  8
0
 10
119.867
 20
109.603
 11
119.809
 21
109.036
  0
LINE
  8
0
 10
119.809
 20
109.036
 11
119.636
 21
108.544
  0
LINE
  8
0
 10
119.636
 20
108.544
 11
119.354
 21
108.142
  0
LINE
  8
0
 10
119.354
 20
108.142
 11
118.973
 21
107.846
  0
LINE
  8
0
 10
118.973
 20
107.846
 11
118.503
 21
107.663
  0
LINE
  8
0
 10
118.503
 20
107.663
 11
117.955
 21
107.603
  0
LINE
  8
0
 10
117.955
 20
107.603
 11
117.402
 21
107.663
  0
LINE
  8
0
 10
118.544
 20
108.127
 11
118.979
 21
108.436
  0
LINE
  8
0
 10
118.979
 20
108.436
 11
119.246
 21
108.934
  0
LINE
  8
0
 10
119.246
 20
108.934
 11
119.336
 21
109.603
  0
LINE
  8
0
 10
119.336
 20
109.603
 11
119.246
 21
110.246
  0
LINE
  8
0
 10
119.246
 20
110.246
 11
118.976
 21
110.735
  0
LINE
  8
0
 10
118.976
 20
110.735
 11
118.542
 21
111.044
  0
LINE
  8
0
 10
118.542
 20
111.044
 11
117.96
 21
111.147
  0
LINE
  8
0
 10
117.96
 20
111.147
 11
117.372
 21
111.045
  0
LINE
  8
0
 10
117.372
 20
111.045
 11
116.936
 21
110.741
  0
LINE
  8
0
 10
116.936
 20
110.741
 11
116.665
 21
110.253
  0
LINE
  8
0
 10
116.665
 20
110.253
 11
116.575
 21
109.603
  0
LINE
  8
0
 10
116.575
 20
109.603
 11
116.666
 21
108.951
  0
LINE
  8
0
 10
116.666
 20
108.951
 11
116.94
 21
108.45
  0
LINE
  8
0
 10
116.94
 20
108.45
 11
117.376
 21
108.13
  0
LINE
  8
0
 10
117.376
 20
108.13
 11
117.954
 21
108.024
  0
LINE
  8
0
 10
117.954
 20
108.024
 11
118.544
 21
108.127
  0
LINE
  8
0
 10
121.563
 20
107.646
 11
121.181
 21
107.775
  0
LINE
  8
0
 10
121.181
 20
107.775
 11
120.869
 21
107.986
  0
LINE
  8
0
 10
120.869
 20
107.986
 11
120.636
 21
108.275
  0
LINE
  8
0
 10
120.636
 20
108.275
 11
120.491
 21
108.634
  0
LINE
  8
0
 10
120.491
 20
108.634
 11
120.443
 21
109.056
  0
LINE
  8
0
 10
120.443
 20
109.056
 11
120.443
 21
111.507
  0
LINE
  8
0
 10
120.443
 20
111.507
 11
120.962
 21
111.507
  0
LINE
  8
0
 10
120.962
 20
111.507
 11
120.962
 21
109.098
  0
LINE
  8
0
 10
120.962
 20
109.098
 11
121.029
 21
108.634
  0
LINE
  8
0
 10
121.029
 20
108.634
 11
121.229
 21
108.297
  0
LINE
  8
0
 10
121.229
 20
108.297
 11
121.556
 21
108.092
  0
LINE
  8
0
 10
121.556
 20
108.092
 11
122.002
 21
108.024
  0
LINE
  8
0
 10
122.002
 20
108.024
 11
122.463
 21
108.094
  0
LINE
  8
0
 10
122.463
 20
108.094
 11
122.809
 21
108.307
  0
LINE
  8
0
 10
122.809
 20
108.307
 11
123.025
 21
108.655
  0
LINE
  8
0
 10
123.025
 20
108.655
 11
123.097
 21
109.134
  0
LINE
  8
0
 10
123.097
 20
109.134
 11
123.097
 21
111.507
  0
LINE
  8
0
 10
123.097
 20
111.507
 11
123.613
 21
111.507
  0
LINE
  8
0
 10
123.613
 20
111.507
 11
123.613
 21
109.106
  0
LINE
  8
0
 10
123.613
 20
109.106
 11
123.564
 21
108.67
  0
LINE
  8
0
 10
123.564
 20
108.67
 11
123.415
 21
108.299
  0
LINE
  8
0
 10
123.415
 20
108.299
 11
123.177
 21
108
  0
LINE
  8
0
 10
123.177
 20
108
 11
122.856
 21
107.782
  0
LINE
  8
0
 10
122.856
 20
107.782
 11
122.463
 21
107.647
  0
LINE
  8
0
 10
122.463
 20
107.647
 11
122.005
 21
107.603
  0
LINE
  8
0
 10
122.005
 20
107.603
 11
121.563
 21
107.646
  0
LINE
  8
0
 10
125.403
 20
107.667
 11
125.403
 21
111.083
  0
LINE
  8
0
 10
125.403
 20
111.083
 11
124.066
 21
111.083
  0
LINE
  8
0
 10
124.066
 20
111.083
 11
124.066
 21
111.507
  0
LINE
  8
0
 10
124.066
 20
111.507
 11
127.265
 21
111.507
  0
LINE
  8
0
 10
127.265
 20
111.507
 11
127.265
 21
111.083
  0
LINE
  8
0
 10
127.265
 20
111.083
 11
125.92
 21
111.083
  0
LINE
  8
0
 10
125.92
 20
111.083
 11
125.92
 21
107.667
  0
LINE
  8
0
 10
125.92
 20
107.667
 11
125.403
 21
107.667
  0
LINE
  8
0
 10
81.1
 20
92.6536
 11
81.1
 21
103.632
  0
LINE
  8
0
 10
81.1
 20
103.632
 11
86.1
 21
103.632
  0
LINE
  8
0
 10
86.1
 20
103.632
 11
86.1
 21
92.6536
  0
LINE
  8
0
 10
86.1
 20
92.6536
 11
81.1
 21
92.6536
  0
LINE
  8
0
 10
147.329
 20
91
 11
147.329
 21
91.531
  0
LINE
  8
0
 10
147.329
 20
91.531
 11
149.773
 21
91.531
  0
LINE
  8
0
 10
149.773
 20
91.531
 11
149.773
 21
95.8
  0
LINE
  8
0
 10
149.773
 20
95.8
 11
150.424
 21
95.8
  0
LINE
  8
0
 10
150.424
 20
95.8
 11
150.424
 21
91
  0
LINE
  8
0
 10
150.424
 20
91
 11
147.329
 21
91
  0
LINE
  8
0
 10
136.041
 20
91
 11
136.041
 21
95.269
  0
LINE
  8
0
 10
136.041
 20
95.269
 11
134.379
 21
95.269
  0
LINE
  8
0
 10
134.379
 20
95.269
 11
134.379
 21
95.8
  0
LINE
  8
0
 10
134.379
 20
95.8
 11
138.348
 21
95.8
  0
LINE
  8
0
 10
138.348
 20
95.8
 11
138.348
 21
95.269
  0
LINE
  8
0
 10
138.348
 20
95.269
 11
136.689
 21
95.269
  0
LINE
  8
0
 10
136.689
 20
95.269
 11
136.689
 21
91
  0
LINE
  8
0
 10
136.689
 20
91
 11
136.041
 21
91
  0
LINE
  8
0
 10
141.44
 20
91
 11
141.44
 21
92.958
  0
LINE
  8
0
 10
141.44
 20
92.958
 11
138.742
 21
92.958
  0
LINE
  8
0
 10
138.742
 20
92.958
 11
138.742
 21
93.496
  0
LINE
  8
0
 10
138.742
 20
93.496
 11
141.44
 21
93.496
  0
LINE
  8
0
 10
141.44
 20
93.496
 11
141.44
 21
95.269
  0
LINE
  8
0
 10
141.44
 20
95.269
 11
138.66
 21
95.269
  0
LINE
  8
0
 10
138.66
 20
95.269
 11
138.66
 21
95.8
  0
LINE
  8
0
 10
138.66
 20
95.8
 11
142.091
 21
95.8
  0
LINE
  8
0
 10
142.091
 20
95.8
 11
142.091
 21
91
  0
LINE
  8
0
 10
142.091
 20
91
 11
141.44
 21
91
  0
LINE
  8
0
 10
142.84
 20
91
 11
142.84
 21
91.531
  0
LINE
  8
0
 10
142.84
 20
91.531
 11
145.985
 21
91.531
  0
LINE
  8
0
 10
145.985
 20
91.531
 11
145.985
 21
93.227
  0
LINE
  8
0
 10
145.985
 20
93.227
 11
143.185
 21
93.227
  0
LINE
  8
0
 10
143.185
 20
93.227
 11
143.185
 21
93.752
  0
LINE
  8
0
 10
143.185
 20
93.752
 11
145.985
 21
93.752
  0
LINE
  8
0
 10
145.985
 20
93.752
 11
145.985
 21
95.269
  0
LINE
  8
0
 10
145.985
 20
95.269
 11
142.98
 21
95.269
  0
LINE
  8
0
 10
142.98
 20
95.269
 11
142.98
 21
95.8
  0
LINE
  8
0
 10
142.98
 20
95.8
 11
146.636
 21
95.8
  0
LINE
  8
0
 10
146.636
 20
95.8
 11
146.636
 21
91
  0
LINE
  8
0
 10
146.636
 20
91
 11
142.84
 21
91
  0
LINE
  8
0
 10
11.6536
 20
85.9
 11
22.6321
 21
85.9
  0
LINE
  8
0
 10
22.6321
 20
85.9
 11
22.6321
 21
81
  0
LINE
  8
0
 10
22.6321
 20
81
 11
34.5107
 21
81
  0
LINE
  8
0
 10
34.5107
 20
81
 11
34.5107
 21
85.9
  0
LINE
  8
0
 10
34.5107
 20
85.9
 11
45.4893
 21
85.9
  0
LINE
  8
0
 10
45.4893
 20
85.9
 11
45.4893
 21
81
  0
LINE
  8
0
 10
45.4893
 20
81
 11
57.3678
 21
81
  0
LINE
  8
0
 10
57.3678
 20
81
 11
57.3678
 21
85.9
  0
LINE
  8
0
 10
57.3678
 20
85.9
 11
68.3464
 21
85.9
  0
LINE
  8
0
 10
68.3464
 20
85.9
 11
68.3464
 21
81
  0
LINE
  8
0
 10
68.3464
 20
81
 11
80
 21
81
  0
LINE
  8
0
 10
80
 20
81
 11
80
 21
92.6536
  0
LINE
  8
0
 10
80
 20
92.6536
 11
75
 21
92.6536
  0
LINE
  8
0
 10
75
 20
92.6536
 11
75
 21
103.632
  0
LINE
  8
0
 10
75
 20
103.632
 11
80
 21
103.632
  0
LINE
  8
0
 10
80
 20
103.632
 11
80
 21
115.511
  0
LINE
  8
0
 10
80
 20
115.511
 11
75
 21
115.511
  0
LINE
  8
0
 10
75
 20
115.511
 11
75
 21
126.489
  0
LINE
  8
0
 10
75
 20
126.489
 11
80
 21
126.489
  0
LINE
  8
0
 10
80
 20
126.489
 11
80
 21
138.368
  0
LINE
  8
0
 10
80
 20
138.368
 11
75
 21
138.368
  0
LINE
  8
0
 10
75
 20
138.368
 11
75
 21
149.346
  0
LINE
  8
0
 10
75
 20
149.346
 11
80
 21
149.346
  0
LINE
  8
0
 10
80
 20
149.346
 11
80
 21
161
  0
LINE
  8
0
 10
80
 20
161
 11
68.3464
 21
161
  0
LINE
  8
0
 10
68.3464
 20
161
 11
68.3464
 21
156.1
  0
LINE
  8
0
 10
68.3464
 20
156.1
 11
57.3678
 21
156.1
  0
LINE
  8
0
 10
57.3678
 20
156.1
 11
57.3678
 21
161
  0
LINE
  8
0
 10
57.3678
 20
161
 11
45.4893
 21
161
  0
LINE
  8
0
 10
45.4893
 20
161
 11
45.4893
 21
156.1
  0
LINE
  8
0
 10
45.4893
 20
156.1
 11
34.5107
 21
156.1
  0
LINE
  8
0
 10
34.5107
 20
156.1
 11
34.5107
 21
161
  0
LINE
  8
0
 10
34.5107
 20
161
 11
22.6321
 21
161
  0
LINE
  8
0
 10
22.6321
 20
161
 11
22.6321
 21
156.1
  0
LINE
  8
0
 10
22.6321
 20
156.1
 11
11.6536
 21
156.1
  0
LINE
  8
0
 10
11.6536
 20
156.1
 11
11.6536
 21
161
  0
LINE
  8
0
 10
11.6536
 20
161
 11
0
 21
161
  0
LINE
  8
0
 10
0
 20
161
 11
0
 21
81
  0
LINE
  8
0
 10
0
 20
81
 11
11.6536
 21
81
  0
LINE
  8
0
 10
11.6536
 20
81
 11
11.6536
 21
85.9
  0
LINE
  8
0
 10
0.0999908
 20
138.368
 11
0.0999908
 21
149.346
  0
LINE
  8
0
 10
0.0999908
 20
149.346
 11
5.09999
 21
149.346
  0
LINE
  8
0
 10
5.09999
 20
149.346
 11
5.09999
 21
138.368
  0
LINE
  8
0
 10
5.09999
 20
138.368
 11
0.0999908
 21
138.368
  0
LINE
  8
0
 10
0.0999908
 20
115.511
 11
0.0999908
 21
126.489
  0
LINE
  8
0
 10
0.0999908
 20
126.489
 11
5.09999
 21
126.489
  0
LINE
  8
0
 10
5.09999
 20
126.489
 11
5.09999
 21
115.511
  0
LINE
  8
0
 10
5.09999
 20
115.511
 11
0.0999908
 21
115.511
  0
LINE
  8
0
 10
0.0999908
 20
92.6536
 11
0.0999908
 21
103.632
  0
LINE
  8
0
 10
0.0999908
 20
103.632
 11
5.09999
 21
103.632
  0
LINE
  8
0
 10
5.09999
 20
103.632
 11
5.09999
 21
92.6536
  0
LINE
  8
0
 10
5.09999
 20
92.6536
 11
0.0999908
 21
92.6536
  0
LINE
  8
0
 10
62.2734
 20
90.9696
 11
61.8491
 21
91.0702
  0
LINE
  8
0
 10
61.8491
 20
91.0702
 11
61.4681
 21
91.238
  0
LINE
  8
0
 10
61.4681
 20
91.238
 11
61.1361
 21
91.469
  0
LINE
  8
0
 10
61.1361
 20
91.469
 11
60.8601
 21
91.758
  0
LINE
  8
0
 10
60.8601
 20
91.758
 11
60.6401
 21
92.105
  0
LINE
  8
0
 10
60.6401
 20
92.105
 11
60.4795
 21
92.5018
  0
LINE
  8
0
 10
60.4795
 20
92.5018
 11
60.3832
 21
92.9401
  0
LINE
  8
0
 10
60.3832
 20
92.9401
 11
60.3511
 21
93.42
  0
LINE
  8
0
 10
60.3511
 20
93.42
 11
60.3827
 21
93.901
  0
LINE
  8
0
 10
60.3827
 20
93.901
 11
60.4777
 21
94.3373
  0
LINE
  8
0
 10
60.4777
 20
94.3373
 11
60.6361
 21
94.729
  0
LINE
  8
0
 10
60.6361
 20
94.729
 11
60.8544
 21
95.069
  0
LINE
  8
0
 10
60.8544
 20
95.069
 11
61.1294
 21
95.3503
  0
LINE
  8
0
 10
61.1294
 20
95.3503
 11
61.4611
 21
95.573
  0
LINE
  8
0
 10
61.4611
 20
95.573
 11
61.8422
 21
95.7347
  0
LINE
  8
0
 10
61.8422
 20
95.7347
 11
62.2668
 21
95.8317
  0
LINE
  8
0
 10
62.2668
 20
95.8317
 11
62.7351
 21
95.864
  0
LINE
  8
0
 10
62.7351
 20
95.864
 11
63.4308
 21
95.792
  0
LINE
  8
0
 10
63.4308
 20
95.792
 11
64.0168
 21
95.576
  0
LINE
  8
0
 10
64.0168
 20
95.576
 11
64.4931
 21
95.216
  0
LINE
  8
0
 10
64.4931
 20
95.216
 11
64.8442
 21
94.7289
  0
LINE
  8
0
 10
64.8442
 20
94.7289
 11
65.0548
 21
94.1302
  0
LINE
  8
0
 10
65.0548
 20
94.1302
 11
65.1251
 21
93.42
  0
LINE
  8
0
 10
65.1251
 20
93.42
 11
65.0936
 21
92.9382
  0
LINE
  8
0
 10
65.0936
 20
92.9382
 11
64.9993
 21
92.4982
  0
LINE
  8
0
 10
64.9993
 20
92.4982
 11
64.8421
 21
92.1
  0
LINE
  8
0
 10
64.8421
 20
92.1
 11
64.6245
 21
91.7523
  0
LINE
  8
0
 10
64.6245
 20
91.7523
 11
64.3505
 21
91.464
  0
LINE
  8
0
 10
64.3505
 20
91.464
 11
64.0201
 21
91.235
  0
LINE
  8
0
 10
64.0201
 20
91.235
 11
63.6388
 21
91.0689
  0
LINE
  8
0
 10
63.6388
 20
91.0689
 11
63.2125
 21
90.9692
  0
LINE
  8
0
 10
63.2125
 20
90.9692
 11
62.7411
 21
90.936
  0
LINE
  8
0
 10
62.7411
 20
90.936
 11
62.2734
 21
90.9696
  0
LINE
  8
0
 10
63.2418
 20
91.5227
 11
63.6642
 21
91.6987
  0
LINE
  8
0
 10
63.6642
 20
91.6987
 11
64.0081
 21
91.992
  0
LINE
  8
0
 10
64.0081
 20
91.992
 11
64.2614
 21
92.3854
  0
LINE
  8
0
 10
64.2614
 20
92.3854
 11
64.4134
 21
92.8618
  0
LINE
  8
0
 10
64.4134
 20
92.8618
 11
64.4641
 21
93.421
  0
LINE
  8
0
 10
64.4641
 20
93.421
 11
64.414
 21
93.9807
  0
LINE
  8
0
 10
64.414
 20
93.9807
 11
64.2636
 21
94.4503
  0
LINE
  8
0
 10
64.2636
 20
94.4503
 11
64.0131
 21
94.83
  0
LINE
  8
0
 10
64.0131
 20
94.83
 11
63.6705
 21
95.1094
  0
LINE
  8
0
 10
63.6705
 20
95.1094
 11
63.2442
 21
95.2771
  0
LINE
  8
0
 10
63.2442
 20
95.2771
 11
62.7341
 21
95.333
  0
LINE
  8
0
 10
62.7341
 20
95.333
 11
62.2286
 21
95.2763
  0
LINE
  8
0
 10
62.2286
 20
95.2763
 11
61.8056
 21
95.1063
  0
LINE
  8
0
 10
61.8056
 20
95.1063
 11
61.4651
 21
94.823
  0
LINE
  8
0
 10
61.4651
 20
94.823
 11
61.2151
 21
94.441
  0
LINE
  8
0
 10
61.2151
 20
94.441
 11
61.0651
 21
93.9737
  0
LINE
  8
0
 10
61.0651
 20
93.9737
 11
61.0151
 21
93.421
  0
LINE
  8
0
 10
61.0151
 20
93.421
 11
61.0646
 21
92.8448
  0
LINE
  8
0
 10
61.0646
 20
92.8448
 11
61.2133
 21
92.3628
  0
LINE
  8
0
 10
61.2133
 20
92.3628
 11
61.4611
 21
91.975
  0
LINE
  8
0
 10
61.4611
 20
91.975
 11
61.8015
 21
91.6911
  0
LINE
  8
0
 10
61.8015
 20
91.6911
 11
62.2282
 21
91.5208
  0
LINE
  8
0
 10
62.2282
 20
91.5208
 11
62.7411
 21
91.464
  0
LINE
  8
0
 10
62.7411
 20
91.464
 11
63.2418
 21
91.5227
  0
LINE
  8
0
 10
48.7753
 20
90.9696
 11
48.351
 21
91.0702
  0
LINE
  8
0
 10
48.351
 20
91.0702
 11
47.97
 21
91.238
  0
LINE
  8
0
 10
47.97
 20
91.238
 11
47.638
 21
91.469
  0
LINE
  8
0
 10
47.638
 20
91.469
 11
47.362
 21
91.758
  0
LINE
  8
0
 10
47.362
 20
91.758
 11
47.142
 21
92.105
  0
LINE
  8
0
 10
47.142
 20
92.105
 11
46.9815
 21
92.5018
  0
LINE
  8
0
 10
46.9815
 20
92.5018
 11
46.8851
 21
92.9401
  0
LINE
  8
0
 10
46.8851
 20
92.9401
 11
46.853
 21
93.42
  0
LINE
  8
0
 10
46.853
 20
93.42
 11
46.8847
 21
93.901
  0
LINE
  8
0
 10
46.8847
 20
93.901
 11
46.9797
 21
94.3373
  0
LINE
  8
0
 10
46.9797
 20
94.3373
 11
47.138
 21
94.729
  0
LINE
  8
0
 10
47.138
 20
94.729
 11
47.3564
 21
95.069
  0
LINE
  8
0
 10
47.3564
 20
95.069
 11
47.6313
 21
95.3503
  0
LINE
  8
0
 10
47.6313
 20
95.3503
 11
47.963
 21
95.573
  0
LINE
  8
0
 10
47.963
 20
95.573
 11
48.3441
 21
95.7347
  0
LINE
  8
0
 10
48.3441
 20
95.7347
 11
48.7688
 21
95.8317
  0
LINE
  8
0
 10
48.7688
 20
95.8317
 11
49.237
 21
95.864
  0
LINE
  8
0
 10
49.237
 20
95.864
 11
49.9328
 21
95.792
  0
LINE
  8
0
 10
49.9328
 20
95.792
 11
50.5188
 21
95.576
  0
LINE
  8
0
 10
50.5188
 20
95.576
 11
50.995
 21
95.216
  0
LINE
  8
0
 10
50.995
 20
95.216
 11
51.3461
 21
94.7289
  0
LINE
  8
0
 10
51.3461
 20
94.7289
 11
51.5568
 21
94.1302
  0
LINE
  8
0
 10
51.5568
 20
94.1302
 11
51.627
 21
93.42
  0
LINE
  8
0
 10
51.627
 20
93.42
 11
51.5956
 21
92.9382
  0
LINE
  8
0
 10
51.5956
 20
92.9382
 11
51.5012
 21
92.4982
  0
LINE
  8
0
 10
51.5012
 20
92.4982
 11
51.344
 21
92.1
  0
LINE
  8
0
 10
51.344
 20
92.1
 11
51.1265
 21
91.7523
  0
LINE
  8
0
 10
51.1265
 20
91.7523
 11
50.8525
 21
91.464
  0
LINE
  8
0
 10
50.8525
 20
91.464
 11
50.522
 21
91.235
  0
LINE
  8
0
 10
50.522
 20
91.235
 11
50.1408
 21
91.0689
  0
LINE
  8
0
 10
50.1408
 20
91.0689
 11
49.7145
 21
90.9692
  0
LINE
  8
0
 10
49.7145
 20
90.9692
 11
49.243
 21
90.936
  0
LINE
  8
0
 10
49.243
 20
90.936
 11
48.7753
 21
90.9696
  0
LINE
  8
0
 10
49.7438
 20
91.5227
 11
50.1661
 21
91.6987
  0
LINE
  8
0
 10
50.1661
 20
91.6987
 11
50.51
 21
91.992
  0
LINE
  8
0
 10
50.51
 20
91.992
 11
50.7634
 21
92.3854
  0
LINE
  8
0
 10
50.7634
 20
92.3854
 11
50.9153
 21
92.8618
  0
LINE
  8
0
 10
50.9153
 20
92.8618
 11
50.966
 21
93.421
  0
LINE
  8
0
 10
50.966
 20
93.421
 11
50.9159
 21
93.9807
  0
LINE
  8
0
 10
50.9159
 20
93.9807
 11
50.7656
 21
94.4503
  0
LINE
  8
0
 10
50.7656
 20
94.4503
 11
50.515
 21
94.83
  0
LINE
  8
0
 10
50.515
 20
94.83
 11
50.1725
 21
95.1094
  0
LINE
  8
0
 10
50.1725
 20
95.1094
 11
49.7461
 21
95.2771
  0
LINE
  8
0
 10
49.7461
 20
95.2771
 11
49.236
 21
95.333
  0
LINE
  8
0
 10
49.236
 20
95.333
 11
48.7306
 21
95.2763
  0
LINE
  8
0
 10
48.7306
 20
95.2763
 11
48.3076
 21
95.1063
  0
LINE
  8
0
 10
48.3076
 20
95.1063
 11
47.967
 21
94.823
  0
LINE
  8
0
 10
47.967
 20
94.823
 11
47.717
 21
94.441
  0
LINE
  8
0
 10
47.717
 20
94.441
 11
47.567
 21
93.9737
  0
LINE
  8
0
 10
47.567
 20
93.9737
 11
47.517
 21
93.421
  0
LINE
  8
0
 10
47.517
 20
93.421
 11
47.5666
 21
92.8448
  0
LINE
  8
0
 10
47.5666
 20
92.8448
 11
47.7152
 21
92.3628
  0
LINE
  8
0
 10
47.7152
 20
92.3628
 11
47.963
 21
91.975
  0
LINE
  8
0
 10
47.963
 20
91.975
 11
48.3035
 21
91.6911
  0
LINE
  8
0
 10
48.3035
 20
91.6911
 11
48.7301
 21
91.5208
  0
LINE
  8
0
 10
48.7301
 20
91.5208
 11
49.243
 21
91.464
  0
LINE
  8
0
 10
49.243
 20
91.464
 11
49.7438
 21
91.5227
  0
LINE
  8
0
 10
57.6922
 20
91
 11
57.6922
 21
95.269
  0
LINE
  8
0
 10
57.6922
 20
95.269
 11
56.0302
 21
95.269
  0
LINE
  8
0
 10
56.0302
 20
95.269
 11
56.0302
 21
95.8
  0
LINE
  8
0
 10
56.0302
 20
95.8
 11
59.9992
 21
95.8
  0
LINE
  8
0
 10
59.9992
 20
95.8
 11
59.9992
 21
95.269
  0
LINE
  8
0
 10
59.9992
 20
95.269
 11
58.3402
 21
95.269
  0
LINE
  8
0
 10
58.3402
 20
95.269
 11
58.3402
 21
91
  0
LINE
  8
0
 10
58.3402
 20
91
 11
57.6922
 21
91
  0
LINE
  8
0
 10
41.5242
 20
91
 11
41.5242
 21
95.8
  0
LINE
  8
0
 10
41.5242
 20
95.8
 11
42.3592
 21
95.8
  0
LINE
  8
0
 10
42.3592
 20
95.8
 11
43.5992
 21
92.4011
  0
LINE
  8
0
 10
43.5992
 20
92.4011
 11
43.6372
 21
92.2844
  0
LINE
  8
0
 10
43.6372
 20
92.2844
 11
43.6872
 21
92.122
  0
LINE
  8
0
 10
43.6872
 20
92.122
 11
43.7368
 21
91.953
  0
LINE
  8
0
 10
43.7368
 20
91.953
 11
43.7738
 21
91.8153
  0
LINE
  8
0
 10
43.7738
 20
91.8153
 11
43.7982
 21
91.709
  0
LINE
  8
0
 10
43.7982
 20
91.709
 11
43.8156
 21
91.7912
  0
LINE
  8
0
 10
43.8156
 20
91.7912
 11
43.8426
 21
91.9019
  0
LINE
  8
0
 10
43.8426
 20
91.9019
 11
43.9204
 21
92.1911
  0
LINE
  8
0
 10
43.9204
 20
92.1911
 11
43.9627
 21
92.3348
  0
LINE
  8
0
 10
43.9627
 20
92.3348
 11
44.0062
 21
92.472
  0
LINE
  8
0
 10
44.0062
 20
92.472
 11
45.2432
 21
95.8
  0
LINE
  8
0
 10
45.2432
 20
95.8
 11
46.0982
 21
95.8
  0
LINE
  8
0
 10
46.0982
 20
95.8
 11
46.0982
 21
91
  0
LINE
  8
0
 10
46.0982
 20
91
 11
45.5192
 21
91
  0
LINE
  8
0
 10
45.5192
 20
91
 11
45.5192
 21
94.203
  0
LINE
  8
0
 10
45.5192
 20
94.203
 11
45.5322
 21
94.847
  0
LINE
  8
0
 10
45.5322
 20
94.847
 11
45.5432
 21
95.225
  0
LINE
  8
0
 10
45.5432
 20
95.225
 11
45.4332
 21
94.85
  0
LINE
  8
0
 10
45.4332
 20
94.85
 11
45.2472
 21
94.271
  0
LINE
  8
0
 10
45.2472
 20
94.271
 11
44.0232
 21
91
  0
LINE
  8
0
 10
44.0232
 20
91
 11
43.5792
 21
91
  0
LINE
  8
0
 10
43.5792
 20
91
 11
42.3722
 21
94.271
  0
LINE
  8
0
 10
42.3722
 20
94.271
 11
42.2823
 21
94.5299
  0
LINE
  8
0
 10
42.2823
 20
94.5299
 11
42.1846
 21
94.8479
  0
LINE
  8
0
 10
42.1846
 20
94.8479
 11
42.0792
 21
95.225
  0
LINE
  8
0
 10
42.0792
 20
95.225
 11
42.0964
 21
94.8932
  0
LINE
  8
0
 10
42.0964
 20
94.8932
 11
42.1068
 21
94.5526
  0
LINE
  8
0
 10
42.1068
 20
94.5526
 11
42.1102
 21
94.203
  0
LINE
  8
0
 10
42.1102
 20
94.203
 11
42.1102
 21
91
  0
LINE
  8
0
 10
42.1102
 20
91
 11
41.5242
 21
91
  0
LINE
  8
0
 10
67.469
 20
91
 11
66.9531
 21
91.0394
  0
LINE
  8
0
 10
66.9531
 20
91.0394
 11
66.5188
 21
91.1578
  0
LINE
  8
0
 10
66.5188
 20
91.1578
 11
66.166
 21
91.355
  0
LINE
  8
0
 10
66.166
 20
91.355
 11
65.9055
 21
91.6232
  0
LINE
  8
0
 10
65.9055
 20
91.6232
 11
65.7491
 21
91.9545
  0
LINE
  8
0
 10
65.7491
 20
91.9545
 11
65.697
 21
92.349
  0
LINE
  8
0
 10
65.697
 20
92.349
 11
65.7317
 21
92.65
  0
LINE
  8
0
 10
65.7317
 20
92.65
 11
65.8357
 21
92.9143
  0
LINE
  8
0
 10
65.8357
 20
92.9143
 11
66.009
 21
93.142
  0
LINE
  8
0
 10
66.009
 20
93.142
 11
66.2457
 21
93.324
  0
LINE
  8
0
 10
66.2457
 20
93.324
 11
66.541
 21
93.4513
  0
LINE
  8
0
 10
66.541
 20
93.4513
 11
66.895
 21
93.524
  0
LINE
  8
0
 10
66.895
 20
93.524
 11
66.6251
 21
93.6112
  0
LINE
  8
0
 10
66.6251
 20
93.6112
 11
66.3994
 21
93.7409
  0
LINE
  8
0
 10
66.3994
 20
93.7409
 11
66.218
 21
93.913
  0
LINE
  8
0
 10
66.218
 20
93.913
 11
66.0847
 21
94.1221
  0
LINE
  8
0
 10
66.0847
 20
94.1221
 11
66.0047
 21
94.3614
  0
LINE
  8
0
 10
66.0047
 20
94.3614
 11
65.978
 21
94.631
  0
LINE
  8
0
 10
65.978
 20
94.631
 11
66.1665
 21
95.2804
  0
LINE
  8
0
 10
66.1665
 20
95.2804
 11
66.7318
 21
95.6701
  0
LINE
  8
0
 10
66.7318
 20
95.6701
 11
67.674
 21
95.8
  0
LINE
  8
0
 10
67.674
 20
95.8
 11
69.425
 21
95.8
  0
LINE
  8
0
 10
69.425
 20
95.8
 11
69.425
 21
91
  0
LINE
  8
0
 10
69.425
 20
91
 11
67.469
 21
91
  0
LINE
  8
0
 10
68.774
 20
95.279
 11
67.674
 21
95.279
  0
LINE
  8
0
 10
67.674
 20
95.279
 11
67.3627
 21
95.2603
  0
LINE
  8
0
 10
67.3627
 20
95.2603
 11
67.1047
 21
95.2043
  0
LINE
  8
0
 10
67.1047
 20
95.2043
 11
66.9
 21
95.111
  0
LINE
  8
0
 10
66.9
 20
95.111
 11
66.7511
 21
94.9743
  0
LINE
  8
0
 10
66.7511
 20
94.9743
 11
66.6618
 21
94.7883
  0
LINE
  8
0
 10
66.6618
 20
94.7883
 11
66.632
 21
94.553
  0
LINE
  8
0
 10
66.632
 20
94.553
 11
66.6608
 21
94.305
  0
LINE
  8
0
 10
66.6608
 20
94.305
 11
66.7471
 21
94.1037
  0
LINE
  8
0
 10
66.7471
 20
94.1037
 11
66.891
 21
93.949
  0
LINE
  8
0
 10
66.891
 20
93.949
 11
67.0931
 21
93.8396
  0
LINE
  8
0
 10
67.0931
 20
93.8396
 11
67.3541
 21
93.7739
  0
LINE
  8
0
 10
67.3541
 20
93.7739
 11
67.674
 21
93.752
  0
LINE
  8
0
 10
67.674
 20
93.752
 11
68.774
 21
93.752
  0
LINE
  8
0
 10
68.774
 20
93.752
 11
68.774
 21
95.279
  0
LINE
  8
0
 10
68.774
 20
93.244
 11
67.554
 21
93.244
  0
LINE
  8
0
 10
67.554
 20
93.244
 11
66.8873
 21
93.1501
  0
LINE
  8
0
 10
66.8873
 20
93.1501
 11
66.4873
 21
92.8684
  0
LINE
  8
0
 10
66.4873
 20
92.8684
 11
66.354
 21
92.399
  0
LINE
  8
0
 10
66.354
 20
92.399
 11
66.3844
 21
92.1317
  0
LINE
  8
0
 10
66.3844
 20
92.1317
 11
66.4758
 21
91.9123
  0
LINE
  8
0
 10
66.4758
 20
91.9123
 11
66.628
 21
91.741
  0
LINE
  8
0
 10
66.628
 20
91.741
 11
66.8469
 21
91.6188
  0
LINE
  8
0
 10
66.8469
 20
91.6188
 11
67.1382
 21
91.5454
  0
LINE
  8
0
 10
67.1382
 20
91.5454
 11
67.502
 21
91.521
  0
LINE
  8
0
 10
67.502
 20
91.521
 11
68.774
 21
91.521
  0
LINE
  8
0
 10
68.774
 20
91.521
 11
68.774
 21
93.244
  0
LINE
  8
0
 10
53.5311
 20
91
 11
53.5311
 21
95.269
  0
LINE
  8
0
 10
53.5311
 20
95.269
 11
51.8691
 21
95.269
  0
LINE
  8
0
 10
51.8691
 20
95.269
 11
51.8691
 21
95.8
  0
LINE
  8
0
 10
51.8691
 20
95.8
 11
55.8381
 21
95.8
  0
LINE
  8
0
 10
55.8381
 20
95.8
 11
55.8381
 21
95.269
  0
LINE
  8
0
 10
55.8381
 20
95.269
 11
54.1791
 21
95.269
  0
LINE
  8
0
 10
54.1791
 20
95.269
 11
54.1791
 21
91
  0
LINE
  8
0
 10
54.1791
 20
91
 11
53.5311
 21
91
  0
LINE
  8
0
 10
103.857
 20
4.89999
 11
115.286
 21
4.89999
  0
LINE
  8
0
 10
115.286
 20
4.89999
 11
115.286
 21
0
  0
LINE
  8
0
 10
115.286
 20
0
 11
126.714
 21
0
  0
LINE
  8
0
 10
126.714
 20
0
 11
126.714
 21
4.89999
  0
LINE
  8
0
 10
126.714
 20
4.89999
 11
138.143
 21
4.89999
  0
LINE
  8
0
 10
138.143
 20
4.89999
 11
138.143
 21
0
  0
LINE
  8
0
 10
138.143
 20
0
 11
149.571
 21
0
  0
LINE
  8
0
 10
149.571
 20
0
 11
149.571
 21
4.89999
  0
LINE
  8
0
 10
149.571
 20
4.89999
 11
161
 21
4.89999
  0
LINE
  8
0
 10
161
 20
4.89999
 11
161
 21
11.6536
  0
LINE
  8
0
 10
161
 20
11.6536
 11
156
 21
11.6536
  0
LINE
  8
0
 10
156
 20
11.6536
 11
156
 21
22.6321
  0
LINE
  8
0
 10
156
 20
22.6321
 11
161
 21
22.6321
  0
LINE
  8
0
 10
161
 20
22.6321
 11
161
 21
34.5107
  0
LINE
  8
0
 10
161
 20
34.5107
 11
156
 21
34.5107
  0
LINE
  8
0
 10
156
 20
34.5107
 11
156
 21
45.4893
  0
LINE
  8
0
 10
156
 20
45.4893
 11
161
 21
45.4893
  0
LINE
  8
0
 10
161
 20
45.4893
 11
161
 21
57.3678
  0
LINE
  8
0
 10
161
 20
57.3678
 11
156
 21
57.3678
  0
LINE
  8
0
 10
156
 20
57.3678
 11
156
 21
68.3464
  0
LINE
  8
0
 10
156
 20
68.3464
 11
161
 21
68.3464
  0
LINE
  8
0
 10
161
 20
68.3464
 11
161
 21
75.1
  0
LINE
  8
0
 10
161
 20
75.1
 11
149.571
 21
75.1
  0
LINE
  8
0
 10
149.571
 20
75.1
 11
149.571
 21
80
  0
LINE
  8
0
 10
149.571
 20
80
 11
138.143
 21
80
  0
LINE
  8
0
 10
138.143
 20
80
 11
138.143
 21
75.1
  0
LINE
  8
0
 10
138.143
 20
75.1
 11
126.714
 21
75.1
  0
LINE
  8
0
 10
126.714
 20
75.1
 11
126.714
 21
80
  0
LINE
  8
0
 10
126.714
 20
80
 11
115.286
 21
80
  0
LINE
  8
0
 10
115.286
 20
80
 11
115.286
 21
75.1
  0
LINE
  8
0
 10
115.286
 20
75.1
 11
103.857
 21
75.1
  0
LINE
  8
0
 10
103.857
 20
75.1
 11
103.857
 21
80
  0
LINE
  8
0
 10
103.857
 20
80
 11
92.4286
 21
80
  0
LINE
  8
0
 10
92.4286
 20
80
 11
92.4286
 21
75.1
  0
LINE
  8
0
 10
92.4286
 20
75.1
 11
81
 21
75.1
  0
LINE
  8
0
 10
81
 20
75.1
 11
81
 21
4.89999
  0
LINE
  8
0
 10
81
 20
4.89999
 11
92.4286
 21
4.89999
  0
LINE
  8
0
 10
92.4286
 20
4.89999
 11
92.4286
 21
0
  0
LINE
  8
0
 10
92.4286
 20
0
 11
103.857
 21
0
  0
LINE
  8
0
 10
103.857
 20
0
 11
103.857
 21
4.89999
  0
LINE
  8
0
 10
81.1
 20
57.3678
 11
81.1
 21
68.3464
  0
LINE
  8
0
 10
81.1
 20
68.3464
 11
86.1
 21
68.3464
  0
LINE
  8
0
 10
86.1
 20
68.3464
 11
86.1
 21
57.3678
  0
LINE
  8
0
 10
86.1
 20
57.3678
 11
81.1
 21
57.3678
  0
LINE
  8
0
 10
81.1
 20
34.5107
 11
81.1
 21
45.4893
  0
LINE
  8
0
 10
81.1
 20
45.4893
 11
86.1
 21
45.4893
  0
LINE
  8
0
 10
86.1
 20
45.4893
 11
86.1
 21
34.5107
  0
LINE
  8
0
 10
86.1
 20
34.5107
 11
81.1
 21
34.5107
  0
LINE
  8
0
 10
81.1
 20
11.6536
 11
81.1
 21
22.6321
  0
LINE
  8
0
 10
81.1
 20
22.6321
 11
86.1
 21
22.6321
  0
LINE
  8
0
 10
86.1
 20
22.6321
 11
86.1
 21
11.6536
  0
LINE
  8
0
 10
86.1
 20
11.6536
 11
81.1
 21
11.6536
  0
LINE
  8
0
 10
140.988
 20
9.9599
 11
140.587
 21
10.0316
  0
LINE
  8
0
 10
140.587
 20
10.0316
 11
140.207
 21
10.151
  0
LINE
  8
0
 10
140.207
 20
10.151
 11
139.856
 21
10.3141
  0
LINE
  8
0
 10
139.856
 20
10.3141
 11
139.543
 21
10.5168
  0
LINE
  8
0
 10
139.543
 20
10.5168
 11
139.27
 21
10.759
  0
LINE
  8
0
 10
139.27
 20
10.759
 11
139.27
 21
12.432
  0
LINE
  8
0
 10
139.27
 20
12.432
 11
141.309
 21
12.432
  0
LINE
  8
0
 10
141.309
 20
12.432
 11
141.309
 21
11.887
  0
LINE
  8
0
 10
141.309
 20
11.887
 11
139.869
 21
11.887
  0
LINE
  8
0
 10
139.869
 20
11.887
 11
139.869
 21
11.005
  0
LINE
  8
0
 10
139.869
 20
11.005
 11
140.055
 21
10.8504
  0
LINE
  8
0
 10
140.055
 20
10.8504
 11
140.275
 21
10.7188
  0
LINE
  8
0
 10
140.275
 20
10.7188
 11
140.531
 21
10.61
  0
LINE
  8
0
 10
140.531
 20
10.61
 11
140.81
 21
10.5289
  0
LINE
  8
0
 10
140.81
 20
10.5289
 11
141.103
 21
10.4802
  0
LINE
  8
0
 10
141.103
 20
10.4802
 11
141.411
 21
10.464
  0
LINE
  8
0
 10
141.411
 20
10.464
 11
141.922
 21
10.5223
  0
LINE
  8
0
 10
141.922
 20
10.5223
 11
142.354
 21
10.6973
  0
LINE
  8
0
 10
142.354
 20
10.6973
 11
142.707
 21
10.989
  0
LINE
  8
0
 10
142.707
 20
10.989
 11
142.967
 21
11.3814
  0
LINE
  8
0
 10
142.967
 20
11.3814
 11
143.123
 21
11.8588
  0
LINE
  8
0
 10
143.123
 20
11.8588
 11
143.175
 21
12.421
  0
LINE
  8
0
 10
143.175
 20
12.421
 11
143.126
 21
12.9822
  0
LINE
  8
0
 10
143.126
 20
12.9822
 11
142.979
 21
13.4525
  0
LINE
  8
0
 10
142.979
 20
13.4525
 11
142.734
 21
13.832
  0
LINE
  8
0
 10
142.734
 20
13.832
 11
142.396
 21
14.1103
  0
LINE
  8
0
 10
142.396
 20
14.1103
 11
141.971
 21
14.2773
  0
LINE
  8
0
 10
141.971
 20
14.2773
 11
141.459
 21
14.333
  0
LINE
  8
0
 10
141.459
 20
14.333
 11
141.12
 21
14.3113
  0
LINE
  8
0
 10
141.12
 20
14.3113
 11
140.821
 21
14.2463
  0
LINE
  8
0
 10
140.821
 20
14.2463
 11
140.562
 21
14.138
  0
LINE
  8
0
 10
140.562
 20
14.138
 11
140.338
 21
13.9831
  0
LINE
  8
0
 10
140.338
 20
13.9831
 11
140.15
 21
13.7771
  0
LINE
  8
0
 10
140.15
 20
13.7771
 11
139.996
 21
13.52
  0
LINE
  8
0
 10
139.996
 20
13.52
 11
139.376
 21
13.708
  0
LINE
  8
0
 10
139.376
 20
13.708
 11
139.581
 21
14.0752
  0
LINE
  8
0
 10
139.581
 20
14.0752
 11
139.837
 21
14.3689
  0
LINE
  8
0
 10
139.837
 20
14.3689
 11
140.145
 21
14.589
  0
LINE
  8
0
 10
140.145
 20
14.589
 11
140.51
 21
14.7418
  0
LINE
  8
0
 10
140.51
 20
14.7418
 11
140.942
 21
14.8334
  0
LINE
  8
0
 10
140.942
 20
14.8334
 11
141.442
 21
14.864
  0
LINE
  8
0
 10
141.442
 20
14.864
 11
142.143
 21
14.793
  0
LINE
  8
0
 10
142.143
 20
14.793
 11
142.732
 21
14.58
  0
LINE
  8
0
 10
142.732
 20
14.58
 11
143.208
 21
14.225
  0
LINE
  8
0
 10
143.208
 20
14.225
 11
143.556
 21
13.7404
  0
LINE
  8
0
 10
143.556
 20
13.7404
 11
143.766
 21
13.1388
  0
LINE
  8
0
 10
143.766
 20
13.1388
 11
143.836
 21
12.42
  0
LINE
  8
0
 10
143.836
 20
12.42
 11
143.804
 21
11.9347
  0
LINE
  8
0
 10
143.804
 20
11.9347
 11
143.708
 21
11.4933
  0
LINE
  8
0
 10
143.708
 20
11.4933
 11
143.548
 21
11.096
  0
LINE
  8
0
 10
143.548
 20
11.096
 11
143.326
 21
10.7505
  0
LINE
  8
0
 10
143.326
 20
10.7505
 11
143.048
 21
10.4635
  0
LINE
  8
0
 10
143.048
 20
10.4635
 11
142.713
 21
10.235
  0
LINE
  8
0
 10
142.713
 20
10.235
 11
142.325
 21
10.0689
  0
LINE
  8
0
 10
142.325
 20
10.0689
 11
141.891
 21
9.96922
  0
LINE
  8
0
 10
141.891
 20
9.96922
 11
141.411
 21
9.936
  0
LINE
  8
0
 10
141.411
 20
9.936
 11
140.988
 21
9.9599
  0
LINE
  8
0
 10
131.504
 20
10
 11
131.504
 21
14.269
  0
LINE
  8
0
 10
131.504
 20
14.269
 11
129.842
 21
14.269
  0
LINE
  8
0
 10
129.842
 20
14.269
 11
129.842
 21
14.8
  0
LINE
  8
0
 10
129.842
 20
14.8
 11
133.811
 21
14.8
  0
LINE
  8
0
 10
133.811
 20
14.8
 11
133.811
 21
14.269
  0
LINE
  8
0
 10
133.811
 20
14.269
 11
132.152
 21
14.269
  0
LINE
  8
0
 10
132.152
 20
14.269
 11
132.152
 21
10
  0
LINE
  8
0
 10
132.152
 20
10
 11
131.504
 21
10
  0
LINE
  8
0
 10
134.404
 20
10
 11
134.404
 21
14.8
  0
LINE
  8
0
 10
134.404
 20
14.8
 11
135.055
 21
14.8
  0
LINE
  8
0
 10
135.055
 20
14.8
 11
135.055
 21
12.752
  0
LINE
  8
0
 10
135.055
 20
12.752
 11
137.664
 21
12.752
  0
LINE
  8
0
 10
137.664
 20
12.752
 11
137.664
 21
14.8
  0
LINE
  8
0
 10
137.664
 20
14.8
 11
138.315
 21
14.8
  0
LINE
  8
0
 10
138.315
 20
14.8
 11
138.315
 21
10
  0
LINE
  8
0
 10
138.315
 20
10
 11
137.664
 21
10
  0
LINE
  8
0
 10
137.664
 20
10
 11
137.664
 21
12.207
  0
LINE
  8
0
 10
137.664
 20
12.207
 11
135.055
 21
12.207
  0
LINE
  8
0
 10
135.055
 20
12.207
 11
135.055
 21
10
  0
LINE
  8
0
 10
135.055
 20
10
 11
134.404
 21
10
  0
LINE
  8
0
 10
144.792
 20
10
 11
144.792
 21
14.8
  0
LINE
  8
0
 10
144.792
 20
14.8
 11
145.442
 21
14.8
  0
LINE
  8
0
 10
145.442
 20
14.8
 11
145.442
 21
10
  0
LINE
  8
0
 10
145.442
 20
10
 11
144.792
 21
10
  0
LINE
  8
0
 10
146.269
 20
10
 11
147.637
 21
12.057
  0
LINE
  8
0
 10
147.637
 20
12.057
 11
147.296
 21
12.151
  0
LINE
  8
0
 10
147.296
 20
12.151
 11
147.008
 21
12.305
  0
LINE
  8
0
 10
147.008
 20
12.305
 11
146.773
 21
12.519
  0
LINE
  8
0
 10
146.773
 20
12.519
 11
146.599
 21
12.782
  0
LINE
  8
0
 10
146.599
 20
12.782
 11
146.495
 21
13.083
  0
LINE
  8
0
 10
146.495
 20
13.083
 11
146.46
 21
13.422
  0
LINE
  8
0
 10
146.46
 20
13.422
 11
146.509
 21
13.823
  0
LINE
  8
0
 10
146.509
 20
13.823
 11
146.657
 21
14.1607
  0
LINE
  8
0
 10
146.657
 20
14.1607
 11
146.903
 21
14.435
  0
LINE
  8
0
 10
146.903
 20
14.435
 11
147.239
 21
14.6378
  0
LINE
  8
0
 10
147.239
 20
14.6378
 11
147.658
 21
14.7594
  0
LINE
  8
0
 10
147.658
 20
14.7594
 11
148.159
 21
14.8
  0
LINE
  8
0
 10
148.159
 20
14.8
 11
150.426
 21
14.8
  0
LINE
  8
0
 10
150.426
 20
14.8
 11
150.426
 21
10
  0
LINE
  8
0
 10
150.426
 20
10
 11
149.775
 21
10
  0
LINE
  8
0
 10
149.775
 20
10
 11
149.775
 21
11.982
  0
LINE
  8
0
 10
149.775
 20
11.982
 11
148.271
 21
11.982
  0
LINE
  8
0
 10
148.271
 20
11.982
 11
147.018
 21
10
  0
LINE
  8
0
 10
147.018
 20
10
 11
146.269
 21
10
  0
LINE
  8
0
 10
149.775
 20
14.279
 11
148.224
 21
14.279
  0
LINE
  8
0
 10
148.224
 20
14.279
 11
147.893
 21
14.2544
  0
LINE
  8
0
 10
147.893
 20
14.2544
 11
147.619
 21
14.1808
  0
LINE
  8
0
 10
147.619
 20
14.1808
 11
147.4
 21
14.058
  0
LINE
  8
0
 10
147.4
 20
14.058
 11
147.241
 21
13.8883
  0
LINE
  8
0
 10
147.241
 20
13.8883
 11
147.146
 21
13.674
  0
LINE
  8
0
 10
147.146
 20
13.674
 11
147.114
 21
13.415
  0
LINE
  8
0
 10
147.114
 20
13.415
 11
147.145
 21
13.1459
  0
LINE
  8
0
 10
147.145
 20
13.1459
 11
147.24
 21
12.9199
  0
LINE
  8
0
 10
147.24
 20
12.9199
 11
147.397
 21
12.737
  0
LINE
  8
0
 10
147.397
 20
12.737
 11
147.611
 21
12.6031
  0
LINE
  8
0
 10
147.611
 20
12.6031
 11
147.877
 21
12.5228
  0
LINE
  8
0
 10
147.877
 20
12.5228
 11
148.196
 21
12.496
  0
LINE
  8
0
 10
148.196
 20
12.496
 11
149.775
 21
12.496
  0
LINE
  8
0
 10
149.775
 20
12.496
 11
149.775
 21
14.279
  0
LINE
  8
0
 10
11.2036
 20
4.89999
 11
23.0821
 21
4.89999
  0
LINE
  8
0
 10
23.0821
 20
4.89999
 11
23.0821
 21
0
  0
LINE
  8
0
 10
23.0821
 20
0
 11
34.0607
 21
0
  0
LINE
  8
0
 10
34.0607
 20
0
 11
34.0607
 21
4.89999
  0
LINE
  8
0
 10
34.0607
 20
4.89999
 11
45.9393
 21
4.89999
  0
LINE
  8
0
 10
45.9393
 20
4.89999
 11
45.9393
 21
0
  0
LINE
  8
0
 10
45.9393
 20
0
 11
56.9178
 21
0
  0
LINE
  8
0
 10
56.9178
 20
0
 11
56.9178
 21
4.89999
  0
LINE
  8
0
 10
56.9178
 20
4.89999
 11
68.7964
 21
4.89999
  0
LINE
  8
0
 10
68.7964
 20
4.89999
 11
68.7964
 21
0
  0
LINE
  8
0
 10
68.7964
 20
0
 11
80
 21
0
  0
LINE
  8
0
 10
80
 20
0
 11
80
 21
11.2036
  0
LINE
  8
0
 10
80
 20
11.2036
 11
75
 21
11.2036
  0
LINE
  8
0
 10
75
 20
11.2036
 11
75
 21
23.0821
  0
LINE
  8
0
 10
75
 20
23.0821
 11
80
 21
23.0821
  0
LINE
  8
0
 10
80
 20
23.0821
 11
80
 21
34.0607
  0
LINE
  8
0
 10
80
 20
34.0607
 11
75
 21
34.0607
  0
LINE
  8
0
 10
75
 20
34.0607
 11
75
 21
45.9393
  0
LINE
  8
0
 10
75
 20
45.9393
 11
80
 21
45.9393
  0
LINE
  8
0
 10
80
 20
45.9393
 11
80
 21
56.9178
  0
LINE
  8
0
 10
80
 20
56.9178
 11
75
 21
56.9178
  0
LINE
  8
0
 10
75
 20
56.9178
 11
75
 21
68.7964
  0
LINE
  8
0
 10
75
 20
68.7964
 11
80
 21
68.7964
  0
LINE
  8
0
 10
80
 20
68.7964
 11
80
 21
80
  0
LINE
  8
0
 10
80
 20
80
 11
68.7964
 21
80
  0
LINE
  8
0
 10
68.7964
 20
80
 11
68.7964
 21
75.1
  0
LINE
  8
0
 10
68.7964
 20
75.1
 11
56.9178
 21
75.1
  0
LINE
  8
0
 10
56.9178
 20
75.1
 11
56.9178
 21
80
  0
LINE
  8
0
 10
56.9178
 20
80
 11
45.9393
 21
80
  0
LINE
  8
0
 10
45.9393
 20
80
 11
45.9393
 21
75.1
  0
LINE
  8
0
 10
45.9393
 20
75.1
 11
34.0607
 21
75.1
  0
LINE
  8
0
 10
34.0607
 20
75.1
 11
34.0607
 21
80
  0
LINE
  8
0
 10
34.0607
 20
80
 11
23.0821
 21
80
  0
LINE
  8
0
 10
23.0821
 20
80
 11
23.0821
 21
75.1
  0
LINE
  8
0
 10
23.0821
 20
75.1
 11
11.2036
 21
75.1
  0
LINE
  8
0
 10
11.2036
 20
75.1
 11
11.2036
 21
80
  0
LINE
  8
0
 10
11.2036
 20
80
 11
0
 21
80
  0
LINE
  8
0
 10
0
 20
80
 11
0
 21
0
  0
LINE
  8
0
 10
0
 20
0
 11
11.2036
 21
0
  0
LINE
  8
0
 10
11.2036
 20
0
 11
11.2036
 21
4.89999
  0
LINE
  8
0
 10
0.0999908
 20
56.9178
 11
0.0999908
 21
68.7964
  0
LINE
  8
0
 10
0.0999908
 20
68.7964
 11
5.09999
 21
68.7964
  0
LINE
  8
0
 10
5.09999
 20
68.7964
 11
5.09999
 21
56.9178
  0
LINE
  8
0
 10
5.09999
 20
56.9178
 11
0.0999908
 21
56.9178
  0
LINE
  8
0
 10
38.5366
 20
26.0767
 11
35.6738
 21
26.6852
  0
LINE
  8
0
 10
35.6738
 20
26.6852
 11
33
 21
27.8756
  0
LINE
  8
0
 10
33
 20
27.8756
 11
30.6322
 21
29.596
  0
LINE
  8
0
 10
30.6322
 20
29.596
 11
28.6738
 21
31.771
  0
LINE
  8
0
 10
28.6738
 20
31.771
 11
27.2104
 21
34.3057
  0
LINE
  8
0
 10
27.2104
 20
34.3057
 11
26.3059
 21
37.0892
  0
LINE
  8
0
 10
26.3059
 20
37.0892
 11
26
 21
40
  0
LINE
  8
0
 10
26
 20
40
 11
26.3059
 21
42.9108
  0
LINE
  8
0
 10
26.3059
 20
42.9108
 11
27.2104
 21
45.6943
  0
LINE
  8
0
 10
27.2104
 20
45.6943
 11
28.6738
 21
48.229
  0
LINE
  8
0
 10
28.6738
 20
48.229
 11
30.6322
 21
50.404
  0
LINE
  8
0
 10
30.6322
 20
50.404
 11
33
 21
52.1243
  0
LINE
  8
0
 10
33
 20
52.1243
 11
35.6738
 21
53.3148
  0
LINE
  8
0
 10
35.6738
 20
53.3148
 11
38.5366
 21
53.9233
  0
LINE
  8
0
 10
38.5366
 20
53.9233
 11
41.4634
 21
53.9233
  0
LINE
  8
0
 10
41.4634
 20
53.9233
 11
44.3262
 21
53.3148
  0
LINE
  8
0
 10
44.3262
 20
53.3148
 11
47
 21
52.1243
  0
LINE
  8
0
 10
47
 20
52.1243
 11
49.3678
 21
50.404
  0
LINE
  8
0
 10
49.3678
 20
50.404
 11
51.3262
 21
48.229
  0
LINE
  8
0
 10
51.3262
 20
48.229
 11
52.7896
 21
45.6943
  0
LINE
  8
0
 10
52.7896
 20
45.6943
 11
53.6941
 21
42.9108
  0
LINE
  8
0
 10
53.6941
 20
42.9108
 11
54
 21
40
  0
LINE
  8
0
 10
54
 20
40
 11
53.6941
 21
37.0892
  0
LINE
  8
0
 10
53.6941
 20
37.0892
 11
52.7896
 21
34.3057
  0
LINE
  8
0
 10
52.7896
 20
34.3057
 11
51.3262
 21
31.771
  0
LINE
  8
0
 10
51.3262
 20
31.771
 11
49.3678
 21
29.596
  0
LINE
  8
0
 10
49.3678
 20
29.596
 11
47
 21
27.8756
  0
LINE
  8
0
 10
47
 20
27.8756
 11
44.3262
 21
26.6852
  0
LINE
  8
0
 10
44.3262
 20
26.6852
 11
41.4634
 21
26.0767
  0
LINE
  8
0
 10
41.4634
 20
26.0767
 11
38.5366
 21
26.0767
  0
LINE
  8
0
 10
0.0999908
 20
34.0607
 11
0.0999908
 21
45.9393
  0
LINE
  8
0
 10
0.0999908
 20
45.9393
 11
5.09999
 21
45.9393
  0
LINE
  8
0
 10
5.09999
 20
45.9393
 11
5.09999
 21
34.0607
  0
LINE
  8
0
 10
5.09999
 20
34.0607
 11
0.0999908
 21
34.0607
  0
LINE
  8
0
 10
0.0999908
 20
11.2036
 11
0.0999908
 21
23.0821
  0
LINE
  8
0
 10
0.0999908
 20
23.0821
 11
5.09999
 21
23.0821
  0
LINE
  8
0
 10
5.09999
 20
23.0821
 11
5.09999
 21
11.2036
  0
LINE
  8
0
 10
5.09999
 20
11.2036
 11
0.0999908
 21
11.2036
  0
LINE
  8
0
 10
62.7793
 20
9.96956
 11
62.3549
 21
10.0702
  0
LINE
  8
0
 10
62.3549
 20
10.0702
 11
61.9739
 21
10.238
  0
LINE
  8
0
 10
61.9739
 20
10.238
 11
61.6419
 21
10.469
  0
LINE
  8
0
 10
61.6419
 20
10.469
 11
61.3659
 21
10.758
  0
LINE
  8
0
 10
61.3659
 20
10.758
 11
61.1459
 21
11.105
  0
LINE
  8
0
 10
61.1459
 20
11.105
 11
60.9854
 21
11.5018
  0
LINE
  8
0
 10
60.9854
 20
11.5018
 11
60.889
 21
11.9401
  0
LINE
  8
0
 10
60.889
 20
11.9401
 11
60.8569
 21
12.42
  0
LINE
  8
0
 10
60.8569
 20
12.42
 11
60.8886
 21
12.901
  0
LINE
  8
0
 10
60.8886
 20
12.901
 11
60.9836
 21
13.3373
  0
LINE
  8
0
 10
60.9836
 20
13.3373
 11
61.1419
 21
13.729
  0
LINE
  8
0
 10
61.1419
 20
13.729
 11
61.3603
 21
14.069
  0
LINE
  8
0
 10
61.3603
 20
14.069
 11
61.6353
 21
14.3503
  0
LINE
  8
0
 10
61.6353
 20
14.3503
 11
61.9669
 21
14.573
  0
LINE
  8
0
 10
61.9669
 20
14.573
 11
62.348
 21
14.7347
  0
LINE
  8
0
 10
62.348
 20
14.7347
 11
62.7727
 21
14.8317
  0
LINE
  8
0
 10
62.7727
 20
14.8317
 11
63.2409
 21
14.864
  0
LINE
  8
0
 10
63.2409
 20
14.864
 11
63.9367
 21
14.792
  0
LINE
  8
0
 10
63.9367
 20
14.792
 11
64.5227
 21
14.576
  0
LINE
  8
0
 10
64.5227
 20
14.576
 11
64.9989
 21
14.216
  0
LINE
  8
0
 10
64.9989
 20
14.216
 11
65.35
 21
13.7289
  0
LINE
  8
0
 10
65.35
 20
13.7289
 11
65.5607
 21
13.1302
  0
LINE
  8
0
 10
65.5607
 20
13.1302
 11
65.6309
 21
12.42
  0
LINE
  8
0
 10
65.6309
 20
12.42
 11
65.5995
 21
11.9382
  0
LINE
  8
0
 10
65.5995
 20
11.9382
 11
65.5051
 21
11.4982
  0
LINE
  8
0
 10
65.5051
 20
11.4982
 11
65.3479
 21
11.1
  0
LINE
  8
0
 10
65.3479
 20
11.1
 11
65.1304
 21
10.7523
  0
LINE
  8
0
 10
65.1304
 20
10.7523
 11
64.8564
 21
10.464
  0
LINE
  8
0
 10
64.8564
 20
10.464
 11
64.5259
 21
10.235
  0
LINE
  8
0
 10
64.5259
 20
10.235
 11
64.1447
 21
10.0689
  0
LINE
  8
0
 10
64.1447
 20
10.0689
 11
63.7184
 21
9.96922
  0
LINE
  8
0
 10
63.7184
 20
9.96922
 11
63.2469
 21
9.936
  0
LINE
  8
0
 10
63.2469
 20
9.936
 11
62.7793
 21
9.96956
  0
LINE
  8
0
 10
63.7477
 20
10.5227
 11
64.17
 21
10.6987
  0
LINE
  8
0
 10
64.17
 20
10.6987
 11
64.5139
 21
10.992
  0
LINE
  8
0
 10
64.5139
 20
10.992
 11
64.7673
 21
11.3854
  0
LINE
  8
0
 10
64.7673
 20
11.3854
 11
64.9193
 21
11.8618
  0
LINE
  8
0
 10
64.9193
 20
11.8618
 11
64.9699
 21
12.421
  0
LINE
  8
0
 10
64.9699
 20
12.421
 11
64.9198
 21
12.9807
  0
LINE
  8
0
 10
64.9198
 20
12.9807
 11
64.7695
 21
13.4503
  0
LINE
  8
0
 10
64.7695
 20
13.4503
 11
64.5189
 21
13.83
  0
LINE
  8
0
 10
64.5189
 20
13.83
 11
64.1764
 21
14.1094
  0
LINE
  8
0
 10
64.1764
 20
14.1094
 11
63.75
 21
14.2771
  0
LINE
  8
0
 10
63.75
 20
14.2771
 11
63.2399
 21
14.333
  0
LINE
  8
0
 10
63.2399
 20
14.333
 11
62.7345
 21
14.2763
  0
LINE
  8
0
 10
62.7345
 20
14.2763
 11
62.3115
 21
14.1063
  0
LINE
  8
0
 10
62.3115
 20
14.1063
 11
61.9709
 21
13.823
  0
LINE
  8
0
 10
61.9709
 20
13.823
 11
61.7209
 21
13.441
  0
LINE
  8
0
 10
61.7209
 20
13.441
 11
61.5709
 21
12.9737
  0
LINE
  8
0
 10
61.5709
 20
12.9737
 11
61.5209
 21
12.421
  0
LINE
  8
0
 10
61.5209
 20
12.421
 11
61.5705
 21
11.8448
  0
LINE
  8
0
 10
61.5705
 20
11.8448
 11
61.7191
 21
11.3628
  0
LINE
  8
0
 10
61.7191
 20
11.3628
 11
61.9669
 21
10.975
  0
LINE
  8
0
 10
61.9669
 20
10.975
 11
62.3074
 21
10.6911
  0
LINE
  8
0
 10
62.3074
 20
10.6911
 11
62.734
 21
10.5208
  0
LINE
  8
0
 10
62.734
 20
10.5208
 11
63.2469
 21
10.464
  0
LINE
  8
0
 10
63.2469
 20
10.464
 11
63.7477
 21
10.5227
  0
LINE
  8
0
 10
59.4371
 20
10
 11
59.4371
 21
11.854
  0
LINE
  8
0
 10
59.4371
 20
11.854
 11
58.0201
 21
11.854
  0
LINE
  8
0
 10
58.0201
 20
11.854
 11
57.5444
 21
11.8989
  0
LINE
  8
0
 10
57.5444
 20
11.8989
 11
57.1401
 21
12.0336
  0
LINE
  8
0
 10
57.1401
 20
12.0336
 11
56.8071
 21
12.258
  0
LINE
  8
0
 10
56.8071
 20
12.258
 11
56.5588
 21
12.5587
  0
LINE
  8
0
 10
56.5588
 20
12.5587
 11
56.4098
 21
12.922
  0
LINE
  8
0
 10
56.4098
 20
12.922
 11
56.3601
 21
13.348
  0
LINE
  8
0
 10
56.3601
 20
13.348
 11
56.4095
 21
13.7747
  0
LINE
  8
0
 10
56.4095
 20
13.7747
 11
56.5579
 21
14.132
  0
LINE
  8
0
 10
56.5579
 20
14.132
 11
56.8051
 21
14.42
  0
LINE
  8
0
 10
56.8051
 20
14.42
 11
57.1419
 21
14.6311
  0
LINE
  8
0
 10
57.1419
 20
14.6311
 11
57.5602
 21
14.7578
  0
LINE
  8
0
 10
57.5602
 20
14.7578
 11
58.0601
 21
14.8
  0
LINE
  8
0
 10
58.0601
 20
14.8
 11
60.0881
 21
14.8
  0
LINE
  8
0
 10
60.0881
 20
14.8
 11
60.0881
 21
10
  0
LINE
  8
0
 10
60.0881
 20
10
 11
59.4371
 21
10
  0
LINE
  8
0
 10
59.4371
 20
14.279
 11
58.1381
 21
14.279
  0
LINE
  8
0
 10
58.1381
 20
14.279
 11
57.5137
 21
14.1748
  0
LINE
  8
0
 10
57.5137
 20
14.1748
 11
57.139
 21
13.8621
  0
LINE
  8
0
 10
57.139
 20
13.8621
 11
57.0141
 21
13.341
  0
LINE
  8
0
 10
57.0141
 20
13.341
 11
57.136
 21
12.8004
  0
LINE
  8
0
 10
57.136
 20
12.8004
 11
57.5016
 21
12.4761
  0
LINE
  8
0
 10
57.5016
 20
12.4761
 11
58.1111
 21
12.368
  0
LINE
  8
0
 10
58.1111
 20
12.368
 11
59.4371
 21
12.368
  0
LINE
  8
0
 10
59.4371
 20
12.368
 11
59.4371
 21
14.279
  0
LINE
  8
0
 10
67.535
 20
10
 11
67.535
 21
14.269
  0
LINE
  8
0
 10
67.535
 20
14.269
 11
65.873
 21
14.269
  0
LINE
  8
0
 10
65.873
 20
14.269
 11
65.873
 21
14.8
  0
LINE
  8
0
 10
65.873
 20
14.8
 11
69.842
 21
14.8
  0
LINE
  8
0
 10
69.842
 20
14.8
 11
69.842
 21
14.269
  0
LINE
  8
0
 10
69.842
 20
14.269
 11
68.183
 21
14.269
  0
LINE
  8
0
 10
68.183
 20
14.269
 11
68.183
 21
10
  0
LINE
  8
0
 10
68.183
 20
10
 11
67.535
 21
10
  0
LINE
  8
0
 10
22.8571
 20
-75.1
 11
34.2857
 21
-75.1
  0
LINE
  8
0
 10
34.2857
 20
-75.1
 11
34.2857
 21
-80
  0
LINE
  8
0
 10
34.2857
 20
-80
 11
45.7143
 21
-80
  0
LINE
  8
0
 10
45.7143
 20
-80
 11
45.7143
 21
-75.1
  0
LINE
  8
0
 10
45.7143
 20
-75.1
 11
57.1429
 21
-75.1
  0
LINE
  8
0
 10
57.1429
 20
-75.1
 11
57.1429
 21
-80
  0
LINE
  8
0
 10
57.1429
 20
-80
 11
68.5714
 21
-80
  0
LINE
  8
0
 10
68.5714
 20
-80
 11
68.5714
 21
-75.1
  0
LINE
  8
0
 10
68.5714
 20
-75.1
 11
75
 21
-75.1
  0
LINE
  8
0
 10
75
 20
-75.1
 11
75
 21
-68.5714
  0
LINE
  8
0
 10
75
 20
-68.5714
 11
80
 21
-68.5714
  0
LINE
  8
0
 10
80
 20
-68.5714
 11
80
 21
-57.1429
  0
LINE
  8
0
 10
80
 20
-57.1429
 11
75
 21
-57.1429
  0
LINE
  8
0
 10
75
 20
-57.1429
 11
75
 21
-45.7143
  0
LINE
  8
0
 10
75
 20
-45.7143
 11
80
 21
-45.7143
  0
LINE
  8
0
 10
80
 20
-45.7143
 11
80
 21
-34.2857
  0
LINE
  8
0
 10
80
 20
-34.2857
 11
75
 21
-34.2857
  0
LINE
  8
0
 10
75
 20
-34.2857
 11
75
 21
-22.8571
  0
LINE
  8
0
 10
75
 20
-22.8571
 11
80
 21
-22.8571
  0
LINE
  8
0
 10
80
 20
-22.8571
 11
80
 21
-11.4286
  0
LINE
  8
0
 10
80
 20
-11.4286
 11
75
 21
-11.4286
  0
LINE
  8
0
 10
75
 20
-11.4286
 11
75
 21
-4.90001
  0
LINE
  8
0
 10
75
 20
-4.90001
 11
68.5714
 21
-4.90001
  0
LINE
  8
0
 10
68.5714
 20
-4.90001
 11
68.5714
 21
0
  0
LINE
  8
0
 10
68.5714
 20
0
 11
57.1429
 21
0
  0
LINE
  8
0
 10
57.1429
 20
0
 11
57.1429
 21
-4.90001
  0
LINE
  8
0
 10
57.1429
 20
-4.90001
 11
45.7143
 21
-4.90001
  0
LINE
  8
0
 10
45.7143
 20
-4.90001
 11
45.7143
 21
0
  0
LINE
  8
0
 10
45.7143
 20
0
 11
34.2857
 21
0
  0
LINE
  8
0
 10
34.2857
 20
0
 11
34.2857
 21
-4.90001
  0
LINE
  8
0
 10
34.2857
 20
-4.90001
 11
22.8571
 21
-4.90001
  0
LINE
  8
0
 10
22.8571
 20
-4.90001
 11
22.8571
 21
0
  0
LINE
  8
0
 10
22.8571
 20
0
 11
11.4286
 21
0
  0
LINE
  8
0
 10
11.4286
 20
0
 11
11.4286
 21
-4.90001
  0
LINE
  8
0
 10
11.4286
 20
-4.90001
 11
5.09999
 21
-4.90001
  0
LINE
  8
0
 10
5.09999
 20
-4.90001
 11
5.09999
 21
-11.4286
  0
LINE
  8
0
 10
5.09999
 20
-11.4286
 11
0.0999908
 21
-11.4286
  0
LINE
  8
0
 10
0.0999908
 20
-11.4286
 11
0.0999908
 21
-4.90001
  0
LINE
  8
0
 10
0.0999908
 20
-4.90001
 11
0
 21
-4.90001
  0
LINE
  8
0
 10
0
 20
-4.90001
 11
0
 21
-75.1
  0
LINE
  8
0
 10
0
 20
-75.1
 11
0.0999908
 21
-75.1
  0
LINE
  8
0
 10
0.0999908
 20
-75.1
 11
0.0999908
 21
-68.5714
  0
LINE
  8
0
 10
0.0999908
 20
-68.5714
 11
5.09999
 21
-68.5714
  0
LINE
  8
0
 10
5.09999
 20
-68.5714
 11
5.09999
 21
-75.1
  0
LINE
  8
0
 10
5.09999
 20
-75.1
 11
11.4286
 21
-75.1
  0
LINE
  8
0
 10
11.4286
 20
-75.1
 11
11.4286
 21
-80
  0
LINE
  8
0
 10
11.4286
 20
-80
 11
22.8571
 21
-80
  0
LINE
  8
0
 10
22.8571
 20
-80
 11
22.8571
 21
-75.1
  0
LINE
  8
0
 10
0.0999908
 20
-34.2857
 11
0.0999908
 21
-22.8571
  0
LINE
  8
0
 10
0.0999908
 20
-22.8571
 11
5.09999
 21
-22.8571
  0
LINE
  8
0
 10
5.09999
 20
-22.8571
 11
5.09999
 21
-34.2857
  0
LINE
  8
0
 10
5.09999
 20
-34.2857
 11
0.0999908
 21
-34.2857
  0
LINE
  8
0
 10
56.8432
 20
-53.3333
 11
56.8432
 21
-37.3333
  0
LINE
  8
0
 10
56.8432
 20
-37.3333
 11
52.1072
 21
-37.3333
  0
LINE
  8
0
 10
52.1072
 20
-37.3333
 11
52.1072
 21
-31.5733
  0
LINE
  8
0
 10
52.1072
 20
-31.5733
 11
68.7472
 21
-31.5733
  0
LINE
  8
0
 10
68.7472
 20
-31.5733
 11
68.7472
 21
-37.3333
  0
LINE
  8
0
 10
68.7472
 20
-37.3333
 11
64.0112
 21
-37.3333
  0
LINE
  8
0
 10
64.0112
 20
-37.3333
 11
64.0112
 21
-53.3333
  0
LINE
  8
0
 10
64.0112
 20
-53.3333
 11
56.8432
 21
-53.3333
  0
LINE
  8
0
 10
16.9966
 20
-53.3333
 11
16.9966
 21
-37.3333
  0
LINE
  8
0
 10
16.9966
 20
-37.3333
 11
12.2605
 21
-37.3333
  0
LINE
  8
0
 10
12.2605
 20
-37.3333
 11
12.2605
 21
-31.5733
  0
LINE
  8
0
 10
12.2605
 20
-31.5733
 11
28.9005
 21
-31.5733
  0
LINE
  8
0
 10
28.9005
 20
-31.5733
 11
28.9005
 21
-37.3333
  0
LINE
  8
0
 10
28.9005
 20
-37.3333
 11
24.1646
 21
-37.3333
  0
LINE
  8
0
 10
24.1646
 20
-37.3333
 11
24.1646
 21
-53.3333
  0
LINE
  8
0
 10
24.1646
 20
-53.3333
 11
16.9966
 21
-53.3333
  0
LINE
  8
0
 10
30.3549
 20
-53.3333
 11
30.3549
 21
-31.5733
  0
LINE
  8
0
 10
30.3549
 20
-31.5733
 11
37.4969
 21
-31.5733
  0
LINE
  8
0
 10
37.4969
 20
-31.5733
 11
37.4969
 21
-34.2614
  0
LINE
  8
0
 10
37.4969
 20
-34.2614
 11
40.0809
 21
-34.2614
  0
LINE
  8
0
 10
40.0809
 20
-34.2614
 11
40.0809
 21
-36.8214
  0
LINE
  8
0
 10
40.0809
 20
-36.8214
 11
42.8309
 21
-36.8214
  0
LINE
  8
0
 10
42.8309
 20
-36.8214
 11
42.8309
 21
-39.4454
  0
LINE
  8
0
 10
42.8309
 20
-39.4454
 11
43.8589
 21
-39.4454
  0
LINE
  8
0
 10
43.8589
 20
-39.4454
 11
43.8589
 21
-31.5733
  0
LINE
  8
0
 10
43.8589
 20
-31.5733
 11
50.5789
 21
-31.5733
  0
LINE
  8
0
 10
50.5789
 20
-31.5733
 11
50.5789
 21
-53.3333
  0
LINE
  8
0
 10
50.5789
 20
-53.3333
 11
43.8589
 21
-53.3333
  0
LINE
  8
0
 10
43.8589
 20
-53.3333
 11
43.8589
 21
-50.6454
  0
LINE
  8
0
 10
43.8589
 20
-50.6454
 11
41.1079
 21
-50.6454
  0
LINE
  8
0
 10
41.1079
 20
-50.6454
 11
41.1079
 21
-48.1494
  0
LINE
  8
0
 10
41.1079
 20
-48.1494
 11
38.3579
 21
-48.1494
  0
LINE
  8
0
 10
38.3579
 20
-48.1494
 11
38.3579
 21
-45.4613
  0
LINE
  8
0
 10
38.3579
 20
-45.4613
 11
37.3309
 21
-45.4613
  0
LINE
  8
0
 10
37.3309
 20
-45.4613
 11
37.3309
 21
-53.3333
  0
LINE
  8
0
 10
37.3309
 20
-53.3333
 11
30.3549
 21
-53.3333
  0
LINE
  8
0
 10
0.0999908
 20
-57.1429
 11
0.0999908
 21
-45.7143
  0
LINE
  8
0
 10
0.0999908
 20
-45.7143
 11
5.09999
 21
-45.7143
  0
LINE
  8
0
 10
5.09999
 20
-45.7143
 11
5.09999
 21
-57.1429
  0
LINE
  8
0
 10
5.09999
 20
-57.1429
 11
0.0999908
 21
-57.1429
  0
LINE
  8
0
 10
57.7363
 20
-70.0304
 11
57.312
 21
-69.9298
  0
LINE
  8
0
 10
57.312
 20
-69.9298
 11
56.931
 21
-69.762
  0
LINE
  8
0
 10
56.931
 20
-69.762
 11
56.599
 21
-69.531
  0
LINE
  8
0
 10
56.599
 20
-69.531
 11
56.323
 21
-69.242
  0
LINE
  8
0
 10
56.323
 20
-69.242
 11
56.103
 21
-68.895
  0
LINE
  8
0
 10
56.103
 20
-68.895
 11
55.9424
 21
-68.4982
  0
LINE
  8
0
 10
55.9424
 20
-68.4982
 11
55.8461
 21
-68.0599
  0
LINE
  8
0
 10
55.8461
 20
-68.0599
 11
55.8139
 21
-67.58
  0
LINE
  8
0
 10
55.8139
 20
-67.58
 11
55.8456
 21
-67.099
  0
LINE
  8
0
 10
55.8456
 20
-67.099
 11
55.9406
 21
-66.6627
  0
LINE
  8
0
 10
55.9406
 20
-66.6627
 11
56.099
 21
-66.271
  0
LINE
  8
0
 10
56.099
 20
-66.271
 11
56.3173
 21
-65.931
  0
LINE
  8
0
 10
56.3173
 20
-65.931
 11
56.5923
 21
-65.6497
  0
LINE
  8
0
 10
56.5923
 20
-65.6497
 11
56.924
 21
-65.427
  0
LINE
  8
0
 10
56.924
 20
-65.427
 11
57.3051
 21
-65.2653
  0
LINE
  8
0
 10
57.3051
 20
-65.2653
 11
57.7297
 21
-65.1683
  0
LINE
  8
0
 10
57.7297
 20
-65.1683
 11
58.198
 21
-65.136
  0
LINE
  8
0
 10
58.198
 20
-65.136
 11
58.8937
 21
-65.208
  0
LINE
  8
0
 10
58.8937
 20
-65.208
 11
59.4797
 21
-65.424
  0
LINE
  8
0
 10
59.4797
 20
-65.424
 11
59.9559
 21
-65.784
  0
LINE
  8
0
 10
59.9559
 20
-65.784
 11
60.3071
 21
-66.2711
  0
LINE
  8
0
 10
60.3071
 20
-66.2711
 11
60.5177
 21
-66.8698
  0
LINE
  8
0
 10
60.5177
 20
-66.8698
 11
60.588
 21
-67.58
  0
LINE
  8
0
 10
60.588
 20
-67.58
 11
60.5565
 21
-68.0618
  0
LINE
  8
0
 10
60.5565
 20
-68.0618
 11
60.4622
 21
-68.5018
  0
LINE
  8
0
 10
60.4622
 20
-68.5018
 11
60.3049
 21
-68.9
  0
LINE
  8
0
 10
60.3049
 20
-68.9
 11
60.0874
 21
-69.2477
  0
LINE
  8
0
 10
60.0874
 20
-69.2477
 11
59.8134
 21
-69.536
  0
LINE
  8
0
 10
59.8134
 20
-69.536
 11
59.483
 21
-69.765
  0
LINE
  8
0
 10
59.483
 20
-69.765
 11
59.1017
 21
-69.9311
  0
LINE
  8
0
 10
59.1017
 20
-69.9311
 11
58.6754
 21
-70.0308
  0
LINE
  8
0
 10
58.6754
 20
-70.0308
 11
58.2039
 21
-70.064
  0
LINE
  8
0
 10
58.2039
 20
-70.064
 11
57.7363
 21
-70.0304
  0
LINE
  8
0
 10
58.7047
 20
-69.4773
 11
59.1271
 21
-69.3013
  0
LINE
  8
0
 10
59.1271
 20
-69.3013
 11
59.4709
 21
-69.008
  0
LINE
  8
0
 10
59.4709
 20
-69.008
 11
59.7243
 21
-68.6146
  0
LINE
  8
0
 10
59.7243
 20
-68.6146
 11
59.8763
 21
-68.1382
  0
LINE
  8
0
 10
59.8763
 20
-68.1382
 11
59.927
 21
-67.579
  0
LINE
  8
0
 10
59.927
 20
-67.579
 11
59.8768
 21
-67.0193
  0
LINE
  8
0
 10
59.8768
 20
-67.0193
 11
59.7265
 21
-66.5497
  0
LINE
  8
0
 10
59.7265
 20
-66.5497
 11
59.476
 21
-66.17
  0
LINE
  8
0
 10
59.476
 20
-66.17
 11
59.1334
 21
-65.8906
  0
LINE
  8
0
 10
59.1334
 20
-65.8906
 11
58.7071
 21
-65.7229
  0
LINE
  8
0
 10
58.7071
 20
-65.7229
 11
58.197
 21
-65.667
  0
LINE
  8
0
 10
58.197
 20
-65.667
 11
57.6915
 21
-65.7237
  0
LINE
  8
0
 10
57.6915
 20
-65.7237
 11
57.2685
 21
-65.8937
  0
LINE
  8
0
 10
57.2685
 20
-65.8937
 11
56.9279
 21
-66.177
  0
LINE
  8
0
 10
56.9279
 20
-66.177
 11
56.6779
 21
-66.559
  0
LINE
  8
0
 10
56.6779
 20
-66.559
 11
56.528
 21
-67.0263
  0
LINE
  8
0
 10
56.528
 20
-67.0263
 11
56.478
 21
-67.579
  0
LINE
  8
0
 10
56.478
 20
-67.579
 11
56.5275
 21
-68.1552
  0
LINE
  8
0
 10
56.5275
 20
-68.1552
 11
56.6762
 21
-68.6372
  0
LINE
  8
0
 10
56.6762
 20
-68.6372
 11
56.924
 21
-69.025
  0
LINE
  8
0
 10
56.924
 20
-69.025
 11
57.2644
 21
-69.3089
  0
LINE
  8
0
 10
57.2644
 20
-69.3089
 11
57.6911
 21
-69.4792
  0
LINE
  8
0
 10
57.6911
 20
-69.4792
 11
58.2039
 21
-69.536
  0
LINE
  8
0
 10
58.2039
 20
-69.536
 11
58.7047
 21
-69.4773
  0
LINE
  8
0
 10
68.773
 20
-70
 11
68.773
 21
-68.042
  0
LINE
  8
0
 10
68.773
 20
-68.042
 11
66.075
 21
-68.042
  0
LINE
  8
0
 10
66.075
 20
-68.042
 11
66.075
 21
-67.504
  0
LINE
  8
0
 10
66.075
 20
-67.504
 11
68.773
 21
-67.504
  0
LINE
  8
0
 10
68.773
 20
-67.504
 11
68.773
 21
-65.731
  0
LINE
  8
0
 10
68.773
 20
-65.731
 11
65.993
 21
-65.731
  0
LINE
  8
0
 10
65.993
 20
-65.731
 11
65.993
 21
-65.2
  0
LINE
  8
0
 10
65.993
 20
-65.2
 11
69.424
 21
-65.2
  0
LINE
  8
0
 10
69.424
 20
-65.2
 11
69.424
 21
-70
  0
LINE
  8
0
 10
69.424
 20
-70
 11
68.773
 21
-70
  0
LINE
  8
0
 10
61.1079
 20
-70
 11
62.4759
 21
-67.943
  0
LINE
  8
0
 10
62.4759
 20
-67.943
 11
62.135
 21
-67.849
  0
LINE
  8
0
 10
62.135
 20
-67.849
 11
61.847
 21
-67.695
  0
LINE
  8
0
 10
61.847
 20
-67.695
 11
61.6119
 21
-67.481
  0
LINE
  8
0
 10
61.6119
 20
-67.481
 11
61.438
 21
-67.218
  0
LINE
  8
0
 10
61.438
 20
-67.218
 11
61.3336
 21
-66.917
  0
LINE
  8
0
 10
61.3336
 20
-66.917
 11
61.2989
 21
-66.578
  0
LINE
  8
0
 10
61.2989
 20
-66.578
 11
61.3481
 21
-66.177
  0
LINE
  8
0
 10
61.3481
 20
-66.177
 11
61.4958
 21
-65.8393
  0
LINE
  8
0
 10
61.4958
 20
-65.8393
 11
61.7419
 21
-65.565
  0
LINE
  8
0
 10
61.7419
 20
-65.565
 11
62.0783
 21
-65.3622
  0
LINE
  8
0
 10
62.0783
 20
-65.3622
 11
62.497
 21
-65.2406
  0
LINE
  8
0
 10
62.497
 20
-65.2406
 11
62.9979
 21
-65.2
  0
LINE
  8
0
 10
62.9979
 20
-65.2
 11
65.2649
 21
-65.2
  0
LINE
  8
0
 10
65.2649
 20
-65.2
 11
65.2649
 21
-70
  0
LINE
  8
0
 10
65.2649
 20
-70
 11
64.6139
 21
-70
  0
LINE
  8
0
 10
64.6139
 20
-70
 11
64.6139
 21
-68.018
  0
LINE
  8
0
 10
64.6139
 20
-68.018
 11
63.1099
 21
-68.018
  0
LINE
  8
0
 10
63.1099
 20
-68.018
 11
61.8569
 21
-70
  0
LINE
  8
0
 10
61.8569
 20
-70
 11
61.1079
 21
-70
  0
LINE
  8
0
 10
64.6139
 20
-65.721
 11
63.0629
 21
-65.721
  0
LINE
  8
0
 10
63.0629
 20
-65.721
 11
62.7322
 21
-65.7456
  0
LINE
  8
0
 10
62.7322
 20
-65.7456
 11
62.4575
 21
-65.8192
  0
LINE
  8
0
 10
62.4575
 20
-65.8192
 11
62.2389
 21
-65.942
  0
LINE
  8
0
 10
62.2389
 20
-65.942
 11
62.08
 21
-66.1117
  0
LINE
  8
0
 10
62.08
 20
-66.1117
 11
61.9846
 21
-66.326
  0
LINE
  8
0
 10
61.9846
 20
-66.326
 11
61.9529
 21
-66.585
  0
LINE
  8
0
 10
61.9529
 20
-66.585
 11
61.9843
 21
-66.8541
  0
LINE
  8
0
 10
61.9843
 20
-66.8541
 11
62.0787
 21
-67.0801
  0
LINE
  8
0
 10
62.0787
 20
-67.0801
 11
62.2359
 21
-67.263
  0
LINE
  8
0
 10
62.2359
 20
-67.263
 11
62.45
 21
-67.3969
  0
LINE
  8
0
 10
62.45
 20
-67.3969
 11
62.7163
 21
-67.4772
  0
LINE
  8
0
 10
62.7163
 20
-67.4772
 11
63.0349
 21
-67.504
  0
LINE
  8
0
 10
63.0349
 20
-67.504
 11
64.6139
 21
-67.504
  0
LINE
  8
0
 10
64.6139
 20
-67.504
 11
64.6139
 21
-65.721
  0
LINE
  8
0
 10
51.1351
 20
-70
 11
51.1351
 21
-65.2
  0
LINE
  8
0
 10
51.1351
 20
-65.2
 11
51.7211
 21
-65.2
  0
LINE
  8
0
 10
51.7211
 20
-65.2
 11
51.7211
 21
-68.348
  0
LINE
  8
0
 10
51.7211
 20
-68.348
 11
51.7166
 21
-68.5883
  0
LINE
  8
0
 10
51.7166
 20
-68.5883
 11
51.7029
 21
-68.9107
  0
LINE
  8
0
 10
51.7029
 20
-68.9107
 11
51.6801
 21
-69.315
  0
LINE
  8
0
 10
51.6801
 20
-69.315
 11
54.2901
 21
-65.2
  0
LINE
  8
0
 10
54.2901
 20
-65.2
 11
55.0461
 21
-65.2
  0
LINE
  8
0
 10
55.0461
 20
-65.2
 11
55.0461
 21
-70
  0
LINE
  8
0
 10
55.0461
 20
-70
 11
54.4671
 21
-70
  0
LINE
  8
0
 10
54.4671
 20
-70
 11
54.4671
 21
-66.811
  0
LINE
  8
0
 10
54.4671
 20
-66.811
 11
54.4841
 21
-66.242
  0
LINE
  8
0
 10
54.4841
 20
-66.242
 11
54.5011
 21
-65.911
  0
LINE
  8
0
 10
54.5011
 20
-65.911
 11
51.9181
 21
-70
  0
LINE
  8
0
 10
51.9181
 20
-70
 11
51.1351
 21
-70
  0
LINE
  8
0
 10
48.2352
 20
-70
 11
48.2352
 21
-65.731
  0
LINE
  8
0
 10
48.2352
 20
-65.731
 11
46.5732
 21
-65.731
  0
LINE
  8
0
 10
46.5732
 20
-65.731
 11
46.5732
 21
-65.2
  0
LINE
  8
0
 10
46.5732
 20
-65.2
 11
50.5422
 21
-65.2
  0
LINE
  8
0
 10
50.5422
 20
-65.2
 11
50.5422
 21
-65.731
  0
LINE
  8
0
 10
50.5422
 20
-65.731
 11
48.8832
 21
-65.731
  0
LINE
  8
0
 10
48.8832
 20
-65.731
 11
48.8832
 21
-70
  0
LINE
  8
0
 10
48.8832
 20
-70
 11
48.2352
 21
-70
  0
LINE
  8
0
 10
103.857
 20
-76.1
 11
115.286
 21
-76.1
  0
LINE
  8
0
 10
115.286
 20
-76.1
 11
115.286
 21
-81
  0
LINE
  8
0
 10
115.286
 20
-81
 11
126.714
 21
-81
  0
LINE
  8
0
 10
126.714
 20
-81
 11
126.714
 21
-76.1
  0
LINE
  8
0
 10
126.714
 20
-76.1
 11
138.143
 21
-76.1
  0
LINE
  8
0
 10
138.143
 20
-76.1
 11
138.143
 21
-81
  0
LINE
  8
0
 10
138.143
 20
-81
 11
149.571
 21
-81
  0
LINE
  8
0
 10
149.571
 20
-81
 11
149.571
 21
-76.1
  0
LINE
  8
0
 10
149.571
 20
-76.1
 11
156
 21
-76.1
  0
LINE
  8
0
 10
156
 20
-76.1
 11
156
 21
-69.5714
  0
LINE
  8
0
 10
156
 20
-69.5714
 11
161
 21
-69.5714
  0
LINE
  8
0
 10
161
 20
-69.5714
 11
161
 21
-58.1429
  0
LINE
  8
0
 10
161
 20
-58.1429
 11
156
 21
-58.1429
  0
LINE
  8
0
 10
156
 20
-58.1429
 11
156
 21
-46.7143
  0
LINE
  8
0
 10
156
 20
-46.7143
 11
161
 21
-46.7143
  0
LINE
  8
0
 10
161
 20
-46.7143
 11
161
 21
-35.2857
  0
LINE
  8
0
 10
161
 20
-35.2857
 11
156
 21
-35.2857
  0
LINE
  8
0
 10
156
 20
-35.2857
 11
156
 21
-23.8571
  0
LINE
  8
0
 10
156
 20
-23.8571
 11
161
 21
-23.8571
  0
LINE
  8
0
 10
161
 20
-23.8571
 11
161
 21
-12.4286
  0
LINE
  8
0
 10
161
 20
-12.4286
 11
156
 21
-12.4286
  0
LINE
  8
0
 10
156
 20
-12.4286
 11
156
 21
-5.90001
  0
LINE
  8
0
 10
156
 20
-5.90001
 11
149.571
 21
-5.90001
  0
LINE
  8
0
 10
149.571
 20
-5.90001
 11
149.571
 21
-1
  0
LINE
  8
0
 10
149.571
 20
-1
 11
138.143
 21
-1
  0
LINE
  8
0
 10
138.143
 20
-1
 11
138.143
 21
-5.90001
  0
LINE
  8
0
 10
138.143
 20
-5.90001
 11
126.714
 21
-5.90001
  0
LINE
  8
0
 10
126.714
 20
-5.90001
 11
126.714
 21
-1
  0
LINE
  8
0
 10
126.714
 20
-1
 11
115.286
 21
-1
  0
LINE
  8
0
 10
115.286
 20
-1
 11
115.286
 21
-5.90001
  0
LINE
  8
0
 10
115.286
 20
-5.90001
 11
103.857
 21
-5.90001
  0
LINE
  8
0
 10
103.857
 20
-5.90001
 11
103.857
 21
-1
  0
LINE
  8
0
 10
103.857
 20
-1
 11
92.4286
 21
-1
  0
LINE
  8
0
 10
92.4286
 20
-1
 11
92.4286
 21
-5.90001
  0
LINE
  8
0
 10
92.4286
 20
-5.90001
 11
86.1
 21
-5.90001
  0
LINE
  8
0
 10
86.1
 20
-5.90001
 11
86.1
 21
-12.4286
  0
LINE
  8
0
 10
86.1
 20
-12.4286
 11
81.1
 21
-12.4286
  0
LINE
  8
0
 10
81.1
 20
-12.4286
 11
81.1
 21
-5.90001
  0
LINE
  8
0
 10
81.1
 20
-5.90001
 11
81
 21
-5.90001
  0
LINE
  8
0
 10
81
 20
-5.90001
 11
81
 21
-76.1
  0
LINE
  8
0
 10
81
 20
-76.1
 11
81.1
 21
-76.1
  0
LINE
  8
0
 10
81.1
 20
-76.1
 11
81.1
 21
-69.5714
  0
LINE
  8
0
 10
81.1
 20
-69.5714
 11
86.1
 21
-69.5714
  0
LINE
  8
0
 10
86.1
 20
-69.5714
 11
86.1
 21
-76.1
  0
LINE
  8
0
 10
86.1
 20
-76.1
 11
92.4286
 21
-76.1
  0
LINE
  8
0
 10
92.4286
 20
-76.1
 11
92.4286
 21
-81
  0
LINE
  8
0
 10
92.4286
 20
-81
 11
103.857
 21
-81
  0
LINE
  8
0
 10
103.857
 20
-81
 11
103.857
 21
-76.1
  0
LINE
  8
0
 10
123.62
 20
-27.6667
 11
123.62
 21
-21.9707
  0
LINE
  8
0
 10
123.62
 20
-21.9707
 11
125.515
 21
-21.9707
  0
LINE
  8
0
 10
125.515
 20
-21.9707
 11
126.413
 21
-22.0513
  0
LINE
  8
0
 10
126.413
 20
-22.0513
 11
127.162
 21
-22.2934
  0
LINE
  8
0
 10
127.162
 20
-22.2934
 11
127.763
 21
-22.6967
  0
LINE
  8
0
 10
127.763
 20
-22.6967
 11
128.203
 21
-23.2481
  0
LINE
  8
0
 10
128.203
 20
-23.2481
 11
128.467
 21
-23.9358
  0
LINE
  8
0
 10
128.467
 20
-23.9358
 11
128.554
 21
-24.7597
  0
LINE
  8
0
 10
128.554
 20
-24.7597
 11
128.516
 21
-25.3231
  0
LINE
  8
0
 10
128.516
 20
-25.3231
 11
128.401
 21
-25.8375
  0
LINE
  8
0
 10
128.401
 20
-25.8375
 11
128.208
 21
-26.3027
  0
LINE
  8
0
 10
128.208
 20
-26.3027
 11
127.946
 21
-26.709
  0
LINE
  8
0
 10
127.946
 20
-26.709
 11
127.62
 21
-27.0467
  0
LINE
  8
0
 10
127.62
 20
-27.0467
 11
127.228
 21
-27.3157
  0
LINE
  8
0
 10
127.228
 20
-27.3157
 11
126.784
 21
-27.5107
  0
LINE
  8
0
 10
126.784
 20
-27.5107
 11
126.296
 21
-27.6277
  0
LINE
  8
0
 10
126.296
 20
-27.6277
 11
125.764
 21
-27.6667
  0
LINE
  8
0
 10
125.764
 20
-27.6667
 11
123.62
 21
-27.6667
  0
LINE
  8
0
 10
126.077
 20
-27.0142
 11
126.447
 21
-26.9229
  0
LINE
  8
0
 10
126.447
 20
-26.9229
 11
126.782
 21
-26.7707
  0
LINE
  8
0
 10
126.782
 20
-26.7707
 11
127.077
 21
-26.5606
  0
LINE
  8
0
 10
127.077
 20
-26.5606
 11
127.322
 21
-26.2969
  0
LINE
  8
0
 10
127.322
 20
-26.2969
 11
127.517
 21
-25.9797
  0
LINE
  8
0
 10
127.517
 20
-25.9797
 11
127.66
 21
-25.6143
  0
LINE
  8
0
 10
127.66
 20
-25.6143
 11
127.746
 21
-25.2077
  0
LINE
  8
0
 10
127.746
 20
-25.2077
 11
127.774
 21
-24.7597
  0
LINE
  8
0
 10
127.774
 20
-24.7597
 11
127.71
 21
-24.1108
  0
LINE
  8
0
 10
127.71
 20
-24.1108
 11
127.515
 21
-23.5735
  0
LINE
  8
0
 10
127.515
 20
-23.5735
 11
127.19
 21
-23.1477
  0
LINE
  8
0
 10
127.19
 20
-23.1477
 11
126.743
 21
-22.8393
  0
LINE
  8
0
 10
126.743
 20
-22.8393
 11
126.179
 21
-22.6543
  0
LINE
  8
0
 10
126.179
 20
-22.6543
 11
125.498
 21
-22.5927
  0
LINE
  8
0
 10
125.498
 20
-22.5927
 11
124.395
 21
-22.5927
  0
LINE
  8
0
 10
124.395
 20
-22.5927
 11
124.395
 21
-27.0447
  0
LINE
  8
0
 10
124.395
 20
-27.0447
 11
125.673
 21
-27.0447
  0
LINE
  8
0
 10
125.673
 20
-27.0447
 11
126.077
 21
-27.0142
  0
LINE
  8
0
 10
118.204
 20
-27.6667
 11
118.204
 21
-21.9707
  0
LINE
  8
0
 10
118.204
 20
-21.9707
 11
122.561
 21
-21.9707
  0
LINE
  8
0
 10
122.561
 20
-21.9707
 11
122.561
 21
-22.6047
  0
LINE
  8
0
 10
122.561
 20
-22.6047
 11
118.979
 21
-22.6047
  0
LINE
  8
0
 10
118.979
 20
-22.6047
 11
118.979
 21
-24.4027
  0
LINE
  8
0
 10
118.979
 20
-24.4027
 11
122.317
 21
-24.4027
  0
LINE
  8
0
 10
122.317
 20
-24.4027
 11
122.317
 21
-25.0287
  0
LINE
  8
0
 10
122.317
 20
-25.0287
 11
118.979
 21
-25.0287
  0
LINE
  8
0
 10
118.979
 20
-25.0287
 11
118.979
 21
-27.0327
  0
LINE
  8
0
 10
118.979
 20
-27.0327
 11
122.728
 21
-27.0327
  0
LINE
  8
0
 10
122.728
 20
-27.0327
 11
122.728
 21
-27.6667
  0
LINE
  8
0
 10
122.728
 20
-27.6667
 11
118.204
 21
-27.6667
  0
LINE
  8
0
 10
113.68
 20
-27.6667
 11
113.68
 21
-21.9707
  0
LINE
  8
0
 10
113.68
 20
-21.9707
 11
114.455
 21
-21.9707
  0
LINE
  8
0
 10
114.455
 20
-21.9707
 11
114.455
 21
-27.0327
  0
LINE
  8
0
 10
114.455
 20
-27.0327
 11
117.333
 21
-27.0327
  0
LINE
  8
0
 10
117.333
 20
-27.0327
 11
117.333
 21
-27.6667
  0
LINE
  8
0
 10
117.333
 20
-27.6667
 11
113.68
 21
-27.6667
  0
LINE
  8
0
 10
81.1
 20
-35.2857
 11
81.1
 21
-23.8571
  0
LINE
  8
0
 10
81.1
 20
-23.8571
 11
86.1
 21
-23.8571
  0
LINE
  8
0
 10
86.1
 20
-23.8571
 11
86.1
 21
-35.2857
  0
LINE
  8
0
 10
86.1
 20
-35.2857
 11
81.1
 21
-35.2857
  0
LINE
  8
0
 10
119.563
 20
-41.6051
 11
117.836
 21
-40.7451
  0
LINE
  8
0
 10
117.836
 20
-40.7451
 11
116.536
 21
-39.3193
  0
LINE
  8
0
 10
116.536
 20
-39.3193
 11
115.839
 21
-37.5202
  0
LINE
  8
0
 10
115.839
 20
-37.5202
 11
115.839
 21
-35.5909
  0
LINE
  8
0
 10
115.839
 20
-35.5909
 11
116.536
 21
-33.7918
  0
LINE
  8
0
 10
116.536
 20
-33.7918
 11
117.836
 21
-32.366
  0
LINE
  8
0
 10
117.836
 20
-32.366
 11
119.563
 21
-31.506
  0
LINE
  8
0
 10
119.563
 20
-31.506
 11
121.484
 21
-31.328
  0
LINE
  8
0
 10
121.484
 20
-31.328
 11
123.34
 21
-31.856
  0
LINE
  8
0
 10
123.34
 20
-31.856
 11
124.88
 21
-33.0187
  0
LINE
  8
0
 10
124.88
 20
-33.0187
 11
125.895
 21
-34.659
  0
LINE
  8
0
 10
125.895
 20
-34.659
 11
126.25
 21
-36.5556
  0
LINE
  8
0
 10
126.25
 20
-36.5556
 11
125.895
 21
-38.4521
  0
LINE
  8
0
 10
125.895
 20
-38.4521
 11
124.88
 21
-40.0925
  0
LINE
  8
0
 10
124.88
 20
-40.0925
 11
123.34
 21
-41.2552
  0
LINE
  8
0
 10
123.34
 20
-41.2552
 11
121.484
 21
-41.7832
  0
LINE
  8
0
 10
121.484
 20
-41.7832
 11
119.563
 21
-41.6051
  0
LINE
  8
0
 10
109.798
 20
-38.1548
 11
109.798
 21
-36.4158
  0
LINE
  8
0
 10
109.798
 20
-36.4158
 11
108.075
 21
-36.4158
  0
LINE
  8
0
 10
108.075
 20
-36.4158
 11
108.075
 21
-35.8228
  0
LINE
  8
0
 10
108.075
 20
-35.8228
 11
109.798
 21
-35.8228
  0
LINE
  8
0
 10
109.798
 20
-35.8228
 11
109.798
 21
-34.0838
  0
LINE
  8
0
 10
109.798
 20
-34.0838
 11
110.395
 21
-34.0838
  0
LINE
  8
0
 10
110.395
 20
-34.0838
 11
110.395
 21
-35.8228
  0
LINE
  8
0
 10
110.395
 20
-35.8228
 11
112.117
 21
-35.8228
  0
LINE
  8
0
 10
112.117
 20
-35.8228
 11
112.117
 21
-36.4158
  0
LINE
  8
0
 10
112.117
 20
-36.4158
 11
110.395
 21
-36.4158
  0
LINE
  8
0
 10
110.395
 20
-36.4158
 11
110.395
 21
-38.1548
  0
LINE
  8
0
 10
110.395
 20
-38.1548
 11
109.798
 21
-38.1548
  0
LINE
  8
0
 10
133.547
 20
-36.9848
 11
133.547
 21
-36.3347
  0
LINE
  8
0
 10
133.547
 20
-36.3347
 11
135.565
 21
-36.3347
  0
LINE
  8
0
 10
135.565
 20
-36.3347
 11
135.565
 21
-36.9848
  0
LINE
  8
0
 10
135.565
 20
-36.9848
 11
133.547
 21
-36.9848
  0
LINE
  8
0
 10
130.841
 20
-36.9848
 11
130.841
 21
-36.3347
  0
LINE
  8
0
 10
130.841
 20
-36.3347
 11
132.859
 21
-36.3347
  0
LINE
  8
0
 10
132.859
 20
-36.3347
 11
132.859
 21
-36.9848
  0
LINE
  8
0
 10
132.859
 20
-36.9848
 11
130.841
 21
-36.9848
  0
LINE
  8
0
 10
81.1
 20
-58.1429
 11
81.1
 21
-46.7143
  0
LINE
  8
0
 10
81.1
 20
-46.7143
 11
86.1
 21
-46.7143
  0
LINE
  8
0
 10
86.1
 20
-46.7143
 11
86.1
 21
-58.1429
  0
LINE
  8
0
 10
86.1
 20
-58.1429
 11
81.1
 21
-58.1429
  0
LINE
  8
0
 10
118.59
 20
-59.828
 11
116.936
 21
-58.7477
  0
LINE
  8
0
 10
116.936
 20
-58.7477
 11
115.723
 21
-57.189
  0
LINE
  8
0
 10
115.723
 20
-57.189
 11
115.082
 21
-55.3209
  0
LINE
  8
0
 10
115.082
 20
-55.3209
 11
115.082
 21
-53.3458
  0
LINE
  8
0
 10
115.082
 20
-53.3458
 11
115.723
 21
-51.4777
  0
LINE
  8
0
 10
115.723
 20
-51.4777
 11
116.936
 21
-49.919
  0
LINE
  8
0
 10
116.936
 20
-49.919
 11
118.59
 21
-48.8387
  0
LINE
  8
0
 10
118.59
 20
-48.8387
 11
120.505
 21
-48.3538
  0
LINE
  8
0
 10
120.505
 20
-48.3538
 11
122.473
 21
-48.5169
  0
LINE
  8
0
 10
122.473
 20
-48.5169
 11
124.282
 21
-49.3103
  0
LINE
  8
0
 10
124.282
 20
-49.3103
 11
125.735
 21
-50.6481
  0
LINE
  8
0
 10
125.735
 20
-50.6481
 11
126.675
 21
-52.3851
  0
LINE
  8
0
 10
126.675
 20
-52.3851
 11
127
 21
-54.3333
  0
LINE
  8
0
 10
127
 20
-54.3333
 11
126.675
 21
-56.2815
  0
LINE
  8
0
 10
126.675
 20
-56.2815
 11
125.735
 21
-58.0186
  0
LINE
  8
0
 10
125.735
 20
-58.0186
 11
124.282
 21
-59.3563
  0
LINE
  8
0
 10
124.282
 20
-59.3563
 11
122.473
 21
-60.1497
  0
LINE
  8
0
 10
122.473
 20
-60.1497
 11
120.505
 21
-60.3129
  0
LINE
  8
0
 10
120.505
 20
-60.3129
 11
118.59
 21
-59.828
  0
LINE
  8
0
 10
109.798
 20
-56.0176
 11
109.798
 21
-54.2786
  0
LINE
  8
0
 10
109.798
 20
-54.2786
 11
108.075
 21
-54.2786
  0
LINE
  8
0
 10
108.075
 20
-54.2786
 11
108.075
 21
-53.6856
  0
LINE
  8
0
 10
108.075
 20
-53.6856
 11
109.798
 21
-53.6856
  0
LINE
  8
0
 10
109.798
 20
-53.6856
 11
109.798
 21
-51.9466
  0
LINE
  8
0
 10
109.798
 20
-51.9466
 11
110.395
 21
-51.9466
  0
LINE
  8
0
 10
110.395
 20
-51.9466
 11
110.395
 21
-53.6856
  0
LINE
  8
0
 10
110.395
 20
-53.6856
 11
112.117
 21
-53.6856
  0
LINE
  8
0
 10
112.117
 20
-53.6856
 11
112.117
 21
-54.2786
  0
LINE
  8
0
 10
112.117
 20
-54.2786
 11
110.395
 21
-54.2786
  0
LINE
  8
0
 10
110.395
 20
-54.2786
 11
110.395
 21
-56.0176
  0
LINE
  8
0
 10
110.395
 20
-56.0176
 11
109.798
 21
-56.0176
  0
LINE
  8
0
 10
133.547
 20
-54.8476
 11
133.547
 21
-54.1976
  0
LINE
  8
0
 10
133.547
 20
-54.1976
 11
135.565
 21
-54.1976
  0
LINE
  8
0
 10
135.565
 20
-54.1976
 11
135.565
 21
-54.8476
  0
LINE
  8
0
 10
135.565
 20
-54.8476
 11
133.547
 21
-54.8476
  0
LINE
  8
0
 10
130.841
 20
-54.8476
 11
130.841
 21
-54.1976
  0
LINE
  8
0
 10
130.841
 20
-54.1976
 11
132.859
 21
-54.1976
  0
LINE
  8
0
 10
132.859
 20
-54.1976
 11
132.859
 21
-54.8476
  0
LINE
  8
0
 10
132.859
 20
-54.8476
 11
130.841
 21
-54.8476
  0
LINE
  8
0
 10
108.352
 20
-67.6667
 11
108.352
 21
-61.9707
  0
LINE
  8
0
 10
108.352
 20
-61.9707
 11
110.439
 21
-61.9707
  0
LINE
  8
0
 10
110.439
 20
-61.9707
 11
111.562
 21
-62.125
  0
LINE
  8
0
 10
111.562
 20
-62.125
 11
112.236
 21
-62.588
  0
LINE
  8
0
 10
112.236
 20
-62.588
 11
112.461
 21
-63.3597
  0
LINE
  8
0
 10
112.461
 20
-63.3597
 11
112.429
 21
-63.6797
  0
LINE
  8
0
 10
112.429
 20
-63.6797
 11
112.334
 21
-63.9637
  0
LINE
  8
0
 10
112.334
 20
-63.9637
 11
112.175
 21
-64.2117
  0
LINE
  8
0
 10
112.175
 20
-64.2117
 11
111.958
 21
-64.4165
  0
LINE
  8
0
 10
111.958
 20
-64.4165
 11
111.689
 21
-64.5708
  0
LINE
  8
0
 10
111.689
 20
-64.5708
 11
111.367
 21
-64.6747
  0
LINE
  8
0
 10
111.367
 20
-64.6747
 11
111.788
 21
-64.7611
  0
LINE
  8
0
 10
111.788
 20
-64.7611
 11
112.14
 21
-64.9125
  0
LINE
  8
0
 10
112.14
 20
-64.9125
 11
112.423
 21
-65.1287
  0
LINE
  8
0
 10
112.423
 20
-65.1287
 11
112.629
 21
-65.3983
  0
LINE
  8
0
 10
112.629
 20
-65.3983
 11
112.753
 21
-65.7113
  0
LINE
  8
0
 10
112.753
 20
-65.7113
 11
112.795
 21
-66.0677
  0
LINE
  8
0
 10
112.795
 20
-66.0677
 11
112.733
 21
-66.535
  0
LINE
  8
0
 10
112.733
 20
-66.535
 11
112.546
 21
-66.9277
  0
LINE
  8
0
 10
112.546
 20
-66.9277
 11
112.236
 21
-67.2457
  0
LINE
  8
0
 10
112.236
 20
-67.2457
 11
111.815
 21
-67.4796
  0
LINE
  8
0
 10
111.815
 20
-67.4796
 11
111.298
 21
-67.6199
  0
LINE
  8
0
 10
111.298
 20
-67.6199
 11
110.684
 21
-67.6667
  0
LINE
  8
0
 10
110.684
 20
-67.6667
 11
108.352
 21
-67.6667
  0
LINE
  8
0
 10
110.82
 20
-64.3768
 11
111.131
 21
-64.2991
  0
LINE
  8
0
 10
111.131
 20
-64.2991
 11
111.372
 21
-64.1697
  0
LINE
  8
0
 10
111.372
 20
-64.1697
 11
111.543
 21
-63.986
  0
LINE
  8
0
 10
111.543
 20
-63.986
 11
111.646
 21
-63.747
  0
LINE
  8
0
 10
111.646
 20
-63.747
 11
111.681
 21
-63.4527
  0
LINE
  8
0
 10
111.681
 20
-63.4527
 11
111.645
 21
-63.1739
  0
LINE
  8
0
 10
111.645
 20
-63.1739
 11
111.539
 21
-62.9536
  0
LINE
  8
0
 10
111.539
 20
-62.9536
 11
111.362
 21
-62.7917
  0
LINE
  8
0
 10
111.362
 20
-62.7917
 11
111.118
 21
-62.6811
  0
LINE
  8
0
 10
111.118
 20
-62.6811
 11
110.81
 21
-62.6148
  0
LINE
  8
0
 10
110.81
 20
-62.6148
 11
110.439
 21
-62.5927
  0
LINE
  8
0
 10
110.439
 20
-62.5927
 11
109.127
 21
-62.5927
  0
LINE
  8
0
 10
109.127
 20
-62.5927
 11
109.127
 21
-64.4027
  0
LINE
  8
0
 10
109.127
 20
-64.4027
 11
110.439
 21
-64.4027
  0
LINE
  8
0
 10
110.439
 20
-64.4027
 11
110.82
 21
-64.3768
  0
LINE
  8
0
 10
111.076
 20
-67.0158
 11
111.423
 21
-66.9291
  0
LINE
  8
0
 10
111.423
 20
-66.9291
 11
111.684
 21
-66.7847
  0
LINE
  8
0
 10
111.684
 20
-66.7847
 11
111.865
 21
-66.5821
  0
LINE
  8
0
 10
111.865
 20
-66.5821
 11
111.974
 21
-66.3225
  0
LINE
  8
0
 10
111.974
 20
-66.3225
 11
112.011
 21
-66.0057
  0
LINE
  8
0
 10
112.011
 20
-66.0057
 11
111.852
 21
-65.4512
  0
LINE
  8
0
 10
111.852
 20
-65.4512
 11
111.375
 21
-65.1186
  0
LINE
  8
0
 10
111.375
 20
-65.1186
 11
110.581
 21
-65.0077
  0
LINE
  8
0
 10
110.581
 20
-65.0077
 11
109.127
 21
-65.0077
  0
LINE
  8
0
 10
109.127
 20
-65.0077
 11
109.127
 21
-67.0447
  0
LINE
  8
0
 10
109.127
 20
-67.0447
 11
110.643
 21
-67.0447
  0
LINE
  8
0
 10
110.643
 20
-67.0447
 11
111.076
 21
-67.0158
  0
LINE
  8
0
 10
127.472
 20
-67.6664
 11
126.979
 21
-67.4733
  0
LINE
  8
0
 10
126.979
 20
-67.4733
 11
126.589
 21
-67.1517
  0
LINE
  8
0
 10
126.589
 20
-67.1517
 11
126.307
 21
-66.7031
  0
LINE
  8
0
 10
126.307
 20
-66.7031
 11
126.138
 21
-66.1295
  0
LINE
  8
0
 10
126.138
 20
-66.1295
 11
126.081
 21
-65.4307
  0
LINE
  8
0
 10
126.081
 20
-65.4307
 11
126.137
 21
-64.763
  0
LINE
  8
0
 10
126.137
 20
-64.763
 11
126.306
 21
-64.208
  0
LINE
  8
0
 10
126.306
 20
-64.208
 11
126.588
 21
-63.7657
  0
LINE
  8
0
 10
126.588
 20
-63.7657
 11
126.975
 21
-63.444
  0
LINE
  8
0
 10
126.975
 20
-63.444
 11
127.459
 21
-63.251
  0
LINE
  8
0
 10
127.459
 20
-63.251
 11
128.039
 21
-63.1867
  0
LINE
  8
0
 10
128.039
 20
-63.1867
 11
129.111
 21
-63.4445
  0
LINE
  8
0
 10
129.111
 20
-63.4445
 11
129.755
 21
-64.2178
  0
LINE
  8
0
 10
129.755
 20
-64.2178
 11
129.969
 21
-65.5067
  0
LINE
  8
0
 10
129.969
 20
-65.5067
 11
129.969
 21
-65.6037
  0
LINE
  8
0
 10
129.969
 20
-65.6037
 11
126.849
 21
-65.6037
  0
LINE
  8
0
 10
126.849
 20
-65.6037
 11
126.884
 21
-66.0699
  0
LINE
  8
0
 10
126.884
 20
-66.0699
 11
126.987
 21
-66.4592
  0
LINE
  8
0
 10
126.987
 20
-66.4592
 11
127.16
 21
-66.7717
  0
LINE
  8
0
 10
127.16
 20
-66.7717
 11
127.399
 21
-67
  0
LINE
  8
0
 10
127.399
 20
-67
 11
127.702
 21
-67.137
  0
LINE
  8
0
 10
127.702
 20
-67.137
 11
128.068
 21
-67.1827
  0
LINE
  8
0
 10
128.068
 20
-67.1827
 11
128.362
 21
-67.1617
  0
LINE
  8
0
 10
128.362
 20
-67.1617
 11
128.614
 21
-67.0987
  0
LINE
  8
0
 10
128.614
 20
-67.0987
 11
128.824
 21
-66.9937
  0
LINE
  8
0
 10
128.824
 20
-66.9937
 11
128.994
 21
-66.8565
  0
LINE
  8
0
 10
128.994
 20
-66.8565
 11
129.122
 21
-66.6968
  0
LINE
  8
0
 10
129.122
 20
-66.6968
 11
129.21
 21
-66.5147
  0
LINE
  8
0
 10
129.21
 20
-66.5147
 11
129.852
 21
-66.6967
  0
LINE
  8
0
 10
129.852
 20
-66.6967
 11
129.48
 21
-67.2711
  0
LINE
  8
0
 10
129.48
 20
-67.2711
 11
128.885
 21
-67.6158
  0
LINE
  8
0
 10
128.885
 20
-67.6158
 11
128.068
 21
-67.7307
  0
LINE
  8
0
 10
128.068
 20
-67.7307
 11
127.472
 21
-67.6664
  0
LINE
  8
0
 10
129.147
 20
-64.6266
 11
129.03
 21
-64.2929
  0
LINE
  8
0
 10
129.03
 20
-64.2929
 11
128.862
 21
-64.0417
  0
LINE
  8
0
 10
128.862
 20
-64.0417
 11
128.64
 21
-63.8667
  0
LINE
  8
0
 10
128.64
 20
-63.8667
 11
128.362
 21
-63.7617
  0
LINE
  8
0
 10
128.362
 20
-63.7617
 11
128.027
 21
-63.7267
  0
LINE
  8
0
 10
128.027
 20
-63.7267
 11
127.699
 21
-63.7657
  0
LINE
  8
0
 10
127.699
 20
-63.7657
 11
127.42
 21
-63.8827
  0
LINE
  8
0
 10
127.42
 20
-63.8827
 11
127.189
 21
-64.0777
  0
LINE
  8
0
 10
127.189
 20
-64.0777
 11
127.015
 21
-64.3409
  0
LINE
  8
0
 10
127.015
 20
-64.3409
 11
126.905
 21
-64.6626
  0
LINE
  8
0
 10
126.905
 20
-64.6626
 11
126.857
 21
-65.0427
  0
LINE
  8
0
 10
126.857
 20
-65.0427
 11
129.213
 21
-65.0427
  0
LINE
  8
0
 10
129.213
 20
-65.0427
 11
129.147
 21
-64.6266
  0
LINE
  8
0
 10
130.821
 20
-67.6667
 11
130.821
 21
-64.2787
  0
LINE
  8
0
 10
130.821
 20
-64.2787
 11
130.818
 21
-63.9578
  0
LINE
  8
0
 10
130.818
 20
-63.9578
 11
130.81
 21
-63.6151
  0
LINE
  8
0
 10
130.81
 20
-63.6151
 11
130.797
 21
-63.2507
  0
LINE
  8
0
 10
130.797
 20
-63.2507
 11
131.487
 21
-63.2507
  0
LINE
  8
0
 10
131.487
 20
-63.2507
 11
131.516
 21
-63.996
  0
LINE
  8
0
 10
131.516
 20
-63.996
 11
131.52
 21
-64.1657
  0
LINE
  8
0
 10
131.52
 20
-64.1657
 11
131.536
 21
-64.1657
  0
LINE
  8
0
 10
131.536
 20
-64.1657
 11
131.657
 21
-63.8288
  0
LINE
  8
0
 10
131.657
 20
-63.8288
 11
131.789
 21
-63.5715
  0
LINE
  8
0
 10
131.789
 20
-63.5715
 11
131.934
 21
-63.3937
  0
LINE
  8
0
 10
131.934
 20
-63.3937
 11
132.104
 21
-63.2787
  0
LINE
  8
0
 10
132.104
 20
-63.2787
 11
132.316
 21
-63.2097
  0
LINE
  8
0
 10
132.316
 20
-63.2097
 11
132.569
 21
-63.1867
  0
LINE
  8
0
 10
132.569
 20
-63.1867
 11
132.666
 21
-63.1912
  0
LINE
  8
0
 10
132.666
 20
-63.1912
 11
132.764
 21
-63.2049
  0
LINE
  8
0
 10
132.764
 20
-63.2049
 11
132.863
 21
-63.2277
  0
LINE
  8
0
 10
132.863
 20
-63.2277
 11
132.863
 21
-63.8977
  0
LINE
  8
0
 10
132.863
 20
-63.8977
 11
132.755
 21
-63.8749
  0
LINE
  8
0
 10
132.755
 20
-63.8749
 11
132.627
 21
-63.8612
  0
LINE
  8
0
 10
132.627
 20
-63.8612
 11
132.477
 21
-63.8567
  0
LINE
  8
0
 10
132.477
 20
-63.8567
 11
132.2
 21
-63.9003
  0
LINE
  8
0
 10
132.2
 20
-63.9003
 11
131.971
 21
-64.0313
  0
LINE
  8
0
 10
131.971
 20
-64.0313
 11
131.789
 21
-64.2497
  0
LINE
  8
0
 10
131.789
 20
-64.2497
 11
131.657
 21
-64.5488
  0
LINE
  8
0
 10
131.657
 20
-64.5488
 11
131.578
 21
-64.9235
  0
LINE
  8
0
 10
131.578
 20
-64.9235
 11
131.552
 21
-65.3737
  0
LINE
  8
0
 10
131.552
 20
-65.3737
 11
131.552
 21
-67.6667
  0
LINE
  8
0
 10
131.552
 20
-67.6667
 11
130.821
 21
-67.6667
  0
LINE
  8
0
 10
122.004
 20
-67.6667
 11
122.004
 21
-67.1097
  0
LINE
  8
0
 10
122.004
 20
-67.1097
 11
124.462
 21
-63.8157
  0
LINE
  8
0
 10
124.462
 20
-63.8157
 11
122.142
 21
-63.8157
  0
LINE
  8
0
 10
122.142
 20
-63.8157
 11
122.142
 21
-63.2507
  0
LINE
  8
0
 10
122.142
 20
-63.2507
 11
125.327
 21
-63.2507
  0
LINE
  8
0
 10
125.327
 20
-63.2507
 11
125.327
 21
-63.8077
  0
LINE
  8
0
 10
125.327
 20
-63.8077
 11
122.865
 21
-67.1017
  0
LINE
  8
0
 10
122.865
 20
-67.1017
 11
125.413
 21
-67.1017
  0
LINE
  8
0
 10
125.413
 20
-67.1017
 11
125.413
 21
-67.6667
  0
LINE
  8
0
 10
125.413
 20
-67.6667
 11
122.004
 21
-67.6667
  0
LINE
  8
0
 10
114.573
 20
-67.6907
 11
114.222
 21
-67.5707
  0
LINE
  8
0
 10
114.222
 20
-67.5707
 11
113.957
 21
-67.3707
  0
LINE
  8
0
 10
113.957
 20
-67.3707
 11
113.772
 21
-67.0786
  0
LINE
  8
0
 10
113.772
 20
-67.0786
 11
113.661
 21
-66.6822
  0
LINE
  8
0
 10
113.661
 20
-66.6822
 11
113.624
 21
-66.1817
  0
LINE
  8
0
 10
113.624
 20
-66.1817
 11
113.624
 21
-63.2507
  0
LINE
  8
0
 10
113.624
 20
-63.2507
 11
114.36
 21
-63.2507
  0
LINE
  8
0
 10
114.36
 20
-63.2507
 11
114.36
 21
-66.0397
  0
LINE
  8
0
 10
114.36
 20
-66.0397
 11
114.369
 21
-66.308
  0
LINE
  8
0
 10
114.369
 20
-66.308
 11
114.397
 21
-66.533
  0
LINE
  8
0
 10
114.397
 20
-66.533
 11
114.444
 21
-66.7147
  0
LINE
  8
0
 10
114.444
 20
-66.7147
 11
114.511
 21
-66.8598
  0
LINE
  8
0
 10
114.511
 20
-66.8598
 11
114.602
 21
-66.9751
  0
LINE
  8
0
 10
114.602
 20
-66.9751
 11
114.715
 21
-67.0607
  0
LINE
  8
0
 10
114.715
 20
-67.0607
 11
114.858
 21
-67.119
  0
LINE
  8
0
 10
114.858
 20
-67.119
 11
115.039
 21
-67.154
  0
LINE
  8
0
 10
115.039
 20
-67.154
 11
115.26
 21
-67.1657
  0
LINE
  8
0
 10
115.26
 20
-67.1657
 11
115.584
 21
-67.1255
  0
LINE
  8
0
 10
115.584
 20
-67.1255
 11
115.86
 21
-67.0048
  0
LINE
  8
0
 10
115.86
 20
-67.0048
 11
116.086
 21
-66.8037
  0
LINE
  8
0
 10
116.086
 20
-66.8037
 11
116.254
 21
-66.5312
  0
LINE
  8
0
 10
116.254
 20
-66.5312
 11
116.355
 21
-66.1966
  0
LINE
  8
0
 10
116.355
 20
-66.1966
 11
116.389
 21
-65.7997
  0
LINE
  8
0
 10
116.389
 20
-65.7997
 11
116.389
 21
-63.2507
  0
LINE
  8
0
 10
116.389
 20
-63.2507
 11
117.12
 21
-63.2507
  0
LINE
  8
0
 10
117.12
 20
-63.2507
 11
117.12
 21
-66.7237
  0
LINE
  8
0
 10
117.12
 20
-66.7237
 11
117.122
 21
-67.1716
  0
LINE
  8
0
 10
117.122
 20
-67.1716
 11
117.131
 21
-67.4859
  0
LINE
  8
0
 10
117.131
 20
-67.4859
 11
117.145
 21
-67.6667
  0
LINE
  8
0
 10
117.145
 20
-67.6667
 11
116.454
 21
-67.6667
  0
LINE
  8
0
 10
116.454
 20
-67.6667
 11
116.451
 21
-67.6449
  0
LINE
  8
0
 10
116.451
 20
-67.6449
 11
116.431
 21
-67.242
  0
LINE
  8
0
 10
116.431
 20
-67.242
 11
116.422
 21
-66.8967
  0
LINE
  8
0
 10
116.422
 20
-66.8967
 11
116.41
 21
-66.8967
  0
LINE
  8
0
 10
116.41
 20
-66.8967
 11
116.233
 21
-67.171
  0
LINE
  8
0
 10
116.233
 20
-67.171
 11
116.04
 21
-67.386
  0
LINE
  8
0
 10
116.04
 20
-67.386
 11
115.829
 21
-67.5417
  0
LINE
  8
0
 10
115.829
 20
-67.5417
 11
115.591
 21
-67.6467
  0
LINE
  8
0
 10
115.591
 20
-67.6467
 11
115.319
 21
-67.7097
  0
LINE
  8
0
 10
115.319
 20
-67.7097
 11
115.011
 21
-67.7307
  0
LINE
  8
0
 10
115.011
 20
-67.7307
 11
114.573
 21
-67.6907
  0
LINE
  8
0
 10
117.941
 20
-67.6667
 11
117.941
 21
-67.1097
  0
LINE
  8
0
 10
117.941
 20
-67.1097
 11
120.399
 21
-63.8157
  0
LINE
  8
0
 10
120.399
 20
-63.8157
 11
118.079
 21
-63.8157
  0
LINE
  8
0
 10
118.079
 20
-63.8157
 11
118.079
 21
-63.2507
  0
LINE
  8
0
 10
118.079
 20
-63.2507
 11
121.264
 21
-63.2507
  0
LINE
  8
0
 10
121.264
 20
-63.2507
 11
121.264
 21
-63.8077
  0
LINE
  8
0
 10
121.264
 20
-63.8077
 11
118.802
 21
-67.1017
  0
LINE
  8
0
 10
118.802
 20
-67.1017
 11
121.35
 21
-67.1017
  0
LINE
  8
0
 10
121.35
 20
-67.1017
 11
121.35
 21
-67.6667
  0
LINE
  8
0
 10
121.35
 20
-67.6667
 11
117.941
 21
-67.6667
  0
LINE
  8
0
 10
138.753
 20
-71.028
 11
138.337
 21
-70.92
  0
LINE
  8
0
 10
138.337
 20
-70.92
 11
137.959
 21
-70.74
  0
LINE
  8
0
 10
137.959
 20
-70.74
 11
137.627
 21
-70.4904
  0
LINE
  8
0
 10
137.627
 20
-70.4904
 11
137.348
 21
-70.1751
  0
LINE
  8
0
 10
137.348
 20
-70.1751
 11
137.123
 21
-69.794
  0
LINE
  8
0
 10
137.123
 20
-69.794
 11
137.654
 21
-69.528
  0
LINE
  8
0
 10
137.654
 20
-69.528
 11
138.05
 21
-70.0841
  0
LINE
  8
0
 10
138.05
 20
-70.0841
 11
138.558
 21
-70.4178
  0
LINE
  8
0
 10
138.558
 20
-70.4178
 11
139.177
 21
-70.529
  0
LINE
  8
0
 10
139.177
 20
-70.529
 11
139.668
 21
-70.4696
  0
LINE
  8
0
 10
139.668
 20
-70.4696
 11
140.086
 21
-70.2912
  0
LINE
  8
0
 10
140.086
 20
-70.2912
 11
140.432
 21
-69.994
  0
LINE
  8
0
 10
140.432
 20
-69.994
 11
140.689
 21
-69.599
  0
LINE
  8
0
 10
140.689
 20
-69.599
 11
140.844
 21
-69.1273
  0
LINE
  8
0
 10
140.844
 20
-69.1273
 11
140.895
 21
-68.579
  0
LINE
  8
0
 10
140.895
 20
-68.579
 11
140.846
 21
-68.0278
  0
LINE
  8
0
 10
140.846
 20
-68.0278
 11
140.697
 21
-67.5608
  0
LINE
  8
0
 10
140.697
 20
-67.5608
 11
140.45
 21
-67.178
  0
LINE
  8
0
 10
140.45
 20
-67.178
 11
140.114
 21
-66.8941
  0
LINE
  8
0
 10
140.114
 20
-66.8941
 11
139.699
 21
-66.7238
  0
LINE
  8
0
 10
139.699
 20
-66.7238
 11
139.204
 21
-66.667
  0
LINE
  8
0
 10
139.204
 20
-66.667
 11
138.88
 21
-66.6921
  0
LINE
  8
0
 10
138.88
 20
-66.6921
 11
138.586
 21
-66.7675
  0
LINE
  8
0
 10
138.586
 20
-66.7675
 11
138.323
 21
-66.893
  0
LINE
  8
0
 10
138.323
 20
-66.893
 11
138.098
 21
-67.0653
  0
LINE
  8
0
 10
138.098
 20
-67.0653
 11
137.919
 21
-67.2823
  0
LINE
  8
0
 10
137.919
 20
-67.2823
 11
137.784
 21
-67.544
  0
LINE
  8
0
 10
137.784
 20
-67.544
 11
137.167
 21
-67.337
  0
LINE
  8
0
 10
137.167
 20
-67.337
 11
137.359
 21
-66.9728
  0
LINE
  8
0
 10
137.359
 20
-66.9728
 11
137.612
 21
-66.6734
  0
LINE
  8
0
 10
137.612
 20
-66.6734
 11
137.926
 21
-66.439
  0
LINE
  8
0
 10
137.926
 20
-66.439
 11
138.298
 21
-66.2707
  0
LINE
  8
0
 10
138.298
 20
-66.2707
 11
138.727
 21
-66.1697
  0
LINE
  8
0
 10
138.727
 20
-66.1697
 11
139.211
 21
-66.136
  0
LINE
  8
0
 10
139.211
 20
-66.136
 11
139.892
 21
-66.2081
  0
LINE
  8
0
 10
139.892
 20
-66.2081
 11
140.466
 21
-66.4245
  0
LINE
  8
0
 10
140.466
 20
-66.4245
 11
140.934
 21
-66.785
  0
LINE
  8
0
 10
140.934
 20
-66.785
 11
141.28
 21
-67.2729
  0
LINE
  8
0
 10
141.28
 20
-67.2729
 11
141.487
 21
-67.8712
  0
LINE
  8
0
 10
141.487
 20
-67.8712
 11
141.556
 21
-68.58
  0
LINE
  8
0
 10
141.556
 20
-68.58
 11
141.525
 21
-69.0666
  0
LINE
  8
0
 10
141.525
 20
-69.0666
 11
141.433
 21
-69.5076
  0
LINE
  8
0
 10
141.433
 20
-69.5076
 11
141.278
 21
-69.903
  0
LINE
  8
0
 10
141.278
 20
-69.903
 11
141.064
 21
-70.247
  0
LINE
  8
0
 10
141.064
 20
-70.247
 11
140.794
 21
-70.5337
  0
LINE
  8
0
 10
140.794
 20
-70.5337
 11
140.468
 21
-70.763
  0
LINE
  8
0
 10
140.468
 20
-70.763
 11
140.092
 21
-70.9302
  0
LINE
  8
0
 10
140.092
 20
-70.9302
 11
139.672
 21
-71.0305
  0
LINE
  8
0
 10
139.672
 20
-71.0305
 11
139.208
 21
-71.064
  0
LINE
  8
0
 10
139.208
 20
-71.064
 11
138.753
 21
-71.028
  0
LINE
  8
0
 10
148.469
 20
-71
 11
147.953
 21
-70.9606
  0
LINE
  8
0
 10
147.953
 20
-70.9606
 11
147.519
 21
-70.8422
  0
LINE
  8
0
 10
147.519
 20
-70.8422
 11
147.166
 21
-70.645
  0
LINE
  8
0
 10
147.166
 20
-70.645
 11
146.905
 21
-70.3768
  0
LINE
  8
0
 10
146.905
 20
-70.3768
 11
146.749
 21
-70.0455
  0
LINE
  8
0
 10
146.749
 20
-70.0455
 11
146.697
 21
-69.651
  0
LINE
  8
0
 10
146.697
 20
-69.651
 11
146.732
 21
-69.35
  0
LINE
  8
0
 10
146.732
 20
-69.35
 11
146.836
 21
-69.0857
  0
LINE
  8
0
 10
146.836
 20
-69.0857
 11
147.009
 21
-68.858
  0
LINE
  8
0
 10
147.009
 20
-68.858
 11
147.246
 21
-68.676
  0
LINE
  8
0
 10
147.246
 20
-68.676
 11
147.541
 21
-68.5487
  0
LINE
  8
0
 10
147.541
 20
-68.5487
 11
147.895
 21
-68.476
  0
LINE
  8
0
 10
147.895
 20
-68.476
 11
147.625
 21
-68.3888
  0
LINE
  8
0
 10
147.625
 20
-68.3888
 11
147.399
 21
-68.2591
  0
LINE
  8
0
 10
147.399
 20
-68.2591
 11
147.218
 21
-68.087
  0
LINE
  8
0
 10
147.218
 20
-68.087
 11
147.085
 21
-67.8779
  0
LINE
  8
0
 10
147.085
 20
-67.8779
 11
147.005
 21
-67.6386
  0
LINE
  8
0
 10
147.005
 20
-67.6386
 11
146.978
 21
-67.369
  0
LINE
  8
0
 10
146.978
 20
-67.369
 11
147.166
 21
-66.7196
  0
LINE
  8
0
 10
147.166
 20
-66.7196
 11
147.732
 21
-66.3299
  0
LINE
  8
0
 10
147.732
 20
-66.3299
 11
148.674
 21
-66.2
  0
LINE
  8
0
 10
148.674
 20
-66.2
 11
150.425
 21
-66.2
  0
LINE
  8
0
 10
150.425
 20
-66.2
 11
150.425
 21
-71
  0
LINE
  8
0
 10
150.425
 20
-71
 11
148.469
 21
-71
  0
LINE
  8
0
 10
149.774
 20
-66.721
 11
148.674
 21
-66.721
  0
LINE
  8
0
 10
148.674
 20
-66.721
 11
148.363
 21
-66.7397
  0
LINE
  8
0
 10
148.363
 20
-66.7397
 11
148.105
 21
-66.7957
  0
LINE
  8
0
 10
148.105
 20
-66.7957
 11
147.9
 21
-66.889
  0
LINE
  8
0
 10
147.9
 20
-66.889
 11
147.751
 21
-67.0257
  0
LINE
  8
0
 10
147.751
 20
-67.0257
 11
147.662
 21
-67.2117
  0
LINE
  8
0
 10
147.662
 20
-67.2117
 11
147.632
 21
-67.447
  0
LINE
  8
0
 10
147.632
 20
-67.447
 11
147.661
 21
-67.695
  0
LINE
  8
0
 10
147.661
 20
-67.695
 11
147.747
 21
-67.8963
  0
LINE
  8
0
 10
147.747
 20
-67.8963
 11
147.891
 21
-68.051
  0
LINE
  8
0
 10
147.891
 20
-68.051
 11
148.093
 21
-68.1604
  0
LINE
  8
0
 10
148.093
 20
-68.1604
 11
148.354
 21
-68.2261
  0
LINE
  8
0
 10
148.354
 20
-68.2261
 11
148.674
 21
-68.248
  0
LINE
  8
0
 10
148.674
 20
-68.248
 11
149.774
 21
-68.248
  0
LINE
  8
0
 10
149.774
 20
-68.248
 11
149.774
 21
-66.721
  0
LINE
  8
0
 10
149.774
 20
-68.756
 11
148.554
 21
-68.756
  0
LINE
  8
0
 10
148.554
 20
-68.756
 11
147.887
 21
-68.8499
  0
LINE
  8
0
 10
147.887
 20
-68.8499
 11
147.487
 21
-69.1316
  0
LINE
  8
0
 10
147.487
 20
-69.1316
 11
147.354
 21
-69.601
  0
LINE
  8
0
 10
147.354
 20
-69.601
 11
147.384
 21
-69.8683
  0
LINE
  8
0
 10
147.384
 20
-69.8683
 11
147.476
 21
-70.0877
  0
LINE
  8
0
 10
147.476
 20
-70.0877
 11
147.628
 21
-70.259
  0
LINE
  8
0
 10
147.628
 20
-70.259
 11
147.847
 21
-70.3812
  0
LINE
  8
0
 10
147.847
 20
-70.3812
 11
148.138
 21
-70.4546
  0
LINE
  8
0
 10
148.138
 20
-70.4546
 11
148.502
 21
-70.479
  0
LINE
  8
0
 10
148.502
 20
-70.479
 11
149.774
 21
-70.479
  0
LINE
  8
0
 10
149.774
 20
-70.479
 11
149.774
 21
-68.756
  0
LINE
  8
0
 10
141.798
 20
-71
 11
143.735
 21
-66.2
  0
LINE
  8
0
 10
143.735
 20
-66.2
 11
144.474
 21
-66.2
  0
LINE
  8
0
 10
144.474
 20
-66.2
 11
146.442
 21
-71
  0
LINE
  8
0
 10
146.442
 20
-71
 11
145.768
 21
-71
  0
LINE
  8
0
 10
145.768
 20
-71
 11
145.213
 21
-69.588
  0
LINE
  8
0
 10
145.213
 20
-69.588
 11
143.013
 21
-69.588
  0
LINE
  8
0
 10
143.013
 20
-69.588
 11
142.462
 21
-71
  0
LINE
  8
0
 10
142.462
 20
-71
 11
141.798
 21
-71
  0
LINE
  8
0
 10
144.397
 20
-67.508
 11
144.294
 21
-67.2317
  0
LINE
  8
0
 10
144.294
 20
-67.2317
 11
144.21
 21
-66.9907
  0
LINE
  8
0
 10
144.21
 20
-66.9907
 11
144.113
 21
-66.69
  0
LINE
  8
0
 10
144.113
 20
-66.69
 11
144.021
 21
-66.972
  0
LINE
  8
0
 10
144.021
 20
-66.972
 11
143.957
 21
-67.1619
  0
LINE
  8
0
 10
143.957
 20
-67.1619
 11
143.893
 21
-67.3382
  0
LINE
  8
0
 10
143.893
 20
-67.3382
 11
143.209
 21
-69.08
  0
LINE
  8
0
 10
143.209
 20
-69.08
 11
145.014
 21
-69.08
  0
LINE
  8
0
 10
145.014
 20
-69.08
 11
144.397
 21
-67.508
  0
LINE
  8
0
 10
132.399
 20
-71
 11
134.724
 21
-68.285
  0
LINE
  8
0
 10
134.724
 20
-68.285
 11
132.672
 21
-66.2
  0
LINE
  8
0
 10
132.672
 20
-66.2
 11
133.438
 21
-66.2
  0
LINE
  8
0
 10
133.438
 20
-66.2
 11
135.766
 21
-68.605
  0
LINE
  8
0
 10
135.766
 20
-68.605
 11
135.766
 21
-66.2
  0
LINE
  8
0
 10
135.766
 20
-66.2
 11
136.417
 21
-66.2
  0
LINE
  8
0
 10
136.417
 20
-66.2
 11
136.417
 21
-71
  0
LINE
  8
0
 10
136.417
 20
-71
 11
135.766
 21
-71
  0
LINE
  8
0
 10
135.766
 20
-71
 11
135.766
 21
-69.16
  0
LINE
  8
0
 10
135.766
 20
-69.16
 11
135.136
 21
-68.683
  0
LINE
  8
0
 10
135.136
 20
-68.683
 11
133.207
 21
-71
  0
LINE
  8
0
 10
133.207
 20
-71
 11
132.399
 21
-71
  0
ENDSEC
  0
SECTION
  2
OBJECTS
  0
DICTIONARY
  0
ENDSEC
  0
EOF
