<?xml version="1.0" encoding="UTF-8" standalone="no"?>
<svg
   xmlns:dc="http://purl.org/dc/elements/1.1/"
   xmlns:cc="http://creativecommons.org/ns#"
   xmlns:rdf="http://www.w3.org/1999/02/22-rdf-syntax-ns#"
   xmlns:svg="http://www.w3.org/2000/svg"
   xmlns="http://www.w3.org/2000/svg"
   xmlns:sodipodi="http://sodipodi.sourceforge.net/DTD/sodipodi-0.dtd"
   xmlns:inkscape="http://www.inkscape.org/namespaces/inkscape"
   version="1.1"
   width="600mm"
   height="300mm"
   viewBox="0 0 2125.986 1062.993"
   id="svg2"
   inkscape:version="0.91 r13725"
   sodipodi:docname="tnt-button-dubai-4mm-2schnitt.svg">
  <metadata
     id="metadata34">
    <rdf:RDF>
      <cc:Work
         rdf:about="">
        <dc:format>image/svg+xml</dc:format>
        <dc:type
           rdf:resource="http://purl.org/dc/dcmitype/StillImage" />
        <dc:title></dc:title>
      </cc:Work>
    </rdf:RDF>
  </metadata>
  <defs
     id="defs32" />
  <sodipodi:namedview
     pagecolor="#ffffff"
     bordercolor="#666666"
     borderopacity="1"
     objecttolerance="10"
     gridtolerance="10"
     guidetolerance="10"
     inkscape:pageopacity="0"
     inkscape:pageshadow="2"
     inkscape:window-width="1280"
     inkscape:window-height="719"
     id="namedview30"
     showgrid="false"
     inkscape:zoom="0.18467551"
     inkscape:cx="929.27667"
     inkscape:cy="479.43822"
     inkscape:window-x="0"
     inkscape:window-y="1"
     inkscape:window-maximized="1"
     inkscape:current-layer="svg2"
     inkscape:snap-global="false"
     inkscape:snap-bbox="true"
     inkscape:snap-nodes="true"
     inkscape:bbox-paths="true"
     inkscape:snap-bbox-edge-midpoints="true"
     inkscape:bbox-nodes="false"
     inkscape:snap-bbox-midpoints="true"
     inkscape:snap-others="false"
     showguides="true"
     inkscape:guide-bbox="true"
     inkscape:object-paths="true"
     inkscape:snap-intersection-paths="true"
     inkscape:object-nodes="true"
     inkscape:document-units="mm">
    <sodipodi:guide
       position="927.97426,589.62692"
       orientation="1,0"
       id="guide15805" />
    <sodipodi:guide
       position="883.99364,699.15878"
       orientation="0,1"
       id="guide15809" />
    <sodipodi:guide
       position="770.41153,509.7867"
       orientation="0,1"
       id="guide15819" />
    <sodipodi:guide
       position="702.60648,928.51266"
       orientation="1,0"
       id="guide27941" />
    <sodipodi:guide
       position="765.02395,709.8337"
       orientation="1,0"
       id="guide27943" />
  </sodipodi:namedview>
  <!-- Front-->
  <!-- Back-->
  <!-- Left-->
  <!-- Right-->
  <!-- Top-->
  <!-- Bottom-->
  <g
     transform="translate(0.45,0.45)"
     id="g4" />
  <g
     transform="translate(567.3796,0.45)"
     id="g12" />
  <g
     transform="translate(0.45,283.91481)"
     id="g20" />
  <rect
     style="fill:none;fill-opacity:1;stroke:#ffff00;stroke-width:1.18346643;stroke-miterlimit:4;stroke-dasharray:none;stroke-dashoffset:0;stroke-opacity:1"
     id="rect4250"
     width="1487.0068"
     height="1051.1797"
     x="0.59173322"
     y="0.59173322" />
  <g
     id="g28189"
     transform="translate(91.753114,991.53515)" />
  <g
     id="g28191"
     transform="translate(886.40243,6.5861344)">
    <g
       id="g28330">
      <polygon
         id="polygon28193"
         points="269.29156,60.23627 283.4648,60.23627 283.4648,120.47254 269.29156,120.47254 269.29156,162.99226 283.4648,162.99226 283.4648,223.22853 269.29156,223.22853 269.29156,269.29156 223.22853,269.29156 223.22853,283.4648 162.99226,283.4648 162.99226,269.29156 120.47254,269.29156 120.47254,283.4648 60.23627,283.4648 60.23627,269.29156 14.17324,269.29156 14.17324,223.22853 0,223.22853 0,162.99226 14.17324,162.99226 14.17324,120.47254 0,120.47254 0,60.23627 14.17324,60.23627 14.17324,14.17324 60.23627,14.17324 60.23627,0 120.47254,0 120.47254,14.17324 162.99226,14.17324 162.99226,0 223.22853,0 223.22853,14.17324 269.29156,14.17324 "
         style="fill:none;stroke:#000000;stroke-width:0.90000075"
         transform="translate(0.4499996,283.91456)" />
      <circle
         id="circle28195"
         style="fill:none;stroke:#000000;stroke-width:0.90000075"
         r="49.25201"
         cy="141.73241"
         cx="141.73241"
         transform="translate(0.4499996,283.91456)" />
    </g>
    <g
       id="g28197" />
  </g>
  <rect
     style="fill:none;fill-opacity:1;stroke:#00ff00;stroke-width:2.63976622;stroke-miterlimit:4;stroke-dasharray:none;stroke-dashoffset:0;stroke-opacity:1"
     id="rect28418"
     width="73.101196"
     height="48.734131"
     x="1.3198838"
     y="1.3198812"
     rx="0" />
  <g
     id="g28219"
     transform="translate(589.76218,662.24818)">
    <polygon
       id="polygon28221"
       points="283.4648,223.22853 269.29156,223.22853 269.29156,283.4648 223.22853,283.4648 223.22853,269.29156 162.99226,269.29156 162.99226,283.4648 120.47254,283.4648 120.47254,269.29156 60.23627,269.29156 60.23627,283.4648 14.17324,283.4648 14.17324,223.22853 0,223.22853 0,162.99226 14.17324,162.99226 14.17324,120.47254 0,120.47254 0,60.23627 14.17324,60.23627 14.17324,0 60.23627,0 60.23627,14.17324 120.47254,14.17324 120.47254,0 162.99226,0 162.99226,14.17324 223.22853,14.17324 223.22853,0 269.29156,0 269.29156,60.23627 283.4648,60.23627 283.4648,120.47254 269.29156,120.47254 269.29156,162.99226 283.4648,162.99226 "
       style="fill:none;stroke:#000000;stroke-width:0.90000075" />
  </g>
  <text
     xml:space="preserve"
     style="font-style:normal;font-variant:normal;font-weight:normal;font-stretch:normal;font-size:19.375px;line-height:125%;font-family:Minecrafter;-inkscape-font-specification:'Minecrafter, Normal';text-align:start;letter-spacing:0px;word-spacing:0px;writing-mode:lr-tb;text-anchor:start;fill:#ff0000;fill-opacity:1;stroke:none;stroke-width:1px;stroke-linecap:butt;stroke-linejoin:miter;stroke-opacity:1"
     x="712.48773"
     y="815.69775"
     id="text28223"
     sodipodi:linespacing="125%"><tspan
       sodipodi:role="line"
       id="tspan28225"
       x="712.48773"
       y="815.69775">out</tspan></text>
  <rect
     rx="0"
     y="822.76123"
     x="723.25043"
     height="16.488276"
     width="16.488277"
     id="rect28227"
     style="fill:none;fill-opacity:1;stroke:#000000;stroke-width:1.22827482;stroke-miterlimit:4;stroke-dasharray:none;stroke-dashoffset:0;stroke-opacity:1" />
  <g
     id="g28323"
     transform="translate(-84.236201,-49.775936)">
    <polygon
       transform="translate(91.753033,708.0697)"
       style="fill:none;stroke:#000000;stroke-width:0.90000075"
       points="283.4648,283.4648 223.22853,283.4648 223.22853,269.29156 162.99226,269.29156 162.99226,283.4648 120.47254,283.4648 120.47254,269.29156 60.23627,269.29156 60.23627,283.4648 0,283.4648 0,223.22853 14.17324,223.22853 14.17324,162.99226 0,162.99226 0,120.47254 14.17324,120.47254 14.17324,60.23627 0,60.23627 0,0 60.23627,0 60.23627,14.17324 120.47254,14.17324 120.47254,0 162.99226,0 162.99226,14.17324 223.22853,14.17324 223.22853,0 283.4648,0 283.4648,60.23627 269.29156,60.23627 269.29156,120.47254 283.4648,120.47254 283.4648,162.99226 269.29156,162.99226 269.29156,223.22853 283.4648,223.22853 "
       id="polygon28199" />
    <text
       xml:space="preserve"
       style="font-style:normal;font-variant:normal;font-weight:normal;font-stretch:normal;font-size:105.36476898px;line-height:125%;font-family:Minecrafter;-inkscape-font-specification:'Minecrafter, Normal';text-align:start;letter-spacing:0px;word-spacing:0px;writing-mode:lr-tb;text-anchor:start;fill:#ff0000;fill-opacity:1;stroke:none;stroke-width:1px;stroke-linecap:butt;stroke-linejoin:miter;stroke-opacity:1"
       x="33.48053"
       y="183.48538"
       id="text28201"
       sodipodi:linespacing="125%"
       transform="translate(91.303032,707.61971)"><tspan
         sodipodi:role="line"
         id="tspan28203"
         x="33.48053"
         y="183.48538">tnt</tspan></text>
    <text
       xml:space="preserve"
       style="font-style:normal;font-variant:normal;font-weight:normal;font-stretch:normal;font-size:19.375px;line-height:125%;font-family:Minecrafter;-inkscape-font-specification:'Minecrafter, Normal';text-align:start;letter-spacing:0px;word-spacing:0px;writing-mode:lr-tb;text-anchor:start;fill:#ff0000;fill-opacity:1;stroke:none;stroke-width:1px;stroke-linecap:butt;stroke-linejoin:miter;stroke-opacity:1"
       x="107.88647"
       y="977.92902"
       id="text28235"
       sodipodi:linespacing="125%"><tspan
         sodipodi:role="line"
         id="tspan28237"
         x="107.88647"
         y="977.92902">1</tspan></text>
  </g>
  <text
     sodipodi:linespacing="125%"
     id="text28255"
     y="928.90063"
     x="622.70007"
     style="font-style:normal;font-variant:normal;font-weight:normal;font-stretch:normal;font-size:19.375px;line-height:125%;font-family:Minecrafter;-inkscape-font-specification:'Minecrafter, Normal';text-align:start;letter-spacing:0px;word-spacing:0px;writing-mode:lr-tb;text-anchor:start;fill:#ff0000;fill-opacity:1;stroke:none;stroke-width:1px;stroke-linecap:butt;stroke-linejoin:miter;stroke-opacity:1"
     xml:space="preserve"><tspan
       y="928.90063"
       x="622.70007"
       id="tspan28257"
       sodipodi:role="line">6</tspan></text>
  <g
     id="g28299"
     transform="translate(512.29391,-703.2306)">
    <g
       transform="translate(375.21791,708.07034)"
       id="g28231">
      <polygon
         style="fill:none;stroke:#000000;stroke-width:0.90000075"
         points="269.29156,60.23627 269.29156,120.47254 283.4648,120.47254 283.4648,162.99226 269.29156,162.99226 269.29156,223.22853 283.4648,223.22853 283.4648,283.4648 223.22853,283.4648 223.22853,269.29156 162.99226,269.29156 162.99226,283.4648 120.47254,283.4648 120.47254,269.29156 60.23627,269.29156 60.23627,283.4648 0,283.4648 0,223.22853 14.17324,223.22853 14.17324,162.99226 0,162.99226 0,120.47254 14.17324,120.47254 14.17324,60.23627 0,60.23627 0,0 60.23627,0 60.23627,14.17324 120.47254,14.17324 120.47254,0 162.99226,0 162.99226,14.17324 223.22853,14.17324 223.22853,0 283.4648,0 283.4648,60.23627 "
         id="polygon28233" />
    </g>
    <text
       xml:space="preserve"
       style="font-style:normal;font-variant:normal;font-weight:normal;font-stretch:normal;font-size:19.375px;line-height:125%;font-family:Minecrafter;-inkscape-font-specification:'Minecrafter, Normal';text-align:start;letter-spacing:0px;word-spacing:0px;writing-mode:lr-tb;text-anchor:start;fill:#ff0000;fill-opacity:1;stroke:none;stroke-width:1px;stroke-linecap:butt;stroke-linejoin:miter;stroke-opacity:1"
       x="399.75351"
       y="961.34564"
       id="text28239"
       sodipodi:linespacing="125%"><tspan
         sodipodi:role="line"
         id="tspan28241"
         x="399.75351"
         y="961.34564">2</tspan></text>
    <text
       xml:space="preserve"
       style="font-style:normal;font-variant:normal;font-weight:normal;font-stretch:normal;font-size:19.375px;line-height:125%;font-family:Minecrafter;-inkscape-font-specification:'Minecrafter, Normal';text-align:start;letter-spacing:0px;word-spacing:0px;writing-mode:lr-tb;text-anchor:start;fill:#ff0000;fill-opacity:1;stroke:none;stroke-width:1px;stroke-linecap:butt;stroke-linejoin:miter;stroke-opacity:1"
       x="480.10883"
       y="942.802"
       id="text28259"
       sodipodi:linespacing="125%"><tspan
         sodipodi:role="line"
         id="tspan28261"
         x="480.10883"
         y="942.802">buzzer</tspan></text>
    <text
       sodipodi:linespacing="125%"
       id="text28263"
       y="771.99347"
       x="497.46436"
       style="font-style:normal;font-variant:normal;font-weight:normal;font-stretch:normal;font-size:19.375px;line-height:125%;font-family:Minecrafter;-inkscape-font-specification:'Minecrafter, Normal';text-align:start;letter-spacing:0px;word-spacing:0px;writing-mode:lr-tb;text-anchor:start;fill:#ff0000;fill-opacity:1;stroke:none;stroke-width:1px;stroke-linecap:butt;stroke-linejoin:miter;stroke-opacity:1"
       xml:space="preserve"><tspan
         y="771.99347"
         x="497.46436"
         id="tspan28265"
         sodipodi:role="line">led</tspan></text>
    <g
       id="g28267"
       transform="translate(93.41528,673.11135)">
      <circle
         style="fill:none;fill-opacity:1;stroke:#000000;stroke-width:1.75219631;stroke-miterlimit:4;stroke-dasharray:none;stroke-dashoffset:0;stroke-opacity:1"
         id="circle28269"
         cx="425.2923"
         cy="142.1824"
         r="18.612108" />
      <text
         sodipodi:linespacing="125%"
         id="text28271"
         y="148.25601"
         x="382.24634"
         style="font-style:normal;font-variant:normal;font-weight:normal;font-stretch:normal;font-size:19.375px;line-height:125%;font-family:Minecrafter;-inkscape-font-specification:'Minecrafter, Normal';text-align:start;letter-spacing:0px;word-spacing:0px;writing-mode:lr-tb;text-anchor:start;fill:#000000;fill-opacity:1;stroke:none;stroke-width:1px;stroke-linecap:butt;stroke-linejoin:miter;stroke-opacity:1"
         xml:space="preserve"><tspan
           y="148.25601"
           x="382.24634"
           id="tspan28273"
           sodipodi:role="line">+</tspan></text>
      <text
         xml:space="preserve"
         style="font-style:normal;font-variant:normal;font-weight:normal;font-stretch:normal;font-size:19.375px;line-height:125%;font-family:Minecrafter;-inkscape-font-specification:'Minecrafter, Normal';text-align:start;letter-spacing:0px;word-spacing:0px;writing-mode:lr-tb;text-anchor:start;fill:#000000;fill-opacity:1;stroke:none;stroke-width:1px;stroke-linecap:butt;stroke-linejoin:miter;stroke-opacity:1"
         x="456.72559"
         y="147.48972"
         id="text28275"
         sodipodi:linespacing="125%"><tspan
           sodipodi:role="line"
           id="tspan28277"
           x="456.72559"
           y="147.48972">-</tspan></text>
    </g>
    <circle
       cy="881.74268"
       cx="517.37024"
       id="circle28279"
       style="fill:none;fill-opacity:1;stroke:#000000;stroke-width:1.98316741;stroke-miterlimit:4;stroke-dasharray:none;stroke-dashoffset:0;stroke-opacity:1"
       r="21.065523" />
    <text
       sodipodi:linespacing="125%"
       id="text28281"
       y="887.37335"
       x="475.66159"
       style="font-style:normal;font-variant:normal;font-weight:normal;font-stretch:normal;font-size:19.375px;line-height:125%;font-family:Minecrafter;-inkscape-font-specification:'Minecrafter, Normal';text-align:start;letter-spacing:0px;word-spacing:0px;writing-mode:lr-tb;text-anchor:start;fill:#000000;fill-opacity:1;stroke:none;stroke-width:1px;stroke-linecap:butt;stroke-linejoin:miter;stroke-opacity:1"
       xml:space="preserve"><tspan
         y="887.37335"
         x="475.66159"
         id="tspan28283"
         sodipodi:role="line">+</tspan></text>
    <text
       xml:space="preserve"
       style="font-style:normal;font-variant:normal;font-weight:normal;font-stretch:normal;font-size:19.375px;line-height:125%;font-family:Minecrafter;-inkscape-font-specification:'Minecrafter, Normal';text-align:start;letter-spacing:0px;word-spacing:0px;writing-mode:lr-tb;text-anchor:start;fill:#000000;fill-opacity:1;stroke:none;stroke-width:1px;stroke-linecap:butt;stroke-linejoin:miter;stroke-opacity:1"
       x="550.14087"
       y="886.60706"
       id="text28285"
       sodipodi:linespacing="125%"><tspan
         sodipodi:role="line"
         id="tspan28287"
         x="550.14087"
         y="886.60706">-</tspan></text>
  </g>
  <rect
     ry="0"
     y="711.15308"
     x="787.76019"
     height="40.679207"
     width="49.650803"
     id="rect28289"
     style="fill:none;fill-opacity:1;stroke:#000000;stroke-width:0.70732313;stroke-miterlimit:4;stroke-dasharray:none;stroke-dashoffset:0;stroke-opacity:1" />
  <text
     sodipodi:linespacing="125%"
     id="text28291"
     y="706.42078"
     x="770.53271"
     style="font-style:normal;font-variant:normal;font-weight:normal;font-stretch:normal;font-size:16.17099571px;line-height:125%;font-family:Minecrafter;-inkscape-font-specification:'Minecrafter, Normal';text-align:start;letter-spacing:0px;word-spacing:0px;writing-mode:lr-tb;text-anchor:start;fill:#ff0000;fill-opacity:1;stroke:none;stroke-width:1px;stroke-linecap:butt;stroke-linejoin:miter;stroke-opacity:1"
     xml:space="preserve"><tspan
       y="706.42078"
       x="770.53271"
       id="tspan28293"
       sodipodi:role="line">off</tspan></text>
  <text
     inkscape:transform-center-y="-0.58631011"
     inkscape:transform-center-x="-10.553582"
     xml:space="preserve"
     style="font-style:normal;font-variant:normal;font-weight:normal;font-stretch:normal;font-size:16.17099571px;line-height:125%;font-family:Minecrafter;-inkscape-font-specification:'Minecrafter, Normal';text-align:start;letter-spacing:0px;word-spacing:0px;writing-mode:lr-tb;text-anchor:start;fill:#ff0000;fill-opacity:1;stroke:none;stroke-width:1px;stroke-linecap:butt;stroke-linejoin:miter;stroke-opacity:1"
     x="824.80536"
     y="706.42078"
     id="text28295"
     sodipodi:linespacing="125%"><tspan
       sodipodi:role="line"
       id="tspan28297"
       x="824.80536"
       y="706.42078">ON</tspan></text>
  <g
     id="g28367"
     transform="translate(603.06249,351.01768)">
    <g
       id="g28369"
       transform="translate(283.9148,283.91481)">
      <polygon
         id="polygon28371"
         points="0,162.99226 14.17324,162.99226 14.17324,120.47254 0,120.47254 0,60.23627 14.17324,60.23627 14.17324,14.17324 60.23627,14.17324 60.23627,0 120.47254,0 120.47254,14.17324 162.99226,14.17324 162.99226,0 223.22853,0 223.22853,14.17324 269.29156,14.17324 269.29156,60.23627 283.4648,60.23627 283.4648,120.47254 269.29156,120.47254 269.29156,162.99226 283.4648,162.99226 283.4648,223.22853 269.29156,223.22853 269.29156,269.29156 223.22853,269.29156 223.22853,283.4648 162.99226,283.4648 162.99226,269.29156 120.47254,269.29156 120.47254,283.4648 60.23627,283.4648 60.23627,269.29156 14.17324,269.29156 14.17324,223.22853 0,223.22853 "
         style="fill:none;stroke:#000000;stroke-width:0.90000075" />
    </g>
    <path
       style="color:#000000;font-style:normal;font-variant:normal;font-weight:normal;font-stretch:normal;font-size:medium;line-height:normal;font-family:sans-serif;text-indent:0;text-align:start;text-decoration:none;text-decoration-line:none;text-decoration-style:solid;text-decoration-color:#000000;letter-spacing:normal;word-spacing:normal;text-transform:none;direction:ltr;block-progression:tb;writing-mode:lr-tb;baseline-shift:baseline;text-anchor:start;white-space:normal;clip-rule:nonzero;display:inline;overflow:visible;visibility:visible;opacity:1;isolation:auto;mix-blend-mode:normal;color-interpolation:sRGB;color-interpolation-filters:linearRGB;solid-color:#000000;solid-opacity:1;fill:#ff0000;fill-opacity:1;fill-rule:nonzero;stroke:none;stroke-width:1.19034266;stroke-linecap:butt;stroke-linejoin:miter;stroke-miterlimit:4;stroke-dasharray:none;stroke-dashoffset:0;stroke-opacity:1;color-rendering:auto;image-rendering:auto;shape-rendering:auto;text-rendering:auto;enable-background:accumulate"
       d="m 515.05859,298.70117 c -6.58723,0 -11.9082,5.32293 -11.9082,11.91016 l 0,64.76367 c 0,6.58723 5.32097,11.91016 11.9082,11.91016 l 25.78907,0 c 6.58723,0 11.9082,-5.32293 11.9082,-11.91016 l 0,-64.76367 c 0,-6.58723 -5.32097,-11.91016 -11.9082,-11.91016 l -25.78907,0 z m 0,1.19141 25.78907,0 c 5.94837,0 10.71875,4.77038 10.71875,10.71875 l 0,64.76367 c 0,5.94837 -4.77038,10.71875 -10.71875,10.71875 l -25.78907,0 c -5.94837,0 -10.71875,-4.77038 -10.71875,-10.71875 l 0,-64.76367 c 0,-5.94837 4.77038,-10.71875 10.71875,-10.71875 z"
       id="rect28373"
       inkscape:connector-curvature="0" />
  </g>
  <text
     xml:space="preserve"
     style="font-style:normal;font-variant:normal;font-weight:normal;font-stretch:normal;font-size:19.375px;line-height:125%;font-family:Minecrafter;-inkscape-font-specification:'Minecrafter, Normal';text-align:start;letter-spacing:0px;word-spacing:0px;writing-mode:lr-tb;text-anchor:start;fill:#ff0000;fill-opacity:1;stroke:none;stroke-width:1px;stroke-linecap:butt;stroke-linejoin:miter;stroke-opacity:1"
     x="994.61786"
     y="784.25989"
     id="text28375"
     sodipodi:linespacing="125%"><tspan
       sodipodi:role="line"
       id="tspan28377"
       x="994.61786"
       y="784.25989">unten</tspan></text>
  <text
     xml:space="preserve"
     style="font-style:normal;font-variant:normal;font-weight:normal;font-stretch:normal;font-size:19.375px;line-height:125%;font-family:Minecrafter;-inkscape-font-specification:'Minecrafter, Normal';text-align:start;letter-spacing:0px;word-spacing:0px;writing-mode:lr-tb;text-anchor:start;fill:#ff0000;fill-opacity:1;stroke:none;stroke-width:1px;stroke-linecap:butt;stroke-linejoin:miter;stroke-opacity:1"
     x="921.12018"
     y="891.0022"
     id="text28379"
     sodipodi:linespacing="125%"><tspan
       sodipodi:role="line"
       id="tspan28381"
       x="921.12018"
       y="891.0022">5</tspan></text>
  <g
     transform="translate(810.11386,-705.93806)"
     id="g28431">
    <g
       id="g28433"
       transform="translate(375.21791,708.07034)">
      <polygon
         id="polygon28435"
         points="283.4648,162.99226 269.29156,162.99226 269.29156,223.22853 283.4648,223.22853 283.4648,283.4648 223.22853,283.4648 223.22853,269.29156 162.99226,269.29156 162.99226,283.4648 120.47254,283.4648 120.47254,269.29156 60.23627,269.29156 60.23627,283.4648 0,283.4648 0,223.22853 14.17324,223.22853 14.17324,162.99226 0,162.99226 0,120.47254 14.17324,120.47254 14.17324,60.23627 0,60.23627 0,0 60.23627,0 60.23627,14.17324 120.47254,14.17324 120.47254,0 162.99226,0 162.99226,14.17324 223.22853,14.17324 223.22853,0 283.4648,0 283.4648,60.23627 269.29156,60.23627 269.29156,120.47254 283.4648,120.47254 "
         style="fill:none;stroke:#000000;stroke-width:0.90000075" />
    </g>
    <text
       sodipodi:linespacing="125%"
       id="text28437"
       y="961.34564"
       x="399.75351"
       style="font-style:normal;font-variant:normal;font-weight:normal;font-stretch:normal;font-size:19.375px;line-height:125%;font-family:Minecrafter;-inkscape-font-specification:'Minecrafter, Normal';text-align:start;letter-spacing:0px;word-spacing:0px;writing-mode:lr-tb;text-anchor:start;fill:#ff0000;fill-opacity:1;stroke:none;stroke-width:1px;stroke-linecap:butt;stroke-linejoin:miter;stroke-opacity:1"
       xml:space="preserve"><tspan
         y="961.34564"
         x="399.75351"
         id="tspan28439"
         sodipodi:role="line">2</tspan></text>
    <text
       sodipodi:linespacing="125%"
       id="text28441"
       y="942.802"
       x="480.10883"
       style="font-style:normal;font-variant:normal;font-weight:normal;font-stretch:normal;font-size:19.375px;line-height:125%;font-family:Minecrafter;-inkscape-font-specification:'Minecrafter, Normal';text-align:start;letter-spacing:0px;word-spacing:0px;writing-mode:lr-tb;text-anchor:start;fill:#ff0000;fill-opacity:1;stroke:none;stroke-width:1px;stroke-linecap:butt;stroke-linejoin:miter;stroke-opacity:1"
       xml:space="preserve"><tspan
         y="942.802"
         x="480.10883"
         id="tspan28443"
         sodipodi:role="line">buzzer</tspan></text>
    <text
       xml:space="preserve"
       style="font-style:normal;font-variant:normal;font-weight:normal;font-stretch:normal;font-size:19.375px;line-height:125%;font-family:Minecrafter;-inkscape-font-specification:'Minecrafter, Normal';text-align:start;letter-spacing:0px;word-spacing:0px;writing-mode:lr-tb;text-anchor:start;fill:#ff0000;fill-opacity:1;stroke:none;stroke-width:1px;stroke-linecap:butt;stroke-linejoin:miter;stroke-opacity:1"
       x="497.46436"
       y="771.99347"
       id="text28445"
       sodipodi:linespacing="125%"><tspan
         sodipodi:role="line"
         id="tspan28447"
         x="497.46436"
         y="771.99347">led</tspan></text>
    <g
       transform="translate(93.41528,673.11135)"
       id="g28449">
      <circle
         r="18.612108"
         cy="142.1824"
         cx="425.2923"
         id="circle28451"
         style="fill:none;fill-opacity:1;stroke:#000000;stroke-width:1.75219631;stroke-miterlimit:4;stroke-dasharray:none;stroke-dashoffset:0;stroke-opacity:1" />
      <text
         xml:space="preserve"
         style="font-style:normal;font-variant:normal;font-weight:normal;font-stretch:normal;font-size:19.375px;line-height:125%;font-family:Minecrafter;-inkscape-font-specification:'Minecrafter, Normal';text-align:start;letter-spacing:0px;word-spacing:0px;writing-mode:lr-tb;text-anchor:start;fill:#000000;fill-opacity:1;stroke:none;stroke-width:1px;stroke-linecap:butt;stroke-linejoin:miter;stroke-opacity:1"
         x="382.24634"
         y="148.25601"
         id="text28453"
         sodipodi:linespacing="125%"><tspan
           sodipodi:role="line"
           id="tspan28455"
           x="382.24634"
           y="148.25601">+</tspan></text>
      <text
         sodipodi:linespacing="125%"
         id="text28457"
         y="147.48972"
         x="456.72559"
         style="font-style:normal;font-variant:normal;font-weight:normal;font-stretch:normal;font-size:19.375px;line-height:125%;font-family:Minecrafter;-inkscape-font-specification:'Minecrafter, Normal';text-align:start;letter-spacing:0px;word-spacing:0px;writing-mode:lr-tb;text-anchor:start;fill:#000000;fill-opacity:1;stroke:none;stroke-width:1px;stroke-linecap:butt;stroke-linejoin:miter;stroke-opacity:1"
         xml:space="preserve"><tspan
           y="147.48972"
           x="456.72559"
           id="tspan28459"
           sodipodi:role="line">-</tspan></text>
    </g>
    <circle
       r="21.065523"
       style="fill:none;fill-opacity:1;stroke:#000000;stroke-width:1.98316741;stroke-miterlimit:4;stroke-dasharray:none;stroke-dashoffset:0;stroke-opacity:1"
       id="circle28461"
       cx="517.37024"
       cy="881.74268" />
    <text
       xml:space="preserve"
       style="font-style:normal;font-variant:normal;font-weight:normal;font-stretch:normal;font-size:19.375px;line-height:125%;font-family:Minecrafter;-inkscape-font-specification:'Minecrafter, Normal';text-align:start;letter-spacing:0px;word-spacing:0px;writing-mode:lr-tb;text-anchor:start;fill:#000000;fill-opacity:1;stroke:none;stroke-width:1px;stroke-linecap:butt;stroke-linejoin:miter;stroke-opacity:1"
       x="475.66159"
       y="887.37335"
       id="text28463"
       sodipodi:linespacing="125%"><tspan
         sodipodi:role="line"
         id="tspan28465"
         x="475.66159"
         y="887.37335">+</tspan></text>
    <text
       sodipodi:linespacing="125%"
       id="text28467"
       y="886.60706"
       x="550.14087"
       style="font-style:normal;font-variant:normal;font-weight:normal;font-stretch:normal;font-size:19.375px;line-height:125%;font-family:Minecrafter;-inkscape-font-specification:'Minecrafter, Normal';text-align:start;letter-spacing:0px;word-spacing:0px;writing-mode:lr-tb;text-anchor:start;fill:#000000;fill-opacity:1;stroke:none;stroke-width:1px;stroke-linecap:butt;stroke-linejoin:miter;stroke-opacity:1"
       xml:space="preserve"><tspan
         y="886.60706"
         x="550.14087"
         id="tspan28469"
         sodipodi:role="line">-</tspan></text>
  </g>
  <g
     id="g28481">
    <text
       xml:space="preserve"
       style="font-style:normal;font-variant:normal;font-weight:normal;font-stretch:normal;font-size:19.375px;line-height:125%;font-family:Minecrafter;-inkscape-font-specification:'Minecrafter, Normal';text-align:start;letter-spacing:0px;word-spacing:0px;writing-mode:lr-tb;text-anchor:start;fill:#ff0000;fill-opacity:1;stroke:none;stroke-width:1px;stroke-linecap:butt;stroke-linejoin:miter;stroke-opacity:1"
       x="922.25244"
       y="549.71631"
       id="text28247"
       sodipodi:linespacing="125%"><tspan
         sodipodi:role="line"
         id="tspan28249"
         x="922.25244"
         y="549.71631">4</tspan></text>
    <g
       id="g28471"
       transform="translate(886.40243,6.5861344)">
      <g
         id="g28473">
        <polygon
           id="polygon28475"
           points="269.29156,60.23627 283.4648,60.23627 283.4648,120.47254 269.29156,120.47254 269.29156,162.99226 283.4648,162.99226 283.4648,223.22853 269.29156,223.22853 269.29156,269.29156 223.22853,269.29156 223.22853,283.4648 162.99226,283.4648 162.99226,269.29156 120.47254,269.29156 120.47254,283.4648 60.23627,283.4648 60.23627,269.29156 14.17324,269.29156 14.17324,223.22853 0,223.22853 0,162.99226 14.17324,162.99226 14.17324,120.47254 0,120.47254 0,60.23627 14.17324,60.23627 14.17324,14.17324 60.23627,14.17324 60.23627,0 120.47254,0 120.47254,14.17324 162.99226,14.17324 162.99226,0 223.22853,0 223.22853,14.17324 269.29156,14.17324 "
           style="fill:none;stroke:#000000;stroke-width:0.90000075"
           transform="translate(0.4499996,283.91456)" />
        <circle
           id="circle28477"
           style="fill:none;stroke:#000000;stroke-width:0.90000075"
           r="49.25201"
           cy="141.73241"
           cx="141.73241"
           transform="translate(0.4499996,283.91456)" />
      </g>
      <g
         id="g28479" />
    </g>
  </g>
  <g
     id="g28490"
     transform="translate(297.81994,-2.7074539)">
    <text
       sodipodi:linespacing="125%"
       id="text28492"
       y="549.71631"
       x="922.25244"
       style="font-style:normal;font-variant:normal;font-weight:normal;font-stretch:normal;font-size:19.375px;line-height:125%;font-family:Minecrafter;-inkscape-font-specification:'Minecrafter, Normal';text-align:start;letter-spacing:0px;word-spacing:0px;writing-mode:lr-tb;text-anchor:start;fill:#ff0000;fill-opacity:1;stroke:none;stroke-width:1px;stroke-linecap:butt;stroke-linejoin:miter;stroke-opacity:1"
       xml:space="preserve"><tspan
         y="549.71631"
         x="922.25244"
         id="tspan28494"
         sodipodi:role="line">4</tspan></text>
    <g
       transform="translate(886.40243,6.5861344)"
       id="g28496">
      <g
         id="g28498">
        <polygon
           transform="translate(0.4499996,283.91456)"
           style="fill:none;stroke:#000000;stroke-width:0.90000075"
           points="283.4648,120.47254 269.29156,120.47254 269.29156,162.99226 283.4648,162.99226 283.4648,223.22853 269.29156,223.22853 269.29156,269.29156 223.22853,269.29156 223.22853,283.4648 162.99226,283.4648 162.99226,269.29156 120.47254,269.29156 120.47254,283.4648 60.23627,283.4648 60.23627,269.29156 14.17324,269.29156 14.17324,223.22853 0,223.22853 0,162.99226 14.17324,162.99226 14.17324,120.47254 0,120.47254 0,60.23627 14.17324,60.23627 14.17324,14.17324 60.23627,14.17324 60.23627,0 120.47254,0 120.47254,14.17324 162.99226,14.17324 162.99226,0 223.22853,0 223.22853,14.17324 269.29156,14.17324 269.29156,60.23627 283.4648,60.23627 "
           id="polygon28500" />
        <circle
           transform="translate(0.4499996,283.91456)"
           cx="141.73241"
           cy="141.73241"
           r="49.25201"
           style="fill:none;stroke:#000000;stroke-width:0.90000075"
           id="circle28502" />
      </g>
      <g
         id="g28504" />
    </g>
  </g>
  <g
     transform="translate(-77.931071,-42.611813)"
     id="g28506">
    <g
       id="g28508"
       transform="translate(375.21791,708.07034)">
      <polygon
         id="polygon28510"
         points="269.29156,120.47254 283.4648,120.47254 283.4648,162.99226 269.29156,162.99226 269.29156,223.22853 283.4648,223.22853 283.4648,283.4648 223.22853,283.4648 223.22853,269.29156 162.99226,269.29156 162.99226,283.4648 120.47254,283.4648 120.47254,269.29156 60.23627,269.29156 60.23627,283.4648 0,283.4648 0,223.22853 14.17324,223.22853 14.17324,162.99226 0,162.99226 0,120.47254 14.17324,120.47254 14.17324,60.23627 0,60.23627 0,0 60.23627,0 60.23627,14.17324 120.47254,14.17324 120.47254,0 162.99226,0 162.99226,14.17324 223.22853,14.17324 223.22853,0 283.4648,0 283.4648,60.23627 269.29156,60.23627 "
         style="fill:none;stroke:#000000;stroke-width:0.90000075" />
    </g>
    <text
       sodipodi:linespacing="125%"
       id="text28512"
       y="961.34564"
       x="399.75351"
       style="font-style:normal;font-variant:normal;font-weight:normal;font-stretch:normal;font-size:19.375px;line-height:125%;font-family:Minecrafter;-inkscape-font-specification:'Minecrafter, Normal';text-align:start;letter-spacing:0px;word-spacing:0px;writing-mode:lr-tb;text-anchor:start;fill:#ff0000;fill-opacity:1;stroke:none;stroke-width:1px;stroke-linecap:butt;stroke-linejoin:miter;stroke-opacity:1"
       xml:space="preserve"><tspan
         y="961.34564"
         x="399.75351"
         id="tspan28514"
         sodipodi:role="line">2</tspan></text>
    <text
       sodipodi:linespacing="125%"
       id="text28516"
       y="942.802"
       x="480.10883"
       style="font-style:normal;font-variant:normal;font-weight:normal;font-stretch:normal;font-size:19.375px;line-height:125%;font-family:Minecrafter;-inkscape-font-specification:'Minecrafter, Normal';text-align:start;letter-spacing:0px;word-spacing:0px;writing-mode:lr-tb;text-anchor:start;fill:#ff0000;fill-opacity:1;stroke:none;stroke-width:1px;stroke-linecap:butt;stroke-linejoin:miter;stroke-opacity:1"
       xml:space="preserve"><tspan
         y="942.802"
         x="480.10883"
         id="tspan28518"
         sodipodi:role="line">buzzer</tspan></text>
    <text
       xml:space="preserve"
       style="font-style:normal;font-variant:normal;font-weight:normal;font-stretch:normal;font-size:19.375px;line-height:125%;font-family:Minecrafter;-inkscape-font-specification:'Minecrafter, Normal';text-align:start;letter-spacing:0px;word-spacing:0px;writing-mode:lr-tb;text-anchor:start;fill:#ff0000;fill-opacity:1;stroke:none;stroke-width:1px;stroke-linecap:butt;stroke-linejoin:miter;stroke-opacity:1"
       x="497.46436"
       y="771.99347"
       id="text28520"
       sodipodi:linespacing="125%"><tspan
         sodipodi:role="line"
         id="tspan28522"
         x="497.46436"
         y="771.99347">led</tspan></text>
    <g
       transform="translate(93.41528,673.11135)"
       id="g28524">
      <circle
         r="18.612108"
         cy="142.1824"
         cx="425.2923"
         id="circle28526"
         style="fill:none;fill-opacity:1;stroke:#000000;stroke-width:1.75219631;stroke-miterlimit:4;stroke-dasharray:none;stroke-dashoffset:0;stroke-opacity:1" />
      <text
         xml:space="preserve"
         style="font-style:normal;font-variant:normal;font-weight:normal;font-stretch:normal;font-size:19.375px;line-height:125%;font-family:Minecrafter;-inkscape-font-specification:'Minecrafter, Normal';text-align:start;letter-spacing:0px;word-spacing:0px;writing-mode:lr-tb;text-anchor:start;fill:#000000;fill-opacity:1;stroke:none;stroke-width:1px;stroke-linecap:butt;stroke-linejoin:miter;stroke-opacity:1"
         x="382.24634"
         y="148.25601"
         id="text28528"
         sodipodi:linespacing="125%"><tspan
           sodipodi:role="line"
           id="tspan28530"
           x="382.24634"
           y="148.25601">+</tspan></text>
      <text
         sodipodi:linespacing="125%"
         id="text28532"
         y="147.48972"
         x="456.72559"
         style="font-style:normal;font-variant:normal;font-weight:normal;font-stretch:normal;font-size:19.375px;line-height:125%;font-family:Minecrafter;-inkscape-font-specification:'Minecrafter, Normal';text-align:start;letter-spacing:0px;word-spacing:0px;writing-mode:lr-tb;text-anchor:start;fill:#000000;fill-opacity:1;stroke:none;stroke-width:1px;stroke-linecap:butt;stroke-linejoin:miter;stroke-opacity:1"
         xml:space="preserve"><tspan
           y="147.48972"
           x="456.72559"
           id="tspan28534"
           sodipodi:role="line">-</tspan></text>
    </g>
    <circle
       r="21.065523"
       style="fill:none;fill-opacity:1;stroke:#000000;stroke-width:1.98316741;stroke-miterlimit:4;stroke-dasharray:none;stroke-dashoffset:0;stroke-opacity:1"
       id="circle28536"
       cx="517.37024"
       cy="881.74268" />
    <text
       xml:space="preserve"
       style="font-style:normal;font-variant:normal;font-weight:normal;font-stretch:normal;font-size:19.375px;line-height:125%;font-family:Minecrafter;-inkscape-font-specification:'Minecrafter, Normal';text-align:start;letter-spacing:0px;word-spacing:0px;writing-mode:lr-tb;text-anchor:start;fill:#000000;fill-opacity:1;stroke:none;stroke-width:1px;stroke-linecap:butt;stroke-linejoin:miter;stroke-opacity:1"
       x="475.66159"
       y="887.37335"
       id="text28538"
       sodipodi:linespacing="125%"><tspan
         sodipodi:role="line"
         id="tspan28540"
         x="475.66159"
         y="887.37335">+</tspan></text>
    <text
       sodipodi:linespacing="125%"
       id="text28542"
       y="886.60706"
       x="550.14087"
       style="font-style:normal;font-variant:normal;font-weight:normal;font-stretch:normal;font-size:19.375px;line-height:125%;font-family:Minecrafter;-inkscape-font-specification:'Minecrafter, Normal';text-align:start;letter-spacing:0px;word-spacing:0px;writing-mode:lr-tb;text-anchor:start;fill:#000000;fill-opacity:1;stroke:none;stroke-width:1px;stroke-linecap:butt;stroke-linejoin:miter;stroke-opacity:1"
       xml:space="preserve"><tspan
         y="886.60706"
         x="550.14087"
         id="tspan28544"
         sodipodi:role="line">-</tspan></text>
  </g>
  <g
     transform="translate(303.23485,324.89449)"
     id="g28580">
    <text
       xml:space="preserve"
       style="font-style:normal;font-variant:normal;font-weight:normal;font-stretch:normal;font-size:19.375px;line-height:125%;font-family:Minecrafter;-inkscape-font-specification:'Minecrafter, Normal';text-align:start;letter-spacing:0px;word-spacing:0px;writing-mode:lr-tb;text-anchor:start;fill:#ff0000;fill-opacity:1;stroke:none;stroke-width:1px;stroke-linecap:butt;stroke-linejoin:miter;stroke-opacity:1"
       x="922.25244"
       y="549.71631"
       id="text28582"
       sodipodi:linespacing="125%"><tspan
         sodipodi:role="line"
         id="tspan28584"
         x="922.25244"
         y="549.71631">4</tspan></text>
    <g
       id="g28586"
       transform="translate(886.40243,6.5861344)">
      <g
         id="g28588">
        <polygon
           id="polygon28590"
           points="269.29156,120.47254 269.29156,162.99226 283.4648,162.99226 283.4648,223.22853 269.29156,223.22853 269.29156,269.29156 223.22853,269.29156 223.22853,283.4648 162.99226,283.4648 162.99226,269.29156 120.47254,269.29156 120.47254,283.4648 60.23627,283.4648 60.23627,269.29156 14.17324,269.29156 14.17324,223.22853 0,223.22853 0,162.99226 14.17324,162.99226 14.17324,120.47254 0,120.47254 0,60.23627 14.17324,60.23627 14.17324,14.17324 60.23627,14.17324 60.23627,0 120.47254,0 120.47254,14.17324 162.99226,14.17324 162.99226,0 223.22853,0 223.22853,14.17324 269.29156,14.17324 269.29156,60.23627 283.4648,60.23627 283.4648,120.47254 "
           style="fill:none;stroke:#000000;stroke-width:0.90000075"
           transform="translate(0.4499996,283.91456)" />
        <circle
           id="circle28592"
           style="fill:none;stroke:#000000;stroke-width:0.90000075"
           r="49.25201"
           cy="141.73241"
           cx="141.73241"
           transform="translate(0.4499996,283.91456)" />
      </g>
      <g
         id="g28594" />
    </g>
  </g>
</svg>
