<?xml version="1.0" encoding="UTF-8" standalone="no"?>
<svg
   xmlns:dc="http://purl.org/dc/elements/1.1/"
   xmlns:cc="http://creativecommons.org/ns#"
   xmlns:rdf="http://www.w3.org/1999/02/22-rdf-syntax-ns#"
   xmlns:svg="http://www.w3.org/2000/svg"
   xmlns="http://www.w3.org/2000/svg"
   xmlns:sodipodi="http://sodipodi.sourceforge.net/DTD/sodipodi-0.dtd"
   xmlns:inkscape="http://www.inkscape.org/namespaces/inkscape"
   id="svg2"
   viewBox="0 0 2125.986 1062.993"
   height="300mm"
   width="600mm"
   version="1.1"
   sodipodi:docname="tnt-button-dubai-4mm.svg"
   inkscape:version="0.92.2 5c3e80d, 2017-08-06">
  <sodipodi:namedview
     pagecolor="#ffffff"
     bordercolor="#666666"
     borderopacity="1"
     objecttolerance="10"
     gridtolerance="10"
     guidetolerance="10"
     inkscape:pageopacity="0"
     inkscape:pageshadow="2"
     inkscape:window-width="1280"
     inkscape:window-height="720"
     id="namedview60"
     showgrid="false"
     inkscape:snap-global="false"
     inkscape:zoom="0.36336111"
     inkscape:cx="909.17831"
     inkscape:cy="492.81267"
     inkscape:window-x="0"
     inkscape:window-y="1"
     inkscape:window-maximized="1"
     inkscape:current-layer="svg2" />
  <metadata
     id="metadata34">
    <rdf:RDF>
      <cc:Work
         rdf:about="">
        <dc:format>image/svg+xml</dc:format>
        <dc:type
           rdf:resource="http://purl.org/dc/dcmitype/StillImage" />
        <dc:title />
      </cc:Work>
    </rdf:RDF>
  </metadata>
  <defs
     id="defs32" />
  <!-- Front-->
  <!-- Back-->
  <!-- Left-->
  <!-- Right-->
  <!-- Top-->
  <!-- Bottom-->
  <g
     id="g4"
     transform="translate(0.45,0.45)" />
  <g
     id="g12"
     transform="translate(567.3796,0.45)" />
  <g
     id="g20"
     transform="translate(9.8250075,283.91481)">
    <polygon
       id="polygon22"
       points="283.4648,162.99226 283.4648,223.22853 269.29156,223.22853 269.29156,269.29156 223.22853,269.29156 223.22853,283.4648 162.99226,283.4648 162.99226,269.29156 120.47254,269.29156 120.47254,283.4648 60.23627,283.4648 60.23627,269.29156 14.17324,269.29156 14.17324,223.22853 0,223.22853 0,162.99226 14.17324,162.99226 14.17324,120.47254 0,120.47254 0,60.23627 14.17324,60.23627 14.17324,14.17324 60.23627,14.17324 60.23627,0 120.47254,0 120.47254,14.17324 162.99226,14.17324 162.99226,0 223.22853,0 223.22853,14.17324 269.29156,14.17324 269.29156,60.23627 283.4648,60.23627 283.4648,120.47254 269.29156,120.47254 269.29156,162.99226 "
       style="fill:none;stroke:#000000;stroke-width:0.90000075" />
    <circle
       id="circle24"
       style="fill:none;stroke:#000000;stroke-width:0.90000075"
       r="49.25201"
       cy="141.73241"
       cx="141.73241" />
  </g>
  <g
     id="g28002"
     transform="translate(9.3750075)">
    <polygon
       transform="translate(0.45000063,0.44999264)"
       style="fill:none;stroke:#000000;stroke-width:0.90000075"
       points="223.22853,283.4648 223.22853,269.29156 162.99226,269.29156 162.99226,283.4648 120.47254,283.4648 120.47254,269.29156 60.23627,269.29156 60.23627,283.4648 0,283.4648 0,223.22853 14.17324,223.22853 14.17324,162.99226 0,162.99226 0,120.47254 14.17324,120.47254 14.17324,60.23627 0,60.23627 0,0 60.23627,0 60.23627,14.17324 120.47254,14.17324 120.47254,0 162.99226,0 162.99226,14.17324 223.22853,14.17324 223.22853,0 283.4648,0 283.4648,60.23627 269.29156,60.23627 269.29156,120.47254 283.4648,120.47254 283.4648,162.99226 269.29156,162.99226 269.29156,223.22853 283.4648,223.22853 283.4648,283.4648 "
       id="polygon6" />
    <text
       xml:space="preserve"
       style="font-style:normal;font-variant:normal;font-weight:normal;font-stretch:normal;font-size:105.36476898px;line-height:125%;font-family:Minecrafter;-inkscape-font-specification:'Minecrafter, Normal';text-align:start;letter-spacing:0px;word-spacing:0px;writing-mode:lr-tb;text-anchor:start;fill:#ff0000;fill-opacity:1;stroke:none;stroke-width:1px;stroke-linecap:butt;stroke-linejoin:miter;stroke-opacity:1"
       x="33.48053"
       y="183.48538"
       id="text4196"><tspan
         id="tspan4198"
         x="33.48053"
         y="183.48538">tnt</tspan></text>
  </g>
  <g
     id="g4284"
     transform="translate(9.3750075)">
    <g
       transform="translate(283.9148,283.91481)"
       id="g26">
      <polygon
         style="fill:none;stroke:#000000;stroke-width:0.90000075"
         points="269.29156,223.22853 269.29156,269.29156 223.22853,269.29156 223.22853,283.4648 162.99226,283.4648 162.99226,269.29156 120.47254,269.29156 120.47254,283.4648 60.23627,283.4648 60.23627,269.29156 14.17324,269.29156 14.17324,223.22853 0,223.22853 0,162.99226 14.17324,162.99226 14.17324,120.47254 0,120.47254 0,60.23627 14.17324,60.23627 14.17324,14.17324 60.23627,14.17324 60.23627,0 120.47254,0 120.47254,14.17324 162.99226,14.17324 162.99226,0 223.22853,0 223.22853,14.17324 269.29156,14.17324 269.29156,60.23627 283.4648,60.23627 283.4648,120.47254 269.29156,120.47254 269.29156,162.99226 283.4648,162.99226 283.4648,223.22853 "
         id="polygon28" />
    </g>
    <path
       id="rect4282"
       d="m 515.05859,298.70117 c -6.58723,0 -11.9082,5.32293 -11.9082,11.91016 V 375.375 c 0,6.58723 5.32097,11.91016 11.9082,11.91016 h 25.78907 c 6.58723,0 11.9082,-5.32293 11.9082,-11.91016 v -64.76367 c 0,-6.58723 -5.32097,-11.91016 -11.9082,-11.91016 z m 0,1.19141 h 25.78907 c 5.94837,0 10.71875,4.77038 10.71875,10.71875 V 375.375 c 0,5.94837 -4.77038,10.71875 -10.71875,10.71875 h -25.78907 c -5.94837,0 -10.71875,-4.77038 -10.71875,-10.71875 v -64.76367 c 0,-5.94837 4.77038,-10.71875 10.71875,-10.71875 z"
       style="color:#000000;font-style:normal;font-variant:normal;font-weight:normal;font-stretch:normal;font-size:medium;line-height:normal;font-family:sans-serif;text-indent:0;text-align:start;text-decoration:none;text-decoration-line:none;text-decoration-style:solid;text-decoration-color:#000000;letter-spacing:normal;word-spacing:normal;text-transform:none;writing-mode:lr-tb;direction:ltr;baseline-shift:baseline;text-anchor:start;white-space:normal;clip-rule:nonzero;display:inline;overflow:visible;visibility:visible;opacity:1;isolation:auto;mix-blend-mode:normal;color-interpolation:sRGB;color-interpolation-filters:linearRGB;solid-color:#000000;solid-opacity:1;fill:#ff0000;fill-opacity:1;fill-rule:nonzero;stroke:none;stroke-width:1.19034266;stroke-linecap:butt;stroke-linejoin:miter;stroke-miterlimit:4;stroke-dasharray:none;stroke-dashoffset:0;stroke-opacity:1;color-rendering:auto;image-rendering:auto;shape-rendering:auto;text-rendering:auto;enable-background:accumulate"
       inkscape:connector-curvature="0" />
  </g>
  <text
     id="text4305"
     y="433.24222"
     x="400.93036"
     style="font-style:normal;font-variant:normal;font-weight:normal;font-stretch:normal;font-size:19.375px;line-height:125%;font-family:Minecrafter;-inkscape-font-specification:'Minecrafter, Normal';text-align:start;letter-spacing:0px;word-spacing:0px;writing-mode:lr-tb;text-anchor:start;fill:#ff0000;fill-opacity:1;stroke:none;stroke-width:1px;stroke-linecap:butt;stroke-linejoin:miter;stroke-opacity:1"
     xml:space="preserve"><tspan
       y="433.24222"
       x="400.93036"
       id="tspan4307">unten</tspan></text>
  <g
     id="g16"
     transform="translate(576.7546,283.91481)">
    <polygon
       id="polygon18"
       points="269.29156,223.22853 269.29156,283.4648 223.22853,283.4648 223.22853,269.29156 162.99226,269.29156 162.99226,283.4648 120.47254,283.4648 120.47254,269.29156 60.23627,269.29156 60.23627,283.4648 14.17324,283.4648 14.17324,223.22853 0,223.22853 0,162.99226 14.17324,162.99226 14.17324,120.47254 0,120.47254 0,60.23627 14.17324,60.23627 14.17324,0 60.23627,0 60.23627,14.17324 120.47254,14.17324 120.47254,0 162.99226,0 162.99226,14.17324 223.22853,14.17324 223.22853,0 269.29156,0 269.29156,60.23627 283.4648,60.23627 283.4648,120.47254 269.29156,120.47254 269.29156,162.99226 283.4648,162.99226 283.4648,223.22853 "
       style="fill:none;stroke:#000000;stroke-width:0.90000075" />
  </g>
  <text
     xml:space="preserve"
     style="font-style:normal;font-variant:normal;font-weight:normal;font-stretch:normal;font-size:19.375px;line-height:125%;font-family:Minecrafter;-inkscape-font-specification:'Minecrafter, Normal';text-align:start;letter-spacing:0px;word-spacing:0px;writing-mode:lr-tb;text-anchor:start;fill:#ff0000;fill-opacity:1;stroke:none;stroke-width:1px;stroke-linecap:butt;stroke-linejoin:miter;stroke-opacity:1"
     x="699.48016"
     y="437.36435"
     id="text4313"><tspan
       id="tspan4315"
       x="699.48016"
       y="437.36435">out</tspan></text>
  <rect
     rx="0"
     y="444.42789"
     x="710.24286"
     height="16.488276"
     width="16.488277"
     id="rect4317"
     style="fill:none;fill-opacity:1;stroke:#000000;stroke-width:1.22827482;stroke-miterlimit:4;stroke-dasharray:none;stroke-dashoffset:0;stroke-opacity:1" />
  <polygon
     id="polygon14"
     points="223.22853,283.4648 223.22853,269.29156 162.99226,269.29156 162.99226,283.4648 120.47254,283.4648 120.47254,269.29156 60.23627,269.29156 60.23627,283.4648 14.17324,283.4648 14.17324,223.22853 0,223.22853 0,162.99226 14.17324,162.99226 14.17324,120.47254 0,120.47254 0,60.23627 14.17324,60.23627 14.17324,0 60.23627,0 60.23627,14.17324 120.47254,14.17324 120.47254,0 162.99226,0 162.99226,14.17324 223.22853,14.17324 223.22853,0 269.29156,0 269.29156,60.23627 283.4648,60.23627 283.4648,120.47254 269.29156,120.47254 269.29156,162.99226 283.4648,162.99226 283.4648,223.22853 269.29156,223.22853 269.29156,283.4648 "
     style="fill:none;stroke:#000000;stroke-width:0.90000075"
     transform="translate(576.75409,0.4499996)" />
  <g
     id="g8"
     transform="translate(293.2898,0.45)">
    <polygon
       id="polygon10"
       points="283.4648,223.22853 283.4648,283.4648 223.22853,283.4648 223.22853,269.29156 162.99226,269.29156 162.99226,283.4648 120.47254,283.4648 120.47254,269.29156 60.23627,269.29156 60.23627,283.4648 0,283.4648 0,223.22853 14.17324,223.22853 14.17324,162.99226 0,162.99226 0,120.47254 14.17324,120.47254 14.17324,60.23627 0,60.23627 0,0 60.23627,0 60.23627,14.17324 120.47254,14.17324 120.47254,0 162.99226,0 162.99226,14.17324 223.22853,14.17324 223.22853,0 283.4648,0 283.4648,60.23627 269.29156,60.23627 269.29156,120.47254 283.4648,120.47254 283.4648,162.99226 269.29156,162.99226 269.29156,223.22853 "
       style="fill:none;stroke:#000000;stroke-width:0.90000075" />
  </g>
  <text
     id="text4556"
     y="270.30865"
     x="25.958366"
     style="font-style:normal;font-variant:normal;font-weight:normal;font-stretch:normal;font-size:19.375px;line-height:125%;font-family:Minecrafter;-inkscape-font-specification:'Minecrafter, Normal';text-align:start;letter-spacing:0px;word-spacing:0px;writing-mode:lr-tb;text-anchor:start;fill:#ff0000;fill-opacity:1;stroke:none;stroke-width:1px;stroke-linecap:butt;stroke-linejoin:miter;stroke-opacity:1"
     xml:space="preserve"><tspan
       y="270.30865"
       x="25.958366"
       id="tspan4558">1</tspan></text>
  <text
     id="text4560"
     y="253.72528"
     x="317.82541"
     style="font-style:normal;font-variant:normal;font-weight:normal;font-stretch:normal;font-size:19.375px;line-height:125%;font-family:Minecrafter;-inkscape-font-specification:'Minecrafter, Normal';text-align:start;letter-spacing:0px;word-spacing:0px;writing-mode:lr-tb;text-anchor:start;fill:#ff0000;fill-opacity:1;stroke:none;stroke-width:1px;stroke-linecap:butt;stroke-linejoin:miter;stroke-opacity:1"
     xml:space="preserve"><tspan
       y="253.72528"
       x="317.82541"
       id="tspan4562">2</tspan></text>
  <text
     id="text4564"
     y="258.70029"
     x="611.35083"
     style="font-style:normal;font-variant:normal;font-weight:normal;font-stretch:normal;font-size:19.375px;line-height:125%;font-family:Minecrafter;-inkscape-font-specification:'Minecrafter, Normal';text-align:start;letter-spacing:0px;word-spacing:0px;writing-mode:lr-tb;text-anchor:start;fill:#ff0000;fill-opacity:1;stroke:none;stroke-width:1px;stroke-linecap:butt;stroke-linejoin:miter;stroke-opacity:1"
     xml:space="preserve"><tspan
       y="258.70029"
       x="611.35083"
       id="tspan4566">3</tspan></text>
  <text
     id="text4568"
     y="538.95898"
     x="39.225044"
     style="font-style:normal;font-variant:normal;font-weight:normal;font-stretch:normal;font-size:19.375px;line-height:125%;font-family:Minecrafter;-inkscape-font-specification:'Minecrafter, Normal';text-align:start;letter-spacing:0px;word-spacing:0px;writing-mode:lr-tb;text-anchor:start;fill:#ff0000;fill-opacity:1;stroke:none;stroke-width:1px;stroke-linecap:butt;stroke-linejoin:miter;stroke-opacity:1"
     xml:space="preserve"><tspan
       y="538.95898"
       x="39.225044"
       id="tspan4570">4</tspan></text>
  <text
     id="text4572"
     y="535.64233"
     x="326.11707"
     style="font-style:normal;font-variant:normal;font-weight:normal;font-stretch:normal;font-size:19.375px;line-height:125%;font-family:Minecrafter;-inkscape-font-specification:'Minecrafter, Normal';text-align:start;letter-spacing:0px;word-spacing:0px;writing-mode:lr-tb;text-anchor:start;fill:#ff0000;fill-opacity:1;stroke:none;stroke-width:1px;stroke-linecap:butt;stroke-linejoin:miter;stroke-opacity:1"
     xml:space="preserve"><tspan
       y="535.64233"
       x="326.11707"
       id="tspan4574">5</tspan></text>
  <text
     id="text4576"
     y="550.56732"
     x="609.6925"
     style="font-style:normal;font-variant:normal;font-weight:normal;font-stretch:normal;font-size:19.375px;line-height:125%;font-family:Minecrafter;-inkscape-font-specification:'Minecrafter, Normal';text-align:start;letter-spacing:0px;word-spacing:0px;writing-mode:lr-tb;text-anchor:start;fill:#ff0000;fill-opacity:1;stroke:none;stroke-width:1px;stroke-linecap:butt;stroke-linejoin:miter;stroke-opacity:1"
     xml:space="preserve"><tspan
       y="550.56732"
       x="609.6925"
       id="tspan4578">6</tspan></text>
  <text
     id="text4297"
     y="235.18169"
     x="398.18073"
     style="font-style:normal;font-variant:normal;font-weight:normal;font-stretch:normal;font-size:19.375px;line-height:125%;font-family:Minecrafter;-inkscape-font-specification:'Minecrafter, Normal';text-align:start;letter-spacing:0px;word-spacing:0px;writing-mode:lr-tb;text-anchor:start;fill:#ff0000;fill-opacity:1;stroke:none;stroke-width:1px;stroke-linecap:butt;stroke-linejoin:miter;stroke-opacity:1"
     xml:space="preserve"><tspan
       y="235.18169"
       x="398.18073"
       id="tspan4299">buzzer</tspan></text>
  <text
     xml:space="preserve"
     style="font-style:normal;font-variant:normal;font-weight:normal;font-stretch:normal;font-size:19.375px;line-height:125%;font-family:Minecrafter;-inkscape-font-specification:'Minecrafter, Normal';text-align:start;letter-spacing:0px;word-spacing:0px;writing-mode:lr-tb;text-anchor:start;fill:#ff0000;fill-opacity:1;stroke:none;stroke-width:1px;stroke-linecap:butt;stroke-linejoin:miter;stroke-opacity:1"
     x="415.53625"
     y="64.373116"
     id="text4309"><tspan
       id="tspan4311"
       x="415.53625"
       y="64.373116">led</tspan></text>
  <g
     transform="translate(11.487173,-34.508986)"
     id="g15837">
    <circle
       r="18.612108"
       cy="142.1824"
       cx="425.2923"
       id="circle4323"
       style="fill:none;fill-opacity:1;stroke:#000000;stroke-width:1.75219631;stroke-miterlimit:4;stroke-dasharray:none;stroke-dashoffset:0;stroke-opacity:1" />
    <text
       xml:space="preserve"
       style="font-style:normal;font-variant:normal;font-weight:normal;font-stretch:normal;font-size:19.375px;line-height:125%;font-family:Minecrafter;-inkscape-font-specification:'Minecrafter, Normal';text-align:start;letter-spacing:0px;word-spacing:0px;writing-mode:lr-tb;text-anchor:start;fill:#000000;fill-opacity:1;stroke:none;stroke-width:1px;stroke-linecap:butt;stroke-linejoin:miter;stroke-opacity:1"
       x="382.24634"
       y="148.25601"
       id="text4587"><tspan
         id="tspan4589"
         x="382.24634"
         y="148.25601">+</tspan></text>
    <text
       id="text4591"
       y="147.48972"
       x="456.72559"
       style="font-style:normal;font-variant:normal;font-weight:normal;font-stretch:normal;font-size:19.375px;line-height:125%;font-family:Minecrafter;-inkscape-font-specification:'Minecrafter, Normal';text-align:start;letter-spacing:0px;word-spacing:0px;writing-mode:lr-tb;text-anchor:start;fill:#000000;fill-opacity:1;stroke:none;stroke-width:1px;stroke-linecap:butt;stroke-linejoin:miter;stroke-opacity:1"
       xml:space="preserve"><tspan
         y="147.48972"
         x="456.72559"
         id="tspan4593">-</tspan></text>
  </g>
  <circle
     r="21.065523"
     style="fill:none;fill-opacity:1;stroke:#000000;stroke-width:1.98316741;stroke-miterlimit:4;stroke-dasharray:none;stroke-dashoffset:0;stroke-opacity:1"
     id="path4319"
     cx="435.44211"
     cy="174.12234" />
  <text
     xml:space="preserve"
     style="font-style:normal;font-variant:normal;font-weight:normal;font-stretch:normal;font-size:19.375px;line-height:125%;font-family:Minecrafter;-inkscape-font-specification:'Minecrafter, Normal';text-align:start;letter-spacing:0px;word-spacing:0px;writing-mode:lr-tb;text-anchor:start;fill:#000000;fill-opacity:1;stroke:none;stroke-width:1px;stroke-linecap:butt;stroke-linejoin:miter;stroke-opacity:1"
     x="393.73349"
     y="179.75304"
     id="text15829"><tspan
       id="tspan15831"
       x="393.73349"
       y="179.75304">+</tspan></text>
  <text
     id="text15833"
     y="178.98674"
     x="468.21274"
     style="font-style:normal;font-variant:normal;font-weight:normal;font-stretch:normal;font-size:19.375px;line-height:125%;font-family:Minecrafter;-inkscape-font-specification:'Minecrafter, Normal';text-align:start;letter-spacing:0px;word-spacing:0px;writing-mode:lr-tb;text-anchor:start;fill:#000000;fill-opacity:1;stroke:none;stroke-width:1px;stroke-linecap:butt;stroke-linejoin:miter;stroke-opacity:1"
     xml:space="preserve"><tspan
       y="178.98674"
       x="468.21274"
       id="tspan15835">-</tspan></text>
  <rect
     ry="0"
     y="332.81976"
     x="774.75262"
     height="40.679207"
     width="49.650803"
     id="rect15807"
     style="fill:none;fill-opacity:1;stroke:#000000;stroke-width:0.70732313;stroke-miterlimit:4;stroke-dasharray:none;stroke-dashoffset:0;stroke-opacity:1" />
  <text
     id="text27931"
     y="328.08746"
     x="757.52515"
     style="font-style:normal;font-variant:normal;font-weight:normal;font-stretch:normal;font-size:16.17099571px;line-height:125%;font-family:Minecrafter;-inkscape-font-specification:'Minecrafter, Normal';text-align:start;letter-spacing:0px;word-spacing:0px;writing-mode:lr-tb;text-anchor:start;fill:#ff0000;fill-opacity:1;stroke:none;stroke-width:1px;stroke-linecap:butt;stroke-linejoin:miter;stroke-opacity:1"
     xml:space="preserve"><tspan
       y="328.08746"
       x="757.52515"
       id="tspan27933">off</tspan></text>
  <text
     xml:space="preserve"
     style="font-style:normal;font-variant:normal;font-weight:normal;font-stretch:normal;font-size:16.17099571px;line-height:125%;font-family:Minecrafter;-inkscape-font-specification:'Minecrafter, Normal';text-align:start;letter-spacing:0px;word-spacing:0px;writing-mode:lr-tb;text-anchor:start;fill:#ff0000;fill-opacity:1;stroke:none;stroke-width:1px;stroke-linecap:butt;stroke-linejoin:miter;stroke-opacity:1"
     x="811.79779"
     y="328.08746"
     id="text27937"><tspan
       id="tspan27939"
       x="811.79779"
       y="328.08746">ON</tspan></text>
  <rect
     style="fill:none;fill-opacity:1;stroke:#fffc00;stroke-width:0.5011695;stroke-miterlimit:4;stroke-dasharray:none;stroke-dashoffset:0;stroke-opacity:1"
     id="rect867"
     width="1487.6891"
     height="1051.8619"
     x="0.25058475"
     y="0.25058475" />
  <g
     id="g881"
     transform="translate(9.3755075,572.55461)">
    <polygon
       id="polygon875"
       points="60.23627,283.4648 0,283.4648 0,223.22853 14.17324,223.22853 14.17324,162.99226 0,162.99226 0,120.47254 14.17324,120.47254 14.17324,60.23627 0,60.23627 0,0 60.23627,0 60.23627,14.17324 120.47254,14.17324 120.47254,0 162.99226,0 162.99226,14.17324 223.22853,14.17324 223.22853,0 283.4648,0 283.4648,60.23627 269.29156,60.23627 269.29156,120.47254 283.4648,120.47254 283.4648,162.99226 269.29156,162.99226 269.29156,223.22853 283.4648,223.22853 283.4648,283.4648 223.22853,283.4648 223.22853,269.29156 162.99226,269.29156 162.99226,283.4648 120.47254,283.4648 120.47254,269.29156 60.23627,269.29156 "
       style="fill:none;stroke:#000000;stroke-width:0.90000075"
       transform="translate(0.45000063,0.44999264)" />
    <text
       id="text879"
       y="183.48538"
       x="33.48053"
       style="font-style:normal;font-variant:normal;font-weight:normal;font-stretch:normal;font-size:105.36476898px;line-height:125%;font-family:Minecrafter;-inkscape-font-specification:'Minecrafter, Normal';text-align:start;letter-spacing:0px;word-spacing:0px;writing-mode:lr-tb;text-anchor:start;fill:#ff0000;fill-opacity:1;stroke:none;stroke-width:1px;stroke-linecap:butt;stroke-linejoin:miter;stroke-opacity:1"
       xml:space="preserve"><tspan
         y="183.48538"
         x="33.48053"
         id="tspan877">tnt</tspan></text>
  </g>
  <polygon
     transform="translate(576.7546,573.00461)"
     style="fill:none;stroke:#000000;stroke-width:0.90000075"
     points="60.23627,283.4648 14.17324,283.4648 14.17324,223.22853 0,223.22853 0,162.99226 14.17324,162.99226 14.17324,120.47254 0,120.47254 0,60.23627 14.17324,60.23627 14.17324,0 60.23627,0 60.23627,14.17324 120.47254,14.17324 120.47254,0 162.99226,0 162.99226,14.17324 223.22853,14.17324 223.22853,0 269.29156,0 269.29156,60.23627 283.4648,60.23627 283.4648,120.47254 269.29156,120.47254 269.29156,162.99226 283.4648,162.99226 283.4648,223.22853 269.29156,223.22853 269.29156,283.4648 223.22853,283.4648 223.22853,269.29156 162.99226,269.29156 162.99226,283.4648 120.47254,283.4648 120.47254,269.29156 60.23627,269.29156 "
     id="polygon905" />
  <g
     transform="translate(293.2903,573.00461)"
     id="g909">
    <polygon
       style="fill:none;stroke:#000000;stroke-width:0.90000075"
       points="120.47254,269.29156 60.23627,269.29156 60.23627,283.4648 0,283.4648 0,223.22853 14.17324,223.22853 14.17324,162.99226 0,162.99226 0,120.47254 14.17324,120.47254 14.17324,60.23627 0,60.23627 0,0 60.23627,0 60.23627,14.17324 120.47254,14.17324 120.47254,0 162.99226,0 162.99226,14.17324 223.22853,14.17324 223.22853,0 283.4648,0 283.4648,60.23627 269.29156,60.23627 269.29156,120.47254 283.4648,120.47254 283.4648,162.99226 269.29156,162.99226 269.29156,223.22853 283.4648,223.22853 283.4648,283.4648 223.22853,283.4648 223.22853,269.29156 162.99226,269.29156 162.99226,283.4648 120.47254,283.4648 "
       id="polygon907" />
  </g>
  <text
     xml:space="preserve"
     style="font-style:normal;font-variant:normal;font-weight:normal;font-stretch:normal;font-size:19.375px;line-height:125%;font-family:Minecrafter;-inkscape-font-specification:'Minecrafter, Normal';text-align:start;letter-spacing:0px;word-spacing:0px;writing-mode:lr-tb;text-anchor:start;fill:#ff0000;fill-opacity:1;stroke:none;stroke-width:1px;stroke-linecap:butt;stroke-linejoin:miter;stroke-opacity:1"
     x="25.958881"
     y="842.86322"
     id="text913"><tspan
       id="tspan911"
       x="25.958881"
       y="842.86322">1</tspan></text>
  <text
     xml:space="preserve"
     style="font-style:normal;font-variant:normal;font-weight:normal;font-stretch:normal;font-size:19.375px;line-height:125%;font-family:Minecrafter;-inkscape-font-specification:'Minecrafter, Normal';text-align:start;letter-spacing:0px;word-spacing:0px;writing-mode:lr-tb;text-anchor:start;fill:#ff0000;fill-opacity:1;stroke:none;stroke-width:1px;stroke-linecap:butt;stroke-linejoin:miter;stroke-opacity:1"
     x="317.82593"
     y="826.27985"
     id="text917"><tspan
       id="tspan915"
       x="317.82593"
       y="826.27985">2</tspan></text>
  <text
     xml:space="preserve"
     style="font-style:normal;font-variant:normal;font-weight:normal;font-stretch:normal;font-size:19.375px;line-height:125%;font-family:Minecrafter;-inkscape-font-specification:'Minecrafter, Normal';text-align:start;letter-spacing:0px;word-spacing:0px;writing-mode:lr-tb;text-anchor:start;fill:#ff0000;fill-opacity:1;stroke:none;stroke-width:1px;stroke-linecap:butt;stroke-linejoin:miter;stroke-opacity:1"
     x="611.35138"
     y="831.25488"
     id="text921"><tspan
       id="tspan919"
       x="611.35138"
       y="831.25488">3</tspan></text>
  <text
     xml:space="preserve"
     style="font-style:normal;font-variant:normal;font-weight:normal;font-stretch:normal;font-size:19.375px;line-height:125%;font-family:Minecrafter;-inkscape-font-specification:'Minecrafter, Normal';text-align:start;letter-spacing:0px;word-spacing:0px;writing-mode:lr-tb;text-anchor:start;fill:#ff0000;fill-opacity:1;stroke:none;stroke-width:1px;stroke-linecap:butt;stroke-linejoin:miter;stroke-opacity:1"
     x="398.18121"
     y="807.73627"
     id="text937"><tspan
       id="tspan935"
       x="398.18121"
       y="807.73627">buzzer</tspan></text>
  <text
     id="text941"
     y="636.92773"
     x="415.53674"
     style="font-style:normal;font-variant:normal;font-weight:normal;font-stretch:normal;font-size:19.375px;line-height:125%;font-family:Minecrafter;-inkscape-font-specification:'Minecrafter, Normal';text-align:start;letter-spacing:0px;word-spacing:0px;writing-mode:lr-tb;text-anchor:start;fill:#ff0000;fill-opacity:1;stroke:none;stroke-width:1px;stroke-linecap:butt;stroke-linejoin:miter;stroke-opacity:1"
     xml:space="preserve"><tspan
       y="636.92773"
       x="415.53674"
       id="tspan939">led</tspan></text>
  <g
     id="g953"
     transform="translate(11.487668,538.04563)">
    <circle
       style="fill:none;fill-opacity:1;stroke:#000000;stroke-width:1.75219631;stroke-miterlimit:4;stroke-dasharray:none;stroke-dashoffset:0;stroke-opacity:1"
       id="circle943"
       cx="425.2923"
       cy="142.1824"
       r="18.612108" />
    <text
       id="text947"
       y="148.25601"
       x="382.24634"
       style="font-style:normal;font-variant:normal;font-weight:normal;font-stretch:normal;font-size:19.375px;line-height:125%;font-family:Minecrafter;-inkscape-font-specification:'Minecrafter, Normal';text-align:start;letter-spacing:0px;word-spacing:0px;writing-mode:lr-tb;text-anchor:start;fill:#000000;fill-opacity:1;stroke:none;stroke-width:1px;stroke-linecap:butt;stroke-linejoin:miter;stroke-opacity:1"
       xml:space="preserve"><tspan
         y="148.25601"
         x="382.24634"
         id="tspan945">+</tspan></text>
    <text
       xml:space="preserve"
       style="font-style:normal;font-variant:normal;font-weight:normal;font-stretch:normal;font-size:19.375px;line-height:125%;font-family:Minecrafter;-inkscape-font-specification:'Minecrafter, Normal';text-align:start;letter-spacing:0px;word-spacing:0px;writing-mode:lr-tb;text-anchor:start;fill:#000000;fill-opacity:1;stroke:none;stroke-width:1px;stroke-linecap:butt;stroke-linejoin:miter;stroke-opacity:1"
       x="456.72559"
       y="147.48972"
       id="text951"><tspan
         id="tspan949"
         x="456.72559"
         y="147.48972">-</tspan></text>
  </g>
  <circle
     cy="746.67694"
     cx="435.44263"
     id="circle955"
     style="fill:none;fill-opacity:1;stroke:#000000;stroke-width:1.98316741;stroke-miterlimit:4;stroke-dasharray:none;stroke-dashoffset:0;stroke-opacity:1"
     r="21.065523" />
  <text
     id="text959"
     y="752.30762"
     x="393.73401"
     style="font-style:normal;font-variant:normal;font-weight:normal;font-stretch:normal;font-size:19.375px;line-height:125%;font-family:Minecrafter;-inkscape-font-specification:'Minecrafter, Normal';text-align:start;letter-spacing:0px;word-spacing:0px;writing-mode:lr-tb;text-anchor:start;fill:#000000;fill-opacity:1;stroke:none;stroke-width:1px;stroke-linecap:butt;stroke-linejoin:miter;stroke-opacity:1"
     xml:space="preserve"><tspan
       y="752.30762"
       x="393.73401"
       id="tspan957">+</tspan></text>
  <text
     xml:space="preserve"
     style="font-style:normal;font-variant:normal;font-weight:normal;font-stretch:normal;font-size:19.375px;line-height:125%;font-family:Minecrafter;-inkscape-font-specification:'Minecrafter, Normal';text-align:start;letter-spacing:0px;word-spacing:0px;writing-mode:lr-tb;text-anchor:start;fill:#000000;fill-opacity:1;stroke:none;stroke-width:1px;stroke-linecap:butt;stroke-linejoin:miter;stroke-opacity:1"
     x="468.21326"
     y="751.54132"
     id="text963"><tspan
       id="tspan961"
       x="468.21326"
       y="751.54132">-</tspan></text>
  <g
     id="g1058"
     transform="translate(9.3750075)">
    <g
       transform="translate(861.56356,0.45000038)"
       id="g979">
      <polygon
         style="fill:none;stroke:#000000;stroke-width:0.90000075"
         points="60.23627,283.4648 60.23627,269.29156 14.17324,269.29156 14.17324,223.22853 0,223.22853 0,162.99226 14.17324,162.99226 14.17324,120.47254 0,120.47254 0,60.23627 14.17324,60.23627 14.17324,14.17324 60.23627,14.17324 60.23627,0 120.47254,0 120.47254,14.17324 162.99226,14.17324 162.99226,0 223.22853,0 223.22853,14.17324 269.29156,14.17324 269.29156,60.23627 283.4648,60.23627 283.4648,120.47254 269.29156,120.47254 269.29156,162.99226 283.4648,162.99226 283.4648,223.22853 269.29156,223.22853 269.29156,269.29156 223.22853,269.29156 223.22853,283.4648 162.99226,283.4648 162.99226,269.29156 120.47254,269.29156 120.47254,283.4648 "
         id="polygon975" />
      <circle
         cx="141.73241"
         cy="141.73241"
         r="49.25201"
         style="fill:none;stroke:#000000;stroke-width:0.90000075"
         id="circle977" />
    </g>
    <text
       xml:space="preserve"
       style="font-style:normal;font-variant:normal;font-weight:normal;font-stretch:normal;font-size:19.375px;line-height:125%;font-family:Minecrafter;-inkscape-font-specification:'Minecrafter, Normal';text-align:start;letter-spacing:0px;word-spacing:0px;writing-mode:lr-tb;text-anchor:start;fill:#ff0000;fill-opacity:1;stroke:none;stroke-width:1px;stroke-linecap:butt;stroke-linejoin:miter;stroke-opacity:1"
       x="896.12372"
       y="257.71753"
       id="text1009"><tspan
         id="tspan1007"
         x="896.12372"
         y="257.71753">4</tspan></text>
  </g>
  <g
     id="g1037"
     transform="translate(-328.82157,200.68313)">
    <g
       id="g987"
       transform="translate(915.84533,-193.69008)">
      <g
         id="g983"
         transform="translate(283.9148,283.91481)">
        <polygon
           id="polygon981"
           points="14.17324,223.22853 0,223.22853 0,162.99226 14.17324,162.99226 14.17324,120.47254 0,120.47254 0,60.23627 14.17324,60.23627 14.17324,14.17324 60.23627,14.17324 60.23627,0 120.47254,0 120.47254,14.17324 162.99226,14.17324 162.99226,0 223.22853,0 223.22853,14.17324 269.29156,14.17324 269.29156,60.23627 283.4648,60.23627 283.4648,120.47254 269.29156,120.47254 269.29156,162.99226 283.4648,162.99226 283.4648,223.22853 269.29156,223.22853 269.29156,269.29156 223.22853,269.29156 223.22853,283.4648 162.99226,283.4648 162.99226,269.29156 120.47254,269.29156 120.47254,283.4648 60.23627,283.4648 60.23627,269.29156 14.17324,269.29156 "
           style="fill:none;stroke:#000000;stroke-width:0.90000075" />
      </g>
      <path
         style="color:#000000;font-style:normal;font-variant:normal;font-weight:normal;font-stretch:normal;font-size:medium;line-height:normal;font-family:sans-serif;text-indent:0;text-align:start;text-decoration:none;text-decoration-line:none;text-decoration-style:solid;text-decoration-color:#000000;letter-spacing:normal;word-spacing:normal;text-transform:none;writing-mode:lr-tb;direction:ltr;baseline-shift:baseline;text-anchor:start;white-space:normal;clip-rule:nonzero;display:inline;overflow:visible;visibility:visible;opacity:1;isolation:auto;mix-blend-mode:normal;color-interpolation:sRGB;color-interpolation-filters:linearRGB;solid-color:#000000;solid-opacity:1;fill:#ff0000;fill-opacity:1;fill-rule:nonzero;stroke:none;stroke-width:1.19034266;stroke-linecap:butt;stroke-linejoin:miter;stroke-miterlimit:4;stroke-dasharray:none;stroke-dashoffset:0;stroke-opacity:1;color-rendering:auto;image-rendering:auto;shape-rendering:auto;text-rendering:auto;enable-background:accumulate"
         d="m 515.05859,298.70117 c -6.58723,0 -11.9082,5.32293 -11.9082,11.91016 V 375.375 c 0,6.58723 5.32097,11.91016 11.9082,11.91016 h 25.78907 c 6.58723,0 11.9082,-5.32293 11.9082,-11.91016 v -64.76367 c 0,-6.58723 -5.32097,-11.91016 -11.9082,-11.91016 z m 0,1.19141 h 25.78907 c 5.94837,0 10.71875,4.77038 10.71875,10.71875 V 375.375 c 0,5.94837 -4.77038,10.71875 -10.71875,10.71875 h -25.78907 c -5.94837,0 -10.71875,-4.77038 -10.71875,-10.71875 v -64.76367 c 0,-5.94837 4.77038,-10.71875 10.71875,-10.71875 z"
         id="path985"
         inkscape:connector-curvature="0" />
    </g>
    <text
       xml:space="preserve"
       style="font-style:normal;font-variant:normal;font-weight:normal;font-stretch:normal;font-size:19.375px;line-height:125%;font-family:Minecrafter;-inkscape-font-specification:'Minecrafter, Normal';text-align:start;letter-spacing:0px;word-spacing:0px;writing-mode:lr-tb;text-anchor:start;fill:#ff0000;fill-opacity:1;stroke:none;stroke-width:1px;stroke-linecap:butt;stroke-linejoin:miter;stroke-opacity:1"
       x="1307.4006"
       y="239.55211"
       id="text991"><tspan
         id="tspan989"
         x="1307.4006"
         y="239.55211">unten</tspan></text>
    <text
       xml:space="preserve"
       style="font-style:normal;font-variant:normal;font-weight:normal;font-stretch:normal;font-size:19.375px;line-height:125%;font-family:Minecrafter;-inkscape-font-specification:'Minecrafter, Normal';text-align:start;letter-spacing:0px;word-spacing:0px;writing-mode:lr-tb;text-anchor:start;fill:#ff0000;fill-opacity:1;stroke:none;stroke-width:1px;stroke-linecap:butt;stroke-linejoin:miter;stroke-opacity:1"
       x="1232.5874"
       y="341.95218"
       id="text1013"><tspan
         id="tspan1011"
         x="1232.5874"
         y="341.95218">5</tspan></text>
  </g>
  <g
     id="g1051"
     transform="translate(-616.03634,486.13241)">
    <g
       transform="translate(1483.2249,90.224726)"
       id="g995">
      <polygon
         style="fill:none;stroke:#000000;stroke-width:0.90000075"
         points="60.23627,14.17324 120.47254,14.17324 120.47254,0 162.99226,0 162.99226,14.17324 223.22853,14.17324 223.22853,0 269.29156,0 269.29156,60.23627 283.4648,60.23627 283.4648,120.47254 269.29156,120.47254 269.29156,162.99226 283.4648,162.99226 283.4648,223.22853 269.29156,223.22853 269.29156,283.4648 223.22853,283.4648 223.22853,269.29156 162.99226,269.29156 162.99226,283.4648 120.47254,283.4648 120.47254,269.29156 60.23627,269.29156 60.23627,283.4648 14.17324,283.4648 14.17324,223.22853 0,223.22853 0,162.99226 14.17324,162.99226 14.17324,120.47254 0,120.47254 0,60.23627 14.17324,60.23627 14.17324,0 60.23627,0 "
         id="polygon993" />
    </g>
    <text
       id="text999"
       y="243.67418"
       x="1605.9504"
       style="font-style:normal;font-variant:normal;font-weight:normal;font-stretch:normal;font-size:19.375px;line-height:125%;font-family:Minecrafter;-inkscape-font-specification:'Minecrafter, Normal';text-align:start;letter-spacing:0px;word-spacing:0px;writing-mode:lr-tb;text-anchor:start;fill:#ff0000;fill-opacity:1;stroke:none;stroke-width:1px;stroke-linecap:butt;stroke-linejoin:miter;stroke-opacity:1"
       xml:space="preserve"><tspan
         y="243.67418"
         x="1605.9504"
         id="tspan997">out</tspan></text>
    <rect
       style="fill:none;fill-opacity:1;stroke:#000000;stroke-width:1.22827482;stroke-miterlimit:4;stroke-dasharray:none;stroke-dashoffset:0;stroke-opacity:1"
       id="rect1001"
       width="16.488277"
       height="16.488276"
       x="1616.7131"
       y="250.73778"
       rx="0" />
    <text
       xml:space="preserve"
       style="font-style:normal;font-variant:normal;font-weight:normal;font-stretch:normal;font-size:19.375px;line-height:125%;font-family:Minecrafter;-inkscape-font-specification:'Minecrafter, Normal';text-align:start;letter-spacing:0px;word-spacing:0px;writing-mode:lr-tb;text-anchor:start;fill:#ff0000;fill-opacity:1;stroke:none;stroke-width:1px;stroke-linecap:butt;stroke-linejoin:miter;stroke-opacity:1"
       x="1516.1628"
       y="356.87723"
       id="text1017"><tspan
         id="tspan1015"
         x="1516.1628"
         y="356.87723">6</tspan></text>
    <rect
       style="fill:none;fill-opacity:1;stroke:#000000;stroke-width:0.70732313;stroke-miterlimit:4;stroke-dasharray:none;stroke-dashoffset:0;stroke-opacity:1"
       id="rect1019"
       width="49.650803"
       height="40.679207"
       x="1681.2229"
       y="139.12965"
       ry="0" />
    <text
       xml:space="preserve"
       style="font-style:normal;font-variant:normal;font-weight:normal;font-stretch:normal;font-size:16.17099571px;line-height:125%;font-family:Minecrafter;-inkscape-font-specification:'Minecrafter, Normal';text-align:start;letter-spacing:0px;word-spacing:0px;writing-mode:lr-tb;text-anchor:start;fill:#ff0000;fill-opacity:1;stroke:none;stroke-width:1px;stroke-linecap:butt;stroke-linejoin:miter;stroke-opacity:1"
       x="1663.9955"
       y="134.39735"
       id="text1023"><tspan
         id="tspan1021"
         x="1663.9955"
         y="134.39735">off</tspan></text>
    <text
       id="text1027"
       y="134.39735"
       x="1718.2681"
       style="font-style:normal;font-variant:normal;font-weight:normal;font-stretch:normal;font-size:16.17099571px;line-height:125%;font-family:Minecrafter;-inkscape-font-specification:'Minecrafter, Normal';text-align:start;letter-spacing:0px;word-spacing:0px;writing-mode:lr-tb;text-anchor:start;fill:#ff0000;fill-opacity:1;stroke:none;stroke-width:1px;stroke-linecap:butt;stroke-linejoin:miter;stroke-opacity:1"
       xml:space="preserve"><tspan
         y="134.39735"
         x="1718.2681"
         id="tspan1025">ON</tspan></text>
  </g>
</svg>
