<?xml version="1.0" encoding="UTF-8" standalone="no"?>
<svg
   xmlns:dc="http://purl.org/dc/elements/1.1/"
   xmlns:cc="http://creativecommons.org/ns#"
   xmlns:rdf="http://www.w3.org/1999/02/22-rdf-syntax-ns#"
   xmlns:svg="http://www.w3.org/2000/svg"
   xmlns="http://www.w3.org/2000/svg"
   xmlns:sodipodi="http://sodipodi.sourceforge.net/DTD/sodipodi-0.dtd"
   xmlns:inkscape="http://www.inkscape.org/namespaces/inkscape"
   version="1.1"
   width="600mm"
   height="300mm"
   viewBox="0 0 2125.986 1062.993"
   id="svg2"
   inkscape:version="0.91 r13725"
   sodipodi:docname="tnt-button-dubai.svg">
  <metadata
     id="metadata34">
    <rdf:RDF>
      <cc:Work
         rdf:about="">
        <dc:format>image/svg+xml</dc:format>
        <dc:type
           rdf:resource="http://purl.org/dc/dcmitype/StillImage" />
        <dc:title></dc:title>
      </cc:Work>
    </rdf:RDF>
  </metadata>
  <defs
     id="defs32" />
  <sodipodi:namedview
     pagecolor="#ffffff"
     bordercolor="#666666"
     borderopacity="1"
     objecttolerance="10"
     gridtolerance="10"
     guidetolerance="10"
     inkscape:pageopacity="0"
     inkscape:pageshadow="2"
     inkscape:window-width="1280"
     inkscape:window-height="718"
     id="namedview30"
     showgrid="false"
     inkscape:zoom="0.85279173"
     inkscape:cx="371.37575"
     inkscape:cy="772.79204"
     inkscape:window-x="0"
     inkscape:window-y="1"
     inkscape:window-maximized="1"
     inkscape:current-layer="svg2"
     inkscape:snap-global="false"
     inkscape:snap-bbox="true"
     inkscape:snap-nodes="false"
     inkscape:bbox-paths="true"
     inkscape:snap-bbox-edge-midpoints="true"
     inkscape:bbox-nodes="true"
     inkscape:snap-bbox-midpoints="true" />
  <!-- Front-->
  <!-- Back-->
  <!-- Left-->
  <!-- Right-->
  <!-- Top-->
  <!-- Bottom-->
  <g
     transform="translate(0.45,0.45)"
     id="g4" />
  <g
     transform="translate(567.3796,0.45)"
     id="g12" />
  <g
     transform="translate(0.45,283.91481)"
     id="g20">
    <polygon
       style="fill:none;stroke:#000000;stroke-width:0.90000075"
       points="269.29156,60.23627 283.4648,60.23627 283.4648,120.47254 269.29156,120.47254 269.29156,162.99226 283.4648,162.99226 283.4648,223.22853 269.29156,223.22853 269.29156,269.29156 223.22853,269.29156 223.22853,283.4648 162.99226,283.4648 162.99226,269.29156 120.47254,269.29156 120.47254,283.4648 60.23627,283.4648 60.23627,269.29156 14.17324,269.29156 14.17324,223.22853 0,223.22853 0,162.99226 14.17324,162.99226 14.17324,120.47254 0,120.47254 0,60.23627 14.17324,60.23627 14.17324,14.17324 60.23627,14.17324 60.23627,0 120.47254,0 120.47254,14.17324 162.99226,14.17324 162.99226,0 223.22853,0 223.22853,14.17324 269.29156,14.17324 "
       id="polygon22" />
    <circle
       cx="141.73241"
       cy="141.73241"
       r="49.25201"
       style="fill:none;stroke:#000000;stroke-width:0.90000075"
       id="circle24" />
  </g>
  <g
     id="g4431">
    <polygon
       id="polygon6"
       points="283.4648,60.23627 269.29156,60.23627 269.29156,120.47254 283.4648,120.47254 283.4648,162.99226 269.29156,162.99226 269.29156,223.22853 283.4648,223.22853 283.4648,283.4648 223.22853,283.4648 223.22853,269.29156 162.99226,269.29156 162.99226,283.4648 120.47254,283.4648 120.47254,269.29156 60.23627,269.29156 60.23627,283.4648 0,283.4648 0,223.22853 14.17324,223.22853 14.17324,162.99226 0,162.99226 0,120.47254 14.17324,120.47254 14.17324,60.23627 0,60.23627 0,0 60.23627,0 60.23627,14.17324 120.47254,14.17324 120.47254,0 162.99226,0 162.99226,14.17324 223.22853,14.17324 223.22853,0 283.4648,0 "
       style="fill:none;stroke:#000000;stroke-width:0.90000075"
       transform="translate(0.4499996,0.4499996)" />
    <text
       sodipodi:linespacing="125%"
       id="text4196"
       y="183.48538"
       x="33.48053"
       style="font-style:normal;font-variant:normal;font-weight:normal;font-stretch:normal;font-size:105.36476898px;line-height:125%;font-family:Minecrafter;-inkscape-font-specification:'Minecrafter, Normal';text-align:start;letter-spacing:0px;word-spacing:0px;writing-mode:lr-tb;text-anchor:start;fill:#ff0000;fill-opacity:1;stroke:none;stroke-width:1px;stroke-linecap:butt;stroke-linejoin:miter;stroke-opacity:1"
       xml:space="preserve"><tspan
         y="183.48538"
         x="33.48053"
         id="tspan4198"
         sodipodi:role="line">tnt</tspan></text>
  </g>
  <rect
     style="fill:none;fill-opacity:1;stroke:#ffff00;stroke-width:1.18346643;stroke-miterlimit:4;stroke-dasharray:none;stroke-dashoffset:0;stroke-opacity:1"
     id="rect4250"
     width="1487.0068"
     height="1051.1797"
     x="0.59173322"
     y="0.59173322" />
  <g
     id="g4268"
     transform="translate(856.45076,7.9145616)">
    <polygon
       id="polygon4270"
       points="283.4648,120.47254 269.29156,120.47254 269.29156,162.99226 283.4648,162.99226 283.4648,223.22853 269.29156,223.22853 269.29156,269.29156 223.22853,269.29156 223.22853,283.4648 162.99226,283.4648 162.99226,269.29156 120.47254,269.29156 120.47254,283.4648 60.23627,283.4648 60.23627,269.29156 14.17324,269.29156 14.17324,223.22853 0,223.22853 0,162.99226 14.17324,162.99226 14.17324,120.47254 0,120.47254 0,60.23627 14.17324,60.23627 14.17324,14.17324 60.23627,14.17324 60.23627,0 120.47254,0 120.47254,14.17324 162.99226,14.17324 162.99226,0 223.22853,0 223.22853,14.17324 269.29156,14.17324 269.29156,60.23627 283.4648,60.23627 "
       style="fill:none;stroke:#000000;stroke-width:0.90000075" />
    <circle
       id="circle4272"
       style="fill:none;stroke:#000000;stroke-width:0.90000075"
       r="49.25201"
       cy="141.73241"
       cx="141.73241" />
  </g>
  <g
     id="g4325">
    <g
       id="g4284">
      <g
         transform="translate(283.9148,283.91481)"
         id="g26">
        <polygon
           style="fill:none;stroke:#000000;stroke-width:0.90000075"
           points="269.29156,60.23627 283.4648,60.23627 283.4648,120.47254 269.29156,120.47254 269.29156,162.99226 283.4648,162.99226 283.4648,223.22853 269.29156,223.22853 269.29156,269.29156 223.22853,269.29156 223.22853,283.4648 162.99226,283.4648 162.99226,269.29156 120.47254,269.29156 120.47254,283.4648 60.23627,283.4648 60.23627,269.29156 14.17324,269.29156 14.17324,223.22853 0,223.22853 0,162.99226 14.17324,162.99226 14.17324,120.47254 0,120.47254 0,60.23627 14.17324,60.23627 14.17324,14.17324 60.23627,14.17324 60.23627,0 120.47254,0 120.47254,14.17324 162.99226,14.17324 162.99226,0 223.22853,0 223.22853,14.17324 269.29156,14.17324 "
           id="polygon28" />
      </g>
      <rect
         style="fill:none;fill-opacity:1;stroke:#ff0000;stroke-width:1.19034266;stroke-miterlimit:4;stroke-dasharray:none;stroke-dashoffset:0;stroke-opacity:1"
         id="rect4282"
         width="48.416"
         height="87.39241"
         x="503.74524"
         y="299.29712"
         ry="11.313719" />
    </g>
    <text
       sodipodi:linespacing="125%"
       id="text4305"
       y="433.24222"
       x="391.55536"
       style="font-style:normal;font-variant:normal;font-weight:normal;font-stretch:normal;font-size:19.375px;line-height:125%;font-family:Minecrafter;-inkscape-font-specification:'Minecrafter, Normal';text-align:start;letter-spacing:0px;word-spacing:0px;writing-mode:lr-tb;text-anchor:start;fill:#ff0000;fill-opacity:1;stroke:none;stroke-width:1px;stroke-linecap:butt;stroke-linejoin:miter;stroke-opacity:1;"
       xml:space="preserve"><tspan
         y="433.24222"
         x="391.55536"
         id="tspan4307"
         sodipodi:role="line">unten</tspan></text>
  </g>
  <g
     id="g4444">
    <g
       id="g16"
       transform="translate(567.3796,283.91481)">
      <polygon
         id="polygon18"
         points="269.29156,60.23627 283.4648,60.23627 283.4648,120.47254 269.29156,120.47254 269.29156,162.99226 283.4648,162.99226 283.4648,223.22853 269.29156,223.22853 269.29156,283.4648 223.22853,283.4648 223.22853,269.29156 162.99226,269.29156 162.99226,283.4648 120.47254,283.4648 120.47254,269.29156 60.23627,269.29156 60.23627,283.4648 14.17324,283.4648 14.17324,223.22853 0,223.22853 0,162.99226 14.17324,162.99226 14.17324,120.47254 0,120.47254 0,60.23627 14.17324,60.23627 14.17324,0 60.23627,0 60.23627,14.17324 120.47254,14.17324 120.47254,0 162.99226,0 162.99226,14.17324 223.22853,14.17324 223.22853,0 269.29156,0 "
         style="fill:none;stroke:#000000;stroke-width:0.90000075" />
    </g>
    <text
       xml:space="preserve"
       style="font-style:normal;font-variant:normal;font-weight:normal;font-stretch:normal;font-size:19.375px;line-height:125%;font-family:Minecrafter;-inkscape-font-specification:'Minecrafter, Normal';text-align:start;letter-spacing:0px;word-spacing:0px;writing-mode:lr-tb;text-anchor:start;fill:#ff0000;fill-opacity:1;stroke:none;stroke-width:1px;stroke-linecap:butt;stroke-linejoin:miter;stroke-opacity:1"
       x="688.34625"
       y="354.47141"
       id="text4313"
       sodipodi:linespacing="125%"><tspan
         sodipodi:role="line"
         id="tspan4315"
         x="688.34625"
         y="354.47141">out</tspan></text>
    <rect
       rx="0"
       ry="6.2812486"
       y="417.40308"
       x="700.86786"
       height="16.488276"
       width="16.488277"
       id="rect4317"
       style="fill:none;fill-opacity:1;stroke:#000000;stroke-width:1.22827482;stroke-miterlimit:4;stroke-dasharray:none;stroke-dashoffset:0;stroke-opacity:1" />
    <rect
       style="fill:none;fill-opacity:1;stroke:#000000;stroke-width:1.22827482;stroke-miterlimit:4;stroke-dasharray:none;stroke-dashoffset:0;stroke-opacity:1"
       id="rect4611"
       width="16.488277"
       height="16.488276"
       x="417.40308"
       y="222.54865"
       ry="6.2812486"
       rx="0" />
  </g>
  <polygon
     transform="translate(567.37909,0.4499996)"
     style="fill:none;stroke:#000000;stroke-width:0.90000075"
     points="269.29156,162.99226 283.4648,162.99226 283.4648,223.22853 269.29156,223.22853 269.29156,283.4648 223.22853,283.4648 223.22853,269.29156 162.99226,269.29156 162.99226,283.4648 120.47254,283.4648 120.47254,269.29156 60.23627,269.29156 60.23627,283.4648 14.17324,283.4648 14.17324,223.22853 0,223.22853 0,162.99226 14.17324,162.99226 14.17324,120.47254 0,120.47254 0,60.23627 14.17324,60.23627 14.17324,0 60.23627,0 60.23627,14.17324 120.47254,14.17324 120.47254,0 162.99226,0 162.99226,14.17324 223.22853,14.17324 223.22853,0 269.29156,0 269.29156,60.23627 283.4648,60.23627 283.4648,120.47254 269.29156,120.47254 "
     id="polygon14" />
  <text
     xml:space="preserve"
     style="font-style:normal;font-variant:normal;font-weight:normal;font-stretch:normal;font-size:19.375px;line-height:125%;font-family:Minecrafter;-inkscape-font-specification:'Minecrafter, Normal';text-align:start;letter-spacing:0px;word-spacing:0px;writing-mode:lr-tb;text-anchor:start;fill:#ff0000;fill-opacity:1;stroke:none;stroke-width:1px;stroke-linecap:butt;stroke-linejoin:miter;stroke-opacity:1"
     x="669.06445"
     y="61.728928"
     id="text4297"
     sodipodi:linespacing="125%"><tspan
       sodipodi:role="line"
       id="tspan4299"
       x="669.06445"
       y="61.728928">buzzer</tspan></text>
  <circle
     style="fill:none;fill-opacity:1;stroke:#000000;stroke-width:2.02299023;stroke-miterlimit:4;stroke-dasharray:none;stroke-dashoffset:0;stroke-opacity:1"
     id="path4319"
     cx="709.11151"
     cy="142.1824"
     r="21.488525" />
  <g
     transform="translate(283.9148,0.45)"
     id="g8">
    <polygon
       style="fill:none;stroke:#000000;stroke-width:0.90000075"
       points="269.29156,120.47254 283.4648,120.47254 283.4648,162.99226 269.29156,162.99226 269.29156,223.22853 283.4648,223.22853 283.4648,283.4648 223.22853,283.4648 223.22853,269.29156 162.99226,269.29156 162.99226,283.4648 120.47254,283.4648 120.47254,269.29156 60.23627,269.29156 60.23627,283.4648 0,283.4648 0,223.22853 14.17324,223.22853 14.17324,162.99226 0,162.99226 0,120.47254 14.17324,120.47254 14.17324,60.23627 0,60.23627 0,0 60.23627,0 60.23627,14.17324 120.47254,14.17324 120.47254,0 162.99226,0 162.99226,14.17324 223.22853,14.17324 223.22853,0 283.4648,0 283.4648,60.23627 269.29156,60.23627 "
       id="polygon10" />
  </g>
  <text
     sodipodi:linespacing="125%"
     id="text4309"
     y="61.728928"
     x="406.16125"
     style="font-style:normal;font-variant:normal;font-weight:normal;font-stretch:normal;font-size:19.375px;line-height:125%;font-family:Minecrafter;-inkscape-font-specification:'Minecrafter, Normal';text-align:start;letter-spacing:0px;word-spacing:0px;writing-mode:lr-tb;text-anchor:start;fill:#ff0000;fill-opacity:1;stroke:none;stroke-width:1px;stroke-linecap:butt;stroke-linejoin:miter;stroke-opacity:1"
     xml:space="preserve"><tspan
       y="61.728928"
       x="406.16125"
       id="tspan4311"
       sodipodi:role="line">led</tspan></text>
  <g
     id="g4333"
     transform="translate(8.0000072,288.55038)">
    <g
       id="g4335">
      <g
         id="g4337"
         transform="translate(283.9148,283.91481)">
        <polygon
           id="polygon4339"
           points="283.4648,162.99226 283.4648,223.22853 269.29156,223.22853 269.29156,269.29156 223.22853,269.29156 223.22853,283.4648 162.99226,283.4648 162.99226,269.29156 120.47254,269.29156 120.47254,283.4648 60.23627,283.4648 60.23627,269.29156 14.17324,269.29156 14.17324,223.22853 0,223.22853 0,162.99226 14.17324,162.99226 14.17324,120.47254 0,120.47254 0,60.23627 14.17324,60.23627 14.17324,14.17324 60.23627,14.17324 60.23627,0 120.47254,0 120.47254,14.17324 162.99226,14.17324 162.99226,0 223.22853,0 223.22853,14.17324 269.29156,14.17324 269.29156,60.23627 283.4648,60.23627 283.4648,120.47254 269.29156,120.47254 269.29156,162.99226 "
           style="fill:none;stroke:#000000;stroke-width:0.90000075" />
      </g>
      <rect
         ry="11.313719"
         y="299.29712"
         x="503.74524"
         height="87.39241"
         width="48.416"
         id="rect4341"
         style="fill:none;fill-opacity:1;stroke:#ff0000;stroke-width:1.19034266;stroke-miterlimit:4;stroke-dasharray:none;stroke-dashoffset:0;stroke-opacity:1" />
    </g>
    <text
       xml:space="preserve"
       style="font-style:normal;font-variant:normal;font-weight:normal;font-stretch:normal;font-size:19.375px;line-height:125%;font-family:Minecrafter;-inkscape-font-specification:'Minecrafter, Normal';text-align:start;letter-spacing:0px;word-spacing:0px;writing-mode:lr-tb;text-anchor:start;fill:#ff0000;fill-opacity:1;stroke:none;stroke-width:1px;stroke-linecap:butt;stroke-linejoin:miter;stroke-opacity:1"
       x="391.55536"
       y="433.24222"
       id="text4343"
       sodipodi:linespacing="125%"><tspan
         sodipodi:role="line"
         id="tspan4345"
         x="391.55536"
         y="433.24222">unten</tspan></text>
  </g>
  <g
     id="g4418"
     transform="translate(865.39378,14.071441)">
    <g
       transform="translate(283.9148,0.45)"
       id="g4420">
      <polygon
         style="fill:none;stroke:#000000;stroke-width:0.90000075"
         points="269.29156,120.47254 283.4648,120.47254 283.4648,162.99226 269.29156,162.99226 269.29156,223.22853 283.4648,223.22853 283.4648,283.4648 223.22853,283.4648 223.22853,269.29156 162.99226,269.29156 162.99226,283.4648 120.47254,283.4648 120.47254,269.29156 60.23627,269.29156 60.23627,283.4648 0,283.4648 0,223.22853 14.17324,223.22853 14.17324,162.99226 0,162.99226 0,120.47254 14.17324,120.47254 14.17324,60.23627 0,60.23627 0,0 60.23627,0 60.23627,14.17324 120.47254,14.17324 120.47254,0 162.99226,0 162.99226,14.17324 223.22853,14.17324 223.22853,0 283.4648,0 283.4648,60.23627 269.29156,60.23627 "
         id="polygon4422" />
    </g>
    <text
       sodipodi:linespacing="125%"
       id="text4424"
       y="61.728928"
       x="406.16125"
       style="font-style:normal;font-variant:normal;font-weight:normal;font-stretch:normal;font-size:19.375px;line-height:125%;font-family:Minecrafter;-inkscape-font-specification:'Minecrafter, Normal';text-align:start;letter-spacing:0px;word-spacing:0px;writing-mode:lr-tb;text-anchor:start;fill:#ff0000;fill-opacity:1;stroke:none;stroke-width:1px;stroke-linecap:butt;stroke-linejoin:miter;stroke-opacity:1"
       xml:space="preserve"><tspan
         y="61.728928"
         x="406.16125"
         id="tspan4426"
         sodipodi:role="line">led</tspan></text>
    <circle
       r="18.612108"
       cy="142.1824"
       cx="425.64719"
       id="circle4428"
       style="fill:none;fill-opacity:1;stroke:#000000;stroke-width:1.75219631;stroke-miterlimit:4;stroke-dasharray:none;stroke-dashoffset:0;stroke-opacity:1" />
  </g>
  <g
     id="g4436"
     transform="translate(7.7550926e-7,570.46742)">
    <polygon
       transform="translate(0.4499996,0.4499996)"
       style="fill:none;stroke:#000000;stroke-width:0.90000075"
       points="269.29156,120.47254 283.4648,120.47254 283.4648,162.99226 269.29156,162.99226 269.29156,223.22853 283.4648,223.22853 283.4648,283.4648 223.22853,283.4648 223.22853,269.29156 162.99226,269.29156 162.99226,283.4648 120.47254,283.4648 120.47254,269.29156 60.23627,269.29156 60.23627,283.4648 0,283.4648 0,223.22853 14.17324,223.22853 14.17324,162.99226 0,162.99226 0,120.47254 14.17324,120.47254 14.17324,60.23627 0,60.23627 0,0 60.23627,0 60.23627,14.17324 120.47254,14.17324 120.47254,0 162.99226,0 162.99226,14.17324 223.22853,14.17324 223.22853,0 283.4648,0 283.4648,60.23627 269.29156,60.23627 "
       id="polygon4438" />
    <text
       xml:space="preserve"
       style="font-style:normal;font-variant:normal;font-weight:normal;font-stretch:normal;font-size:105.36476898px;line-height:125%;font-family:Minecrafter;-inkscape-font-specification:'Minecrafter, Normal';text-align:start;letter-spacing:0px;word-spacing:0px;writing-mode:lr-tb;text-anchor:start;fill:#ff0000;fill-opacity:1;stroke:none;stroke-width:1px;stroke-linecap:butt;stroke-linejoin:miter;stroke-opacity:1"
       x="33.48053"
       y="183.48538"
       id="text4440"
       sodipodi:linespacing="125%"><tspan
         sodipodi:role="line"
         id="tspan4442"
         x="33.48053"
         y="183.48538">tnt</tspan></text>
  </g>
  <g
     id="g4451"
     transform="translate(291.86705,9.9500132)">
    <g
       transform="translate(567.3796,283.91481)"
       id="g4453">
      <polygon
         style="fill:none;stroke:#000000;stroke-width:0.90000075"
         points="283.4648,60.23627 283.4648,120.47254 269.29156,120.47254 269.29156,162.99226 283.4648,162.99226 283.4648,223.22853 269.29156,223.22853 269.29156,283.4648 223.22853,283.4648 223.22853,269.29156 162.99226,269.29156 162.99226,283.4648 120.47254,283.4648 120.47254,269.29156 60.23627,269.29156 60.23627,283.4648 14.17324,283.4648 14.17324,223.22853 0,223.22853 0,162.99226 14.17324,162.99226 14.17324,120.47254 0,120.47254 0,60.23627 14.17324,60.23627 14.17324,0 60.23627,0 60.23627,14.17324 120.47254,14.17324 120.47254,0 162.99226,0 162.99226,14.17324 223.22853,14.17324 223.22853,0 269.29156,0 269.29156,60.23627 "
         id="polygon4455" />
    </g>
    <text
       sodipodi:linespacing="125%"
       id="text4457"
       y="478.01736"
       x="668.3222"
       style="font-style:normal;font-variant:normal;font-weight:normal;font-stretch:normal;font-size:19.375px;line-height:125%;font-family:Minecrafter;-inkscape-font-specification:'Minecrafter, Normal';text-align:start;letter-spacing:0px;word-spacing:0px;writing-mode:lr-tb;text-anchor:start;fill:#ff0000;fill-opacity:1;stroke:none;stroke-width:1px;stroke-linecap:butt;stroke-linejoin:miter;stroke-opacity:1"
       xml:space="preserve"><tspan
         y="478.01736"
         x="668.3222"
         id="tspan4459"
         sodipodi:role="line">button</tspan></text>
    <rect
       style="fill:none;fill-opacity:1;stroke:#000000;stroke-width:1.22827482;stroke-miterlimit:4;stroke-dasharray:none;stroke-dashoffset:0;stroke-opacity:1"
       id="rect4461"
       width="16.488277"
       height="16.488276"
       x="700.86786"
       y="417.40308"
       ry="6.2812486"
       rx="0" />
  </g>
  <polygon
     transform="translate(865.87949,580.86743)"
     style="fill:none;stroke:#000000;stroke-width:0.90000075"
     points="283.4648,223.22853 269.29156,223.22853 269.29156,283.4648 223.22853,283.4648 223.22853,269.29156 162.99226,269.29156 162.99226,283.4648 120.47254,283.4648 120.47254,269.29156 60.23627,269.29156 60.23627,283.4648 14.17324,283.4648 14.17324,223.22853 0,223.22853 0,162.99226 14.17324,162.99226 14.17324,120.47254 0,120.47254 0,60.23627 14.17324,60.23627 14.17324,0 60.23627,0 60.23627,14.17324 120.47254,14.17324 120.47254,0 162.99226,0 162.99226,14.17324 223.22853,14.17324 223.22853,0 269.29156,0 269.29156,60.23627 283.4648,60.23627 283.4648,120.47254 269.29156,120.47254 269.29156,162.99226 283.4648,162.99226 "
     id="polygon4512" />
  <text
     xml:space="preserve"
     style="font-style:normal;font-variant:normal;font-weight:normal;font-stretch:normal;font-size:19.375px;line-height:125%;font-family:Minecrafter;-inkscape-font-specification:'Minecrafter, Normal';text-align:start;letter-spacing:0px;word-spacing:0px;writing-mode:lr-tb;text-anchor:start;fill:#ff0000;fill-opacity:1;stroke:none;stroke-width:1px;stroke-linecap:butt;stroke-linejoin:miter;stroke-opacity:1"
     x="967.56488"
     y="642.14636"
     id="text4514"
     sodipodi:linespacing="125%"><tspan
       sodipodi:role="line"
       id="tspan4516"
       x="967.56488"
       y="642.14636">buzzer</tspan></text>
  <circle
     style="fill:none;fill-opacity:1;stroke:#000000;stroke-width:2.02299023;stroke-miterlimit:4;stroke-dasharray:none;stroke-dashoffset:0;stroke-opacity:1"
     id="circle4518"
     cx="1007.6119"
     cy="722.59985"
     r="21.488525" />
  <g
     id="g4550">
    <polygon
       transform="translate(1144.4799,303.9254)"
       style="fill:none;stroke:#000000;stroke-width:0.90000075"
       points="269.29156,223.22853 269.29156,283.4648 223.22853,283.4648 223.22853,269.29156 162.99226,269.29156 162.99226,283.4648 120.47254,283.4648 120.47254,269.29156 60.23627,269.29156 60.23627,283.4648 14.17324,283.4648 14.17324,223.22853 0,223.22853 0,162.99226 14.17324,162.99226 14.17324,120.47254 0,120.47254 0,60.23627 14.17324,60.23627 14.17324,0 60.23627,0 60.23627,14.17324 120.47254,14.17324 120.47254,0 162.99226,0 162.99226,14.17324 223.22853,14.17324 223.22853,0 269.29156,0 269.29156,60.23627 283.4648,60.23627 283.4648,120.47254 269.29156,120.47254 269.29156,162.99226 283.4648,162.99226 283.4648,223.22853 "
       id="polygon4522" />
    <text
       xml:space="preserve"
       style="font-style:normal;font-variant:normal;font-weight:normal;font-stretch:normal;font-size:19.375px;line-height:125%;font-family:Minecrafter;-inkscape-font-specification:'Minecrafter, Normal';text-align:start;letter-spacing:0px;word-spacing:0px;writing-mode:lr-tb;text-anchor:start;fill:#ff0000;fill-opacity:1;stroke:none;stroke-width:1px;stroke-linecap:butt;stroke-linejoin:miter;stroke-opacity:1"
       x="1246.1653"
       y="365.20432"
       id="text4524"
       sodipodi:linespacing="125%"><tspan
         sodipodi:role="line"
         id="tspan4526"
         x="1246.1653"
         y="365.20432">buzzer</tspan></text>
    <circle
       style="fill:none;fill-opacity:1;stroke:#000000;stroke-width:1.96723855;stroke-miterlimit:4;stroke-dasharray:none;stroke-dashoffset:0;stroke-opacity:1"
       id="circle4528"
       cx="1286.2123"
       cy="445.65781"
       r="20.896322" />
  </g>
  <text
     xml:space="preserve"
     style="font-style:normal;font-variant:normal;font-weight:normal;font-stretch:normal;font-size:19.375px;line-height:125%;font-family:Minecrafter;-inkscape-font-specification:'Minecrafter, Normal';text-align:start;letter-spacing:0px;word-spacing:0px;writing-mode:lr-tb;text-anchor:start;fill:#ff0000;fill-opacity:1;stroke:none;stroke-width:1px;stroke-linecap:butt;stroke-linejoin:miter;stroke-opacity:1;"
     x="16.583357"
     y="270.30865"
     id="text4556"
     sodipodi:linespacing="125%"><tspan
       sodipodi:role="line"
       id="tspan4558"
       x="16.583357"
       y="270.30865">1</tspan></text>
  <text
     xml:space="preserve"
     style="font-style:normal;font-variant:normal;font-weight:normal;font-stretch:normal;font-size:19.375px;line-height:125%;font-family:Minecrafter;-inkscape-font-specification:'Minecrafter, Normal';text-align:start;letter-spacing:0px;word-spacing:0px;writing-mode:lr-tb;text-anchor:start;fill:#ff0000;fill-opacity:1;stroke:none;stroke-width:1px;stroke-linecap:butt;stroke-linejoin:miter;stroke-opacity:1;"
     x="308.45041"
     y="253.72528"
     id="text4560"
     sodipodi:linespacing="125%"><tspan
       sodipodi:role="line"
       id="tspan4562"
       x="308.45041"
       y="253.72528">2</tspan></text>
  <text
     xml:space="preserve"
     style="font-style:normal;font-variant:normal;font-weight:normal;font-stretch:normal;font-size:19.375px;line-height:125%;font-family:Minecrafter;-inkscape-font-specification:'Minecrafter, Normal';text-align:start;letter-spacing:0px;word-spacing:0px;writing-mode:lr-tb;text-anchor:start;fill:#ff0000;fill-opacity:1;stroke:none;stroke-width:1px;stroke-linecap:butt;stroke-linejoin:miter;stroke-opacity:1;"
     x="601.97583"
     y="258.70029"
     id="text4564"
     sodipodi:linespacing="125%"><tspan
       sodipodi:role="line"
       id="tspan4566"
       x="601.97583"
       y="258.70029">3</tspan></text>
  <text
     xml:space="preserve"
     style="font-style:normal;font-variant:normal;font-weight:normal;font-stretch:normal;font-size:19.375px;line-height:125%;font-family:Minecrafter;-inkscape-font-specification:'Minecrafter, Normal';text-align:start;letter-spacing:0px;word-spacing:0px;writing-mode:lr-tb;text-anchor:start;fill:#000000;fill-opacity:1;stroke:none;stroke-width:1px;stroke-linecap:butt;stroke-linejoin:miter;stroke-opacity:1"
     x="29.85004"
     y="538.95898"
     id="text4568"
     sodipodi:linespacing="125%"><tspan
       sodipodi:role="line"
       id="tspan4570"
       x="29.85004"
       y="538.95898">4</tspan></text>
  <text
     xml:space="preserve"
     style="font-style:normal;font-variant:normal;font-weight:normal;font-stretch:normal;font-size:19.375px;line-height:125%;font-family:Minecrafter;-inkscape-font-specification:'Minecrafter, Normal';text-align:start;letter-spacing:0px;word-spacing:0px;writing-mode:lr-tb;text-anchor:start;fill:#000000;fill-opacity:1;stroke:none;stroke-width:1px;stroke-linecap:butt;stroke-linejoin:miter;stroke-opacity:1"
     x="316.74207"
     y="535.64233"
     id="text4572"
     sodipodi:linespacing="125%"><tspan
       sodipodi:role="line"
       id="tspan4574"
       x="316.74207"
       y="535.64233">5</tspan></text>
  <text
     xml:space="preserve"
     style="font-style:normal;font-variant:normal;font-weight:normal;font-stretch:normal;font-size:19.375px;line-height:125%;font-family:Minecrafter;-inkscape-font-specification:'Minecrafter, Normal';text-align:start;letter-spacing:0px;word-spacing:0px;writing-mode:lr-tb;text-anchor:start;fill:#ff0000;fill-opacity:1;stroke:none;stroke-width:1px;stroke-linecap:butt;stroke-linejoin:miter;stroke-opacity:1;"
     x="600.3175"
     y="550.56732"
     id="text4576"
     sodipodi:linespacing="125%"><tspan
       sodipodi:role="line"
       id="tspan4578"
       x="600.3175"
       y="550.56732">6</tspan></text>
  <g
     id="g4595"
     transform="translate(2.1121658,-3.5644532e-6)">
    <circle
       style="fill:none;fill-opacity:1;stroke:#000000;stroke-width:1.75219631;stroke-miterlimit:4;stroke-dasharray:none;stroke-dashoffset:0;stroke-opacity:1"
       id="circle4323"
       cx="425.2923"
       cy="142.1824"
       r="18.612108" />
    <text
       sodipodi:linespacing="125%"
       id="text4587"
       y="148.25601"
       x="382.24634"
       style="font-style:normal;font-variant:normal;font-weight:normal;font-stretch:normal;font-size:19.375px;line-height:125%;font-family:Minecrafter;-inkscape-font-specification:'Minecrafter, Normal';text-align:start;letter-spacing:0px;word-spacing:0px;writing-mode:lr-tb;text-anchor:start;fill:#000000;fill-opacity:1;stroke:none;stroke-width:1px;stroke-linecap:butt;stroke-linejoin:miter;stroke-opacity:1"
       xml:space="preserve"><tspan
         y="148.25601"
         x="382.24634"
         id="tspan4589"
         sodipodi:role="line">+</tspan></text>
    <text
       xml:space="preserve"
       style="font-style:normal;font-variant:normal;font-weight:normal;font-stretch:normal;font-size:19.375px;line-height:125%;font-family:Minecrafter;-inkscape-font-specification:'Minecrafter, Normal';text-align:start;letter-spacing:0px;word-spacing:0px;writing-mode:lr-tb;text-anchor:start;fill:#000000;fill-opacity:1;stroke:none;stroke-width:1px;stroke-linecap:butt;stroke-linejoin:miter;stroke-opacity:1"
       x="456.72559"
       y="147.48972"
       id="text4591"
       sodipodi:linespacing="125%"><tspan
         sodipodi:role="line"
         id="tspan4593"
         x="456.72559"
         y="147.48972">-</tspan></text>
  </g>
  <g
     id="g4616">
    <rect
       y="129.74495"
       x="354.38232"
       height="24.875032"
       width="13.266684"
       id="rect4585"
       style="fill:#ff0000;fill-opacity:1;stroke:none;stroke-width:1.9311024;stroke-miterlimit:4;stroke-dasharray:none;stroke-dashoffset:0;stroke-opacity:1" />
    <circle
       r="2.4255702"
       cy="162.49701"
       cx="361.01566"
       id="path4602"
       style="fill:none;fill-opacity:1;stroke:#000000;stroke-width:0.46382484;stroke-miterlimit:4;stroke-dasharray:none;stroke-dashoffset:0;stroke-opacity:1" />
    <circle
       style="fill:none;fill-opacity:1;stroke:#000000;stroke-width:0.46382484;stroke-miterlimit:4;stroke-dasharray:none;stroke-dashoffset:0;stroke-opacity:1"
       id="circle4604"
       cx="361.01566"
       cy="121.86779"
       r="2.4255702" />
  </g>
  <text
     xml:space="preserve"
     style="font-style:normal;font-variant:normal;font-weight:normal;font-stretch:normal;font-size:9.53592491px;line-height:125%;font-family:Minecrafter;-inkscape-font-specification:'Minecrafter, Normal';text-align:start;letter-spacing:0px;word-spacing:0px;writing-mode:lr-tb;text-anchor:start;fill:#ff0000;fill-opacity:1;stroke:none;stroke-width:1px;stroke-linecap:butt;stroke-linejoin:miter;stroke-opacity:1"
     x="301.64844"
     y="145.92049"
     id="text4621"
     sodipodi:linespacing="125%"><tspan
       sodipodi:role="line"
       id="tspan4623"
       x="301.64844"
       y="145.92049">100 Ohm</tspan></text>
</svg>
