  0
SECTION
  2
HEADER
  9
$ACADVER
  1
AC1014
  9
$HANDSEED
  5
FFFF
  9
$MEASUREMENT
 70
     1
  0
ENDSEC
  0
SECTION
  2
TABLES
  0
TABLE
  2
VPORT
  5
8
330
0
100
AcDbSymbolTable
 70
     4
  0
VPORT
  5
2E
330
8
100
AcDbSymbolTableRecord
100
AcDbViewportTableRecord
  2
*ACTIVE
 70
     0
 10
0.0
 20
0.0
 11
1.0
 21
1.0
 12
210.0
 22
148.5
 13
0.0
 23
0.0
 14
10.0
 24
10.0
 15
10.0
 25
10.0
 16
0.0
 26
0.0
 36
1.0
 17
0.0
 27
0.0
 37
0.0
 40
341.0
 41
1.24
 42
50.0
 43
0.0
 44
0.0
 50
0.0
 51
0.0
 71
     0
 72
   100
 73
     1
 74
     3
 75
     0
 76
     0
 77
     0
 78
     0
  0
ENDTAB
  0
TABLE
  2
LTYPE
  5
5
330
0
100
AcDbSymbolTable
 70
     1
  0
LTYPE
  5
14
330
5
100
AcDbSymbolTableRecord
100
AcDbLinetypeTableRecord
  2
BYBLOCK
 70
     0
  3

 72
    65
 73
     0
 40
0.0
  0
LTYPE
  5
15
330
5
100
AcDbSymbolTableRecord
100
AcDbLinetypeTableRecord
  2
BYLAYER
 70
     0
  3

 72
    65
 73
     0
 40
0.0
  0
LTYPE
  5
16
330
5
100
AcDbSymbolTableRecord
100
AcDbLinetypeTableRecord
  2
CONTINUOUS
 70
     0
  3
Solid line
 72
    65
 73
     0
 40
0.0
  0
ENDTAB
  0
TABLE
  2
LAYER
  5
2
100
AcDbSymbolTable
 70
1
  0
LAYER
  5
50
100
AcDbSymbolTableRecord
100
AcDbLayerTableRecord
  2
0
 70
0
  6
CONTINUOUS
  0
ENDTAB
  0
TABLE
  2
STYLE
  5
3
330
0
100
AcDbSymbolTable
 70
     1
  0
STYLE
  5
11
330
3
100
AcDbSymbolTableRecord
100
AcDbTextStyleTableRecord
  2
STANDARD
 70
     0
 40
0.0
 41
1.0
 50
0.0
 71
     0
 42
2.5
  3
txt
  4

  0
ENDTAB
  0
TABLE
  2
VIEW
  5
6
330
0
100
AcDbSymbolTable
 70
     0
  0
ENDTAB
  0
TABLE
  2
UCS
  5
7
330
0
100
AcDbSymbolTable
 70
     0
  0
ENDTAB
  0
TABLE
  2
APPID
  5
9
330
0
100
AcDbSymbolTable
 70
     2
  0
APPID
  5
12
330
9
100
AcDbSymbolTableRecord
100
AcDbRegAppTableRecord
  2
ACAD
 70
     0
  0
ENDTAB
  0
TABLE
  2
DIMSTYLE
  5
A
330
0
100
AcDbSymbolTable
 70
     1
  0
DIMSTYLE
105
27
330
A
100
AcDbSymbolTableRecord
100
AcDbDimStyleTableRecord
  2
ISO-25
 70
     0
  3

  4

  5

  6

  7

 40
1.0
 41
2.5
 42
0.625
 43
3.75
 44
1.25
 45
0.0
 46
0.0
 47
0.0
 48
0.0
140
2.5
141
2.5
142
0.0
143
0.03937007874016
144
1.0
145
0.0
146
1.0
147
0.625
 71
     0
 72
     0
 73
     0
 74
     0
 75
     0
 76
     0
 77
     1
 78
     8
170
     0
171
     3
172
     1
173
     0
174
     0
175
     0
176
     0
177
     0
178
     0
270
     2
271
     2
272
     2
273
     2
274
     3
340
11
275
     0
280
     0
281
     0
282
     0
283
     0
284
     8
285
     0
286
     0
287
     3
288
     0
  0
ENDTAB
  0
TABLE
  2
BLOCK_RECORD
  5
1
330
0
100
AcDbSymbolTable
 70
     1
  0
BLOCK_RECORD
  5
1F
330
1
100
AcDbSymbolTableRecord
100
AcDbBlockTableRecord
  2
*MODEL_SPACE
  0
BLOCK_RECORD
  5
1B
330
1
100
AcDbSymbolTableRecord
100
AcDbBlockTableRecord
  2
*PAPER_SPACE
  0
ENDTAB
  0
ENDSEC
  0
SECTION
  2
BLOCKS
  0
BLOCK
  5
20
330
1F
100
AcDbEntity
  8
0
100
AcDbBlockBegin
  2
*MODEL_SPACE
 70
     0
 10
0.0
 20
0.0
 30
0.0
  3
*MODEL_SPACE
  1

  0
ENDBLK
  5
21
330
1F
100
AcDbEntity
  8
0
100
AcDbBlockEnd
  0
BLOCK
  5
1C
330
1B
100
AcDbEntity
 67
     1
  8
0
100
AcDbBlockBegin
  2
*PAPER_SPACE
  1

  0
ENDBLK
  5
1D
330
1B
100
AcDbEntity
 67
     1
  8
0
100
AcDbBlockEnd
  0
ENDSEC
  0
SECTION
  2
ENTITIES
  0
SPLINE
  5
100
100
AcDbEntity
  8
0
 62
7
100
AcDbSpline
 70
0
 71
3
 72
10
 73
6
 74
4
 40
0.000000
 40
0.000000
 40
0.000000
 40
0.000000
 40
1.758342
 40
3.462683
 40
5.221126
 40
5.221126
 40
5.221126
 40
5.221126
 10
145.360980
 20
215.699892
 30
0.0
 10
144.771599
 20
215.607782
 30
0.0
 10
143.610938
 20
215.426389
 30
0.0
 10
142.273605
 20
214.088668
 30
0.0
 10
142.092294
 20
212.927987
 30
0.0
 10
142.000221
 20
212.338580
 30
0.0
 11
145.360980
 21
215.699892
 31
0.0
 11
143.663422
 21
215.241566
 31
0.0
 11
142.458404
 21
214.036281
 31
0.0
 11
142.000221
 21
212.338580
 31
0.0
  0
LWPOLYLINE
  5
101
100
AcDbEntity
  8
0
 62
7
100
AcDbPolyline
 90
2
 70
1
 10
142.000221
 20
212.338580
 30
0.0
 10
142.000221
 20
194.060833
 30
0.0
  0
SPLINE
  5
102
100
AcDbEntity
  8
0
 62
7
100
AcDbSpline
 70
0
 71
3
 72
10
 73
6
 74
4
 40
0.000000
 40
0.000000
 40
0.000000
 40
0.000000
 40
1.758443
 40
3.462784
 40
5.221126
 40
5.221126
 40
5.221126
 40
5.221126
 10
142.000221
 20
194.060833
 30
0.0
 10
142.092294
 20
193.471426
 30
0.0
 10
142.273605
 20
192.310746
 30
0.0
 10
143.610938
 20
190.973024
 30
0.0
 10
144.771599
 20
190.791632
 30
0.0
 10
145.360980
 20
190.699522
 30
0.0
 11
142.000221
 21
194.060833
 31
0.0
 11
142.458404
 21
192.363132
 31
0.0
 11
143.663422
 21
191.157848
 31
0.0
 11
145.360980
 21
190.699522
 31
0.0
  0
LWPOLYLINE
  5
103
100
AcDbEntity
  8
0
 62
7
100
AcDbPolyline
 90
2
 70
1
 10
145.360980
 20
190.699522
 30
0.0
 10
152.639228
 20
190.699522
 30
0.0
  0
SPLINE
  5
104
100
AcDbEntity
  8
0
 62
7
100
AcDbSpline
 70
0
 71
3
 72
10
 73
6
 74
4
 40
0.000000
 40
0.000000
 40
0.000000
 40
0.000000
 40
1.758342
 40
3.462683
 40
5.221126
 40
5.221126
 40
5.221126
 40
5.221126
 10
152.639228
 20
190.699522
 30
0.0
 10
153.228609
 20
190.791632
 30
0.0
 10
154.389270
 20
190.973024
 30
0.0
 10
155.726603
 20
192.310746
 30
0.0
 10
155.907915
 20
193.471426
 30
0.0
 10
155.999987
 20
194.060833
 30
0.0
 11
152.639228
 21
190.699522
 31
0.0
 11
154.336786
 21
191.157848
 31
0.0
 11
155.541804
 21
192.363132
 31
0.0
 11
155.999987
 21
194.060833
 31
0.0
  0
LWPOLYLINE
  5
105
100
AcDbEntity
  8
0
 62
7
100
AcDbPolyline
 90
2
 70
1
 10
155.999987
 20
194.060833
 30
0.0
 10
155.999987
 20
212.338580
 30
0.0
  0
LWPOLYLINE
  5
106
100
AcDbEntity
  8
0
 62
7
100
AcDbPolyline
 90
3
 70
1
 10
152.639228
 20
215.699892
 30
0.0
 10
145.360980
 20
215.699892
 30
0.0
 10
145.360980
 20
215.699892
 30
0.0
  0
SPLINE
  5
107
100
AcDbEntity
  8
0
 62
7
100
AcDbSpline
 70
0
 71
3
 72
10
 73
6
 74
4
 40
0.000000
 40
0.000000
 40
0.000000
 40
0.000000
 40
1.758443
 40
3.462784
 40
5.221126
 40
5.221126
 40
5.221126
 40
5.221126
 10
155.999987
 20
212.338580
 30
0.0
 10
155.907915
 20
212.927987
 30
0.0
 10
155.726603
 20
214.088668
 30
0.0
 10
154.389270
 20
215.426389
 30
0.0
 10
153.228609
 20
215.607782
 30
0.0
 10
152.639228
 20
215.699892
 30
0.0
 11
155.999987
 21
212.338580
 31
0.0
 11
155.541804
 21
214.036281
 31
0.0
 11
154.336786
 21
215.241566
 31
0.0
 11
152.639228
 21
215.699892
 31
0.0
  0
LWPOLYLINE
  5
108
100
AcDbEntity
  8
0
 62
7
100
AcDbPolyline
 90
2
 70
1
 10
145.360980
 20
215.363650
 30
0.0
 10
152.639228
 20
215.363650
 30
0.0
  0
SPLINE
  5
109
100
AcDbEntity
  8
0
 62
7
100
AcDbSpline
 70
0
 71
3
 72
10
 73
6
 74
4
 40
0.000000
 40
0.000000
 40
0.000000
 40
0.000000
 40
1.584679
 40
3.116918
 40
4.701596
 40
4.701596
 40
4.701596
 40
4.701596
 10
152.639228
 20
215.363650
 30
0.0
 10
153.170599
 20
215.281460
 30
0.0
 10
154.215756
 20
215.119802
 30
0.0
 10
155.420450
 20
213.915108
 30
0.0
 10
155.582109
 20
212.869951
 30
0.0
 10
155.664298
 20
212.338580
 30
0.0
 11
152.639228
 21
215.363650
 31
0.0
 11
154.169622
 21
214.952431
 31
0.0
 11
155.253079
 21
213.868974
 31
0.0
 11
155.664298
 21
212.338580
 31
0.0
  0
LWPOLYLINE
  5
10a
100
AcDbEntity
  8
0
 62
7
100
AcDbPolyline
 90
2
 70
1
 10
155.664298
 20
212.338580
 30
0.0
 10
155.664298
 20
194.060833
 30
0.0
  0
SPLINE
  5
10b
100
AcDbEntity
  8
0
 62
7
100
AcDbSpline
 70
0
 71
3
 72
10
 73
6
 74
4
 40
0.000000
 40
0.000000
 40
0.000000
 40
0.000000
 40
1.584679
 40
3.116918
 40
4.701596
 40
4.701596
 40
4.701596
 40
4.701596
 10
155.664298
 20
194.060833
 30
0.0
 10
155.582109
 20
193.529463
 30
0.0
 10
155.420450
 20
192.484306
 30
0.0
 10
154.215756
 20
191.279612
 30
0.0
 10
153.170599
 20
191.117953
 30
0.0
 10
152.639228
 20
191.035764
 30
0.0
 11
155.664298
 21
194.060833
 31
0.0
 11
155.253079
 21
192.530440
 31
0.0
 11
154.169622
 21
191.446983
 31
0.0
 11
152.639228
 21
191.035764
 31
0.0
  0
LWPOLYLINE
  5
10c
100
AcDbEntity
  8
0
 62
7
100
AcDbPolyline
 90
2
 70
1
 10
152.639228
 20
191.035764
 30
0.0
 10
145.360980
 20
191.035764
 30
0.0
  0
SPLINE
  5
10d
100
AcDbEntity
  8
0
 62
7
100
AcDbSpline
 70
0
 71
3
 72
10
 73
6
 74
4
 40
0.000000
 40
0.000000
 40
0.000000
 40
0.000000
 40
1.584679
 40
3.116918
 40
4.701596
 40
4.701596
 40
4.701596
 40
4.701596
 10
145.360980
 20
191.035764
 30
0.0
 10
144.829609
 20
191.117953
 30
0.0
 10
143.784452
 20
191.279612
 30
0.0
 10
142.579758
 20
192.484306
 30
0.0
 10
142.418100
 20
193.529463
 30
0.0
 10
142.335910
 20
194.060833
 30
0.0
 11
145.360980
 21
191.035764
 31
0.0
 11
143.830586
 21
191.446983
 31
0.0
 11
142.747129
 21
192.530440
 31
0.0
 11
142.335910
 21
194.060833
 31
0.0
  0
LWPOLYLINE
  5
10e
100
AcDbEntity
  8
0
 62
7
100
AcDbPolyline
 90
2
 70
1
 10
142.335910
 20
194.060833
 30
0.0
 10
142.335910
 20
212.338580
 30
0.0
  0
LWPOLYLINE
  5
10f
100
AcDbEntity
  8
0
 62
7
100
AcDbPolyline
 90
2
 70
1
 10
145.360980
 20
215.363650
 30
0.0
 10
145.360980
 20
215.363650
 30
0.0
  0
LWPOLYLINE
  5
110
100
AcDbEntity
  8
0
 62
7
100
AcDbPolyline
 90
5
 70
1
 10
197.800485
 20
174.572573
 30
0.0
 10
202.453843
 20
174.572573
 30
0.0
 10
202.453843
 20
169.919215
 30
0.0
 10
197.800485
 20
169.919215
 30
0.0
 10
197.800485
 20
174.572573
 30
0.0
  0
SPLINE
  5
111
100
AcDbEntity
  8
0
 62
7
100
AcDbSpline
 70
0
 71
3
 72
10
 73
6
 74
4
 40
0.000000
 40
0.000000
 40
0.000000
 40
0.000000
 40
1.584679
 40
3.116918
 40
4.701596
 40
4.701596
 40
4.701596
 40
4.701596
 10
142.335910
 20
212.338580
 30
0.0
 10
142.418100
 20
212.869951
 30
0.0
 10
142.579758
 20
213.915108
 30
0.0
 10
143.784452
 20
215.119802
 30
0.0
 10
144.829609
 20
215.281460
 30
0.0
 10
145.360980
 20
215.363650
 30
0.0
 11
142.335910
 21
212.338580
 31
0.0
 11
142.747129
 21
213.868974
 31
0.0
 11
143.830586
 21
214.952431
 31
0.0
 11
145.360980
 21
215.363650
 31
0.0
  0
LWPOLYLINE
  5
112
100
AcDbEntity
  8
0
 62
7
100
AcDbPolyline
 90
5
 70
1
 10
216.006573
 20
206.070868
 30
0.0
 10
230.019133
 20
206.070868
 30
0.0
 10
230.019133
 20
194.590292
 30
0.0
 10
216.006573
 20
194.590292
 30
0.0
 10
216.006573
 20
206.070868
 30
0.0
  0
ENDSEC
  0
SECTION
  2
OBJECTS
  0
DICTIONARY
  5
C
330
0
100
AcDbDictionary
  3
ACAD_GROUP
350
D
  3
ACAD_MLINESTYLE
350
17
  0
DICTIONARY
  5
D
330
C
100
AcDbDictionary
  0
DICTIONARY
  5
1A
330
C
100
AcDbDictionary
  0
DICTIONARY
  5
17
330
C
100
AcDbDictionary
  3
STANDARD
350
18
  0
DICTIONARY
  5
19
330
C
100
AcDbDictionary
  0
ENDSEC
  0
EOF
